<?xml version="1.0" standalone="no"?>
<!DOCTYPE svg PUBLIC "-//W3C//DTD SVG 1.1//EN" "http://www.w3.org/Graphics/SVG/1.1/DTD/svg11.dtd" >
<svg>
<metadata>
Created by FontForge 20090914 at Fri Feb 24 06:34:06 2012
 By root
From the WSI-Font Collection.  Copyright (c)1993 W.S.I.  All Rights Reserved.  Redistribution strictly prohibited.
</metadata>
<defs>
<font id="FunstuffBold" horiz-adv-x="454" >
  <font-face 
    font-family="Funstuff"
    font-weight="7"
    font-stretch="normal"
    units-per-em="1000"
    panose-1="0 0 0 0 0 0 0 0 0 0"
    ascent="800"
    descent="-200"
    x-height="352"
    cap-height="917"
    bbox="-163 -352 1201 917"
    underline-thickness="0"
    underline-position="-100"
    unicode-range="U+0020-U+F002"
  />
<missing-glyph horiz-adv-x="800" 
d="M50 0v800h700v-800h-700zM700 50v700h-600v-700h600z" />
    <glyph glyph-name=".notdef" horiz-adv-x="800" 
d="M50 0v800h700v-800h-700zM700 50v700h-600v-700h600z" />
    <glyph glyph-name=".null" horiz-adv-x="0" 
 />
    <glyph glyph-name="nonmarkingreturn" horiz-adv-x="276" 
 />
    <glyph glyph-name="space" unicode=" " horiz-adv-x="276" 
 />
    <glyph glyph-name="exclam" unicode="!" horiz-adv-x="522" 
d="M346 828q0 -25 -10 -40.5t-33 -15.5l-7 24q0 20 30 54q17 0 20 -22zM474 705q0 -10 -21.5 -29.5t-34.5 -19.5q-7 0 -21 13q15 18 23 26q26 27 38 28q13 0 16 -18zM496 505q0 -9 -13 -14.5t-30 -8.5q-19 0 -36.5 11.5t-18.5 27.5l2 10q14 0 38 -8q8 -2 23 -9l25 6z
M192 808q0 -15 -1 -24q-6 -55 -35 -63q-8 0 -20 26q19 13 24.5 37t14.5 24h17zM152 599q0 -15 -13.5 -15.5t-21.5 -0.5l-21 40q0 9 17 9q13 0 26 -9.5t13 -23.5zM359 616q2 -13 -16 -94q-2 -7 -36 -153q-20 -85 -20 -91q8 -3 22.5 6.5l30.5 19.5q14 0 14 -23l-50 -39
q-55 -43 -59 -45q-6 -3 -19 -5t-27 -3l-14 46l21 42l-13 396q32 6 49 10q52 12 58 21q36 0 51 -44q4 -14 8 -44zM132 423q0 -25 -39 -25q-10 -1 -14 -1q-5 0 -8 2q-5 3 -16 14q0 10 13 19l6 3l37 5q7 1 14 -1t7 -16zM306 62q0 -25 -19.5 -43.5t-48.5 -18.5q-30 0 -49 18
t-19 52q0 30 17 49.5t50 19.5q27 0 46 -16q23 -20 23 -61z" />
    <glyph glyph-name="quotedbl" unicode="&#x22;" horiz-adv-x="209" 
d="M175 668q0 -15 -7 -50t-7 -55q2 -4 2 -7q5 -18 5 -32q0 -10 -3 -18q-8 -4 -11 -4q-10 0 -18 9.5t-12 24.5q-5 35 -5 123q0 45 31 45q25 0 25 -36zM93 673l-10 -142q-1 -7 -6.5 -17t-13.5 -10q-4 0 -21 12l-8 139q2 16 4 24q8 24 27 24q21 0 28 -30z" />
    <glyph glyph-name="numbersign" unicode="#" horiz-adv-x="1140" 
d="M1106 126l-55 -4h-274l-71 -9q-5 0 -13.5 12.5t-5.5 19.5q2 8 4 12q6 13 15 25l283 -3l89 9q14 -18 20 -27q11 -17 8 -35zM1095 432q0 -85 -55.5 -144t-139.5 -59q-75 0 -128.5 51.5t-53.5 127.5q0 58 36.5 108.5t94.5 71.5q-77 25 -98 25q-62 0 -74 -62l-105 -550l5 -54
l-8 -11v-14.5t1 -21.5q0 -30 -2.5 -48t-10.5 -18l-28 2l-301 685l-12 -5q-16 -53 -25.5 -141t-15.5 -184l-4 -80q0 -36 18.5 -50.5t69.5 -14.5l3 -42l-24 -2l-12 1q-15 0 -28 -0.5t-29 -0.5h-20h-20q-8 2 -11 2q-16 -3 -38 -6.5t-35 -3.5q-17 0 -28 9l-4 37q68 0 97.5 16
t29.5 47l8 91q9 94 21 201t22 154l-46 28q-5 5 -5 22v12q0 2 1 5l50 14q7 0 35 -8q5 -1 14 -5q14 0 63 17q16 5 47 17q37 0 52 -34l170 -409l75 392q6 35 -39 74q-12 11 -17 17q-18 19 -19 23q0 13 20 26q39 -28 160 -78q103 -43 131 -50q103 0 161 -56q51 -50 51 -124z
M1010 409q0 59 -23 97q-27 44 -74 44q-29 0 -50 -35t-21 -84q0 -57 25 -100.5t66 -43.5q32 0 54.5 33.5t22.5 88.5z" />
    <glyph glyph-name="dollar" unicode="$" horiz-adv-x="471" 
d="M434 468q0 -47 -29 -81.5t-73 -34.5q-35 0 -61.5 22.5t-26.5 57.5q0 20 18.5 37.5t42.5 17.5q26 0 27 -16q0 -7 -8 -12l-22 2q-31 0 -31 -29q0 -25 15.5 -39.5t47.5 -14.5q31 0 53.5 25.5t22.5 65.5q0 35 -27 59t-69 24q-53 0 -92 -34t-39 -85q0 -42 43 -100.5l85 -113.5
q45 -65 45 -109q0 -41 -29 -73q-37 -41 -110 -41l-46 -159l-51 15l41 149q-134 35 -134 172q0 45 18 82.5t44 37.5q9 0 19 -10t11 -25q0 -23 -22 -23q-3 2 -5 3q-5 3 -12 10q-23 -46 -23 -78q0 -57 38 -99t98 -42q66 0 66 57q0 21 -100 180q-48 76 -48 144q0 65 46.5 112.5
t130.5 63.5l20 113l47 -11l-19 -106q35 0 62 -24q36 -32 36 -90z" />
    <glyph glyph-name="percent" unicode="%" horiz-adv-x="592" 
d="M552 171q0 -67 -44.5 -119.5t-104.5 -52.5q-52 0 -90 32t-38 82q0 20 5 41q-9 -3 -13 -5q-16 -7 -19 -12l-4 -36l15 -95q-20 -29 -31 -43q-34 -44 -51 -47q-9 0 -17.5 4t-21.5 17l239 638q-48 -19 -143 -38q-32 -6 -87 -15q-36 -9 -59 -37t-23 -66t22.5 -68t57.5 -30
q37 0 66 26t29 59q0 21 -14.5 38.5t-31.5 17.5q-6 0 -12.5 -8.5t-10.5 -19.5q9 -5 13 -8q14 -11 14 -19q0 -17 -13.5 -33.5t-34.5 -16.5q-20 0 -36 17t-16 41q0 34 24.5 57.5t62.5 23.5q33 0 57.5 -22.5t24.5 -57.5q0 -51 -31.5 -87.5t-85.5 -36.5q-53 0 -83 30
q-34 34 -34 97q0 110 125 134q58 7 92 14q102 20 167 54q39 -6 39 -30q-1 0 -23 -46l-57 -125q-43 -99 -72 -179l4 -17q70 82 137 82q43 0 75 -41t32 -94zM491 144q0 36 -15 64t-35 28q-34 0 -54.5 -21.5t-20.5 -55.5q0 -37 17.5 -61.5t49.5 -24.5q26 0 42 16.5t16 54.5z
" />
    <glyph glyph-name="ampersand" unicode="&#x26;" horiz-adv-x="600" 
d="M581 89q0 -39 -27.5 -67.5t-70.5 -28.5t-109 53q-22 17 -58 54q-24 -38 -43 -56q-58 -56 -134 -56q-50 0 -85 31t-35 82q0 42 15 72q29 59 126 156q-14 39 -14 62q0 45 26 75t61 30q25 0 41.5 -13t16.5 -39q0 -39 -43 -89q-14 -16 -44 -43q17 -32 55 -87.5t54 -71.5
q27 29 50 67.5t20 51.5q2 11 -34 19q-11 2 -36 6l18 30q61 -11 96 -11q41 0 72 18q23 13 51 44q19 0 19 -17q-25 -34 -44.5 -43.5t-96.5 -28.5q-14 -49 -54 -108q-13 -20 -39 -51q56 -56 86 -78q36 -26 64 -26q27 0 44 18t17 45q0 24 -14 40.5t-41 16.5q-16 0 -25.5 -6
t-13.5 -26q12 1 18 -1q18 -6 18 -28q0 -25 -26 -25q-18 0 -31 13t-13 37q0 26 21.5 46.5t52.5 20.5q36 0 62.5 -25.5t26.5 -62.5zM258 437q0 11 -8.5 19.5t-19.5 8.5q-54 0 -54 -70q0 -17 13 -50q23 19 34 30q35 36 35 62zM293 126q-11 7 -63 85l-50 76q-48 -60 -48 -102
t25.5 -76t69.5 -34q30 0 66 51z" />
    <glyph glyph-name="quotesingle" unicode="'" horiz-adv-x="127" 
d="M93 673l-10 -142q-1 -6 -7.5 -16t-12.5 -11q-4 0 -21 12q1 7 1 26q0 31 -2.5 59.5t-6.5 53.5q0 48 31 48q21 0 28 -30z" />
    <glyph glyph-name="parenleft" unicode="(" horiz-adv-x="352" 
d="M193 720q0 -16 -20 -16q-15 0 -15 19q0 16 17 16q18 0 18 -19zM133 626q0 -16 -19 -16q-18 0 -18 19q0 17 20 17q5 0 11 -6t6 -14zM89 525q0 -8 -6 -14t-12 -6q-20 0 -20 19q0 20 19 20t19 -19zM283 693q-51 -68 -67 -153q-12 -62 -12 -182q0 -73 12 -138q9 -47 32 -132
q13 -6 15 -8q5 -6 9 -27q0 -20 -22 -45t-42 -25l-20 1q-9 36 -17 72l-35 142q-20 84 -22 99l-86 3v35h83q0 131 50 248q45 104 98 136q2 -1 13 -13q3 -4 11 -13zM74 422q0 -17 -17 -17q-21 0 -21 22q0 16 20 16q18 0 18 -21zM72 219q0 -15 -19 -15q-16 0 -16 19q0 15 19 15
q16 0 16 -19zM92 129q0 -11 -7 -17t-18 -6q-20 0 -20 22q0 23 21 23q24 0 24 -22zM121 30q0 -20 -19 -20q-8 0 -15 6t-7 16q0 20 21 20q20 0 20 -22zM145 -56q0 -19 -20 -19q-18 0 -18 21q0 18 20 18q5 0 11.5 -5.5t6.5 -14.5z" />
    <glyph glyph-name="parenright" unicode=")" horiz-adv-x="409" 
d="M208 788q0 -5 -7 -11t-16 -6q-8 0 -12.5 6.5t-4.5 16.5q0 19 20 19t20 -25zM265 690q0 -4 -6.5 -9.5t-14.5 -5.5q-17 0 -17 21q0 17 19 17t19 -23zM312 614q0 -22 -19 -22q-22 0 -22 17q0 23 19 23q22 0 22 -18zM334 519q0 -18 -20 -18q-5 0 -11 5t-6 13q0 20 19 20
q18 0 18 -20zM343 426q0 -8 -5.5 -14.5t-12.5 -6.5q-22 0 -22 17q0 23 17 23q8 0 15.5 -5.5t7.5 -13.5zM381 316l-121 -3q-25 -98 -51 -154t-100 -171l-40 20q50 104 77.5 202t27.5 174q0 73 -20 144t-43 86l-14 112l12 16q93 -107 124.5 -177.5t31.5 -182.5v-30h115z
M313 209q0 -19 -20 -19q-4 0 -9 3q-11 7 -11 17q0 20 21 20q19 0 19 -21zM275 112q0 -18 -24 -18q-19 0 -19 21q0 11 4 15q5 5 20 5q19 0 19 -23zM222 23q0 -17 -19 -17q-20 0 -20 23q0 18 22 18q17 0 17 -24zM174 -54q0 -25 -21 -25q-23 0 -23 22q0 9 5.5 16.5t13.5 7.5
q25 0 25 -21z" />
    <glyph glyph-name="asterisk" unicode="*" horiz-adv-x="363" 
d="M238 641q0 -20 -11 -37t-23 -17q-27 0 -27 20q0 31 37 68q24 -12 24 -34zM330 566q0 -19 -25 -27q-14 -22 -26 -28.5t-35 -6.5q-27 6 -31.5 11.5t-11.5 28.5l12 13q4 2 8 2q16 3 31 3q30 6 43 9t27 8q5 0 8 -13zM137 604q0 -14 -14 -16q-17 0 -42 13q-35 18 -35 44
q0 28 24 28q15 -1 42 -35q9 -11 25 -34zM200 498l-9 -72q-3 -13 -18 -16q-15 0 -24 10.5t-9 23.5l3 27q0 43 29 43q25 0 28 -16zM127 522q0 -15 -15 -27t-42 -12q-37 0 -37 29q0 10 18.5 23t38.5 13q15 0 26 -6.5t11 -19.5z" />
    <glyph glyph-name="plus" unicode="+" horiz-adv-x="429" 
d="M401 323l-4 -40h-66q-13 0 -29 -1t-51 -10l-8 -97q-2 -6 -2 -12q0 -13 5 -33q0 -3 3 -9q0 -20 -18 -20q-32 10 -59.5 17t-43.5 7q0 10 -1 21t-3 21l17 89q-21 -3 -35 -4q-40 -5 -78 -14v49l119 18l23 136l17 -7l62 11q7 -1 15.5 -3.5t14.5 -8.5l-19 -115q18 3 28 4
q32 4 54 4z" />
    <glyph glyph-name="comma" unicode="," horiz-adv-x="272" 
d="M224 -11q0 -77 -24 -118t-67 -41q-45 0 -58 35q-4 11 -4 36l26 11q2 -7 4 -11q12 -26 19 -26q30 0 49 28t19 77q0 74 -28 74q-9 0 -27.5 -26.5t-39.5 -26.5q-20 0 -38 18t-18 41q0 32 25.5 54.5t58.5 22.5q45 0 74 -39.5t29 -108.5z" />
    <glyph glyph-name="hyphen" unicode="-" horiz-adv-x="448" 
d="M407 282q-21 -9 -39 -11t-34 -2l-170 -16q-28 -4 -63.5 -11.5t-37.5 -7.5q-4 0 -13 23q-3 7 -9 23l31 34l182 10q39 15 65.5 20t51.5 5q19 -17 29 -38q7 -15 7 -29z" />
    <glyph glyph-name="period" unicode="." horiz-adv-x="240" 
d="M184 80q0 -31 -23 -55t-55 -24t-55 22t-23 57q0 34 22 58t56 24q32 0 53 -18q25 -22 25 -64z" />
    <glyph glyph-name="slash" unicode="/" horiz-adv-x="381" 
d="M396 724q0 -8 -15 -28q-39 -51 -48 -80l-49 -158l-99 -308q-57 -173 -74 -209q-51 12 -77 12q-14 0 -23 -1.5t-19 -3.5l-5 14q38 24 60.5 46.5t34.5 54.5l223 679q12 -3 25 -5.5t16 -1.5l21 14q29 0 29 -25z" />
    <glyph glyph-name="zero" unicode="0" horiz-adv-x="457" 
d="M413 240q0 -96 -51 -164t-126 -68t-136.5 70t-61.5 161q0 84 52.5 148.5t127.5 64.5q70 0 70 -67q0 -22 -17.5 -38.5t-47.5 -16.5q-18 0 -27 5q-14 8 -14 27q0 4 2 14q10 -4 16 -6q18 -6 28 -6q14 0 21.5 3t7.5 16q0 16 -12 28t-32 12q-43 0 -78.5 -44t-35.5 -102
q0 -64 43.5 -113.5t104.5 -49.5q44 0 79 48.5t35 115.5q0 9 1 16l2 12q0 10 -8.5 27.5t-36.5 58.5l19 12q45 -48 58 -75q17 -35 17 -89z" />
    <glyph glyph-name="one" unicode="1" horiz-adv-x="384" 
d="M357 12q-86 0 -189 -15q-34 -5 -86 -15l-5 22l81 16l-14 352l-107 -49l-9 23q86 37 158 87l97 79q4 0 13 -8q3 -2 9 -9l-26 -114v-86l-11 -71l5 -17l7 -156q0 -10 14.5 -14t33.5 -4q10 0 20 1q3 0 8 1z" />
    <glyph glyph-name="two" unicode="2" horiz-adv-x="485" 
d="M463 121q0 -57 -43 -100t-102 -43q-34 0 -86.5 14l-106.5 29q-22 0 -73 -22l-31 36l79 103l86 110l41 52q14 19 21.5 36.5t7.5 33.5q0 33 -20.5 54.5t-55.5 21.5q-30 0 -54 -13t-24 -37q0 -21 9.5 -35t27.5 -14q16 0 22 27q2 9 3 27l20 7q2 -7 3.5 -16t1.5 -13
q0 -27 -11 -41q-14 -18 -48 -18q-28 0 -45.5 17.5t-17.5 49.5q0 36 36.5 63.5t89.5 27.5q54 0 92.5 -34.5t38.5 -87.5q0 -34 -24.5 -82.5t-84.5 -126.5l-71 -92l69 -21q77 -22 99 -22q55 0 92 32.5t37 77.5q0 22 -11.5 40t-29.5 18q-7 0 -12 -11q-12 -25 -19 -25
q-25 0 -25 27q0 18 15 32t35 14q27 0 48 -27t21 -69z" />
    <glyph glyph-name="three" unicode="3" horiz-adv-x="410" 
d="M366 89q0 -90 -84.5 -185.5t-172.5 -95.5q-46 0 -78 28t-32 66q0 29 20 50t51 21q42 0 42 -33q0 -20 -28 -26q-10 -2 -27 6q-3 1 -8 5q-17 -9 -17 -27q0 -28 20.5 -45.5t56.5 -17.5q58 0 106.5 53.5t48.5 125.5q0 68 -31.5 102t-107.5 48l-23 47q0 29 40 29q58 0 88.5 27
t30.5 76q0 47 -28.5 78.5t-75.5 31.5q-38 0 -65 -22t-27 -56q0 -18 5.5 -28.5t21.5 -10.5q21 0 21 20q0 10 -12 26l28 11q8 -12 10 -19q2 -6 2 -14q0 -22 -16.5 -36.5t-39.5 -14.5q-19 0 -34.5 21t-15.5 53q0 38 38 70t88 32q57 0 98 -40t41 -100q0 -35 -9 -56.5t-41 -50.5
q116 -17 116 -149z" />
    <glyph glyph-name="four" unicode="4" horiz-adv-x="423" 
d="M388 293l-107 -22l2 -238l66 8l-2 -19q-55 -8 -98 -17q-65 -13 -124 -32l-7 20l43 15l15 255l-145 -21l-5 27l80.5 111.5t31.5 87.5q0 12 -1 16q-4 14 -18 14q-11 0 -33 -13q-3 -2 -10 -6q2 9 3 14q5 16 12 20q24 18 42 18q35 0 35 -49q0 -45 -22 -91l-51 -86q0 -5 9 -20
l74 11l6 89q46 0 75.5 10.5t34.5 10.5q21 0 18 -20q3 -11 -8 -35q-3 -8 -12 -23l7 -20l85 14z" />
    <glyph glyph-name="five" unicode="5" horiz-adv-x="553" 
d="M547 531l-76 -174l-21 17l34 85l-116 -7q-13 -37 -18 -57q-12 -46 -24 -121q63 -23 89.5 -57t26.5 -103q0 -95 -65 -164t-157 -69q-84 0 -142.5 50.5t-58.5 124.5q0 55 39.5 95.5t100.5 40.5q41 0 68 -21.5t27 -56.5q0 -36 -29 -66t-66 -30q-31 0 -53 13.5t-22 38.5
q0 31 33 31q19 0 23 -21q1 -7 0 -22h20q45 5 45 58q0 19 -19 32t-52 13q-30 0 -54 -25t-24 -62q0 -59 41.5 -102.5t102.5 -43.5q65 0 115.5 51.5t50.5 124.5t-44.5 117.5t-121.5 44.5q-8 0 -11 1q-11 4 -8 16l5 64l-4 37q14 0 31 60q5 20 14 61q48 -15 77 -21t61 -6
q52 0 67 1l65 8l32 55z" />
    <glyph glyph-name="six" unicode="6" horiz-adv-x="378" 
d="M337 235q0 -72 -45.5 -121.5t-115.5 -49.5q-65 0 -106 43t-41 116q0 58 48 126l142 202l29 -20l-109 -159q21 9 32 12t26 3q60 0 100 -45t40 -107zM250 225q0 47 -17 78.5t-46 31.5q-25 0 -45.5 -31.5t-20.5 -74.5q0 -52 18.5 -85.5t46.5 -33.5q25 0 44.5 32t19.5 83z
" />
    <glyph glyph-name="seven" unicode="7" horiz-adv-x="362" 
d="M349 453q-82 -144 -117 -235.5t-63 -237.5l47 19q10 -4 10 -14q0 -5 -1 -8l-2 -2l-155 -75q-20 6 -22 17l47 93l161 396l-13 5l-74 -16q-79 -19 -116 -36q-9 0 -17 15q-2 5 -6 16l3 74q65 0 144 12.5t153 25.5q14 -7 19 -28q1 -7 2 -21z" />
    <glyph glyph-name="eight" unicode="8" horiz-adv-x="430" 
d="M389 171q0 -73 -50.5 -124.5t-126.5 -51.5q-75 0 -126.5 49.5t-51.5 126.5q0 101 105 148q-59 41 -59 108q0 54 35.5 91.5t88.5 37.5q38 0 62.5 -21.5t24.5 -56.5q0 -36 -23 -62t-55 -26q-58 0 -58 49q0 23 11.5 38t33.5 15q20 0 20 -23q0 -24 -35 -34q9 -19 29 -19
q23 0 37.5 15.5t14.5 40.5q0 26 -16.5 42.5t-45.5 16.5q-39 0 -66 -27t-27 -70q0 -45 33 -79t78 -34q42 0 71.5 31.5t29.5 83.5q0 13 -1 22t-3 14q17 -8 26 -23.5t9 -42.5q0 -47 -40 -87q32 -23 53.5 -67t21.5 -81zM295 158q0 47 -23 81.5t-57 34.5t-60 -35t-26 -85
q0 -44 23.5 -73.5t60.5 -29.5q33 0 57.5 31.5t24.5 75.5z" />
    <glyph glyph-name="nine" unicode="9" horiz-adv-x="387" 
d="M342 329q0 -67 -52 -153l-175 -279l-26 -37q-12 0 -22 9t-10 23q0 4 11 13q3 3 12 9q35 35 113 154q85 129 74 150q-29 -44 -82 -44q-63 0 -111.5 44.5t-48.5 107.5q0 60 49.5 109.5t115.5 49.5t109 -44t43 -112zM297 339q0 41 -21.5 71t-54.5 30q-29 0 -53 -29t-24 -69
q0 -44 21 -76.5t55 -32.5q30 0 53.5 31.5t23.5 74.5z" />
    <glyph glyph-name="colon" unicode=":" horiz-adv-x="149" 
d="M124 327q0 -14 -13 -24t-29 -10q-33 0 -33 41q0 16 13.5 25t29.5 9q10 0 21 -13t11 -28zM121 147q0 -37 -47 -37q-14 0 -25 12t-11 35q0 13 12.5 24.5t33.5 11.5q13 0 25 -12t12 -34z" />
    <glyph glyph-name="semicolon" unicode=";" horiz-adv-x="250" 
d="M194 294q0 -31 -22 -55t-56 -24q-32 0 -55 22t-23 57q0 34 22 58t56 24q33 0 55.5 -20.5t22.5 -61.5zM223 -11q0 -76 -23 -117.5t-67 -41.5q-26 0 -45.5 16.5t-19.5 41.5l3 13l26 11l9 -18q11 -19 16 -19q27 0 46.5 28t19.5 77q0 74 -28 74q-13 0 -27.5 -26.5
t-40.5 -26.5q-21 0 -38 18t-17 41q0 30 24.5 53.5t58.5 23.5q45 0 74 -40t29 -108z" />
    <glyph glyph-name="less" unicode="&#x3c;" horiz-adv-x="697" 
d="M612 421q-7 -9 -11 -13q-15 -14 -27 -14t-12 13q0 8 15.5 21l24.5 20q10 0 10 -10.5v-16.5zM522 427q0 -9 -21.5 -22.5t-45.5 -16.5q-3 23 11.5 41.5t30.5 18.5q9 0 17 -6t8 -15zM425 418q0 -10 -5 -16q-9 -11 -33 -14q-18 0 -18 23q15 10 22 14q24 15 29 15zM643 166
q0 -18 -16 -18q-13 0 -23 8.5t-13 26.5q-1 6 6 13q2 2 8 6q13 -9 19 -14q19 -15 19 -22zM560 156q0 -14 -15 -14q-17 0 -37 17t-20 31l12 17q20 -11 30 -17q30 -20 30 -34zM458 156q0 -12 -26 -21l-21 21q-21 23 -21 33l5 14q13 0 39 -23q8 -7 24 -24zM571 261
q0 -10 -25 -17q-34 20 -107.5 26t-197.5 6h-60l122 -151q0 -20 -19 -20q-9 0 -23 13l-227 194q56 31 88 51q97 60 136 102q2 1 13 0t23 -4q1 -11 -57 -65q-19 -18 -60 -53l379 -2z" />
    <glyph glyph-name="equal" unicode="=" horiz-adv-x="449" 
d="M402 365q-2 -4 -13.5 -8t-16.5 -4q-8 0 -16 3l-274 2q-16 -4 -28 2t-12 22q0 9 14 26q20 -3 78 -5t125 -2h19h16h14h11q46 0 69 5zM415 234l-50 -4l-248 -3l-65 -9q-2 0 -10 14q-2 4 -8 14q0 8 2.5 17t14.5 19h257l81 9q11 -13 16 -20q15 -23 10 -37z" />
    <glyph glyph-name="greater" unicode="&#x3e;" horiz-adv-x="681" 
d="M303 383q3 -6 -2.5 -15t-13.5 -10q-9 0 -25 11q-5 3 -14 11q-3 8 -3 12q0 8 5 14q8 3 24 -7q26 -15 29 -16zM647 315q-70 -61 -165 -166l-42 -49q-13 -11 -25 -14q-19 0 -19 18l108 161l-281 -35l-82 -30q-17 0 -24 13l7 82l378 38l-118 91l-10 15l32 8l98 -60
q101 -62 143 -72zM220 352q-24 0 -47 12t-23 22q0 8 7 14t18 8q18 0 37 -26q12 -17 8 -30zM113 358q0 -9 -11 -12q-13 0 -23 12.5t-13 27.5l14 8q11 -10 16 -15q16 -16 17 -21zM304 158q1 -13 -17 -34l-20 -22q-28 3 -28 20q0 11 29 32q9 7 29 19q6 -7 7 -15zM207 151
q0 -13 -19.5 -32.5t-35.5 -19.5q-12 0 -12 16q0 11 26 32l26 19q9 0 13 -7q1 -2 2 -8zM104 132q0 -13 -8.5 -23t-25.5 -12q-16 0 -16 17q4 9 19 24q5 5 15 14q11 -1 14 -4q6 -6 2 -16z" />
    <glyph glyph-name="question" unicode="?" horiz-adv-x="359" 
d="M338 423q0 -16 -8 -40t-24 -45l-83 -114l3 -37l-21 -10q-34 0 -34 25q0 24 92 126q43 48 43 93q0 48 -28 78q-31 33 -85 33q-51 0 -87.5 -35.5t-36.5 -84.5q0 -39 23 -66t61 -27q27 0 52 29t25 62q0 29 -11.5 44t-37.5 15q-18 0 -33.5 -13.5t-15.5 -35.5q0 -25 26 -25
q8 0 15 11t16 11q14 0 14 -12q0 -43 -48 -43q-19 0 -33.5 14.5t-17.5 41.5q0 78 81 78q31 0 51.5 -18.5t20.5 -54.5q0 -49 -32 -90q-35 -45 -85 -45q-42 0 -70.5 30.5t-28.5 81.5q0 69 41.5 115.5t107.5 46.5q61 0 104.5 -40.5t43.5 -98.5zM278 60q0 -26 -18 -43t-45 -17
q-29 0 -48 17t-19 44q0 28 18.5 48.5t46.5 20.5t46.5 -18.5t18.5 -51.5z" />
    <glyph glyph-name="at" unicode="@" horiz-adv-x="809" 
d="M754 17q4 -11 -1 -21q-10 -13 -16 -22l-14 11l-33 79l-11 8q-23 -20 -64 -40q-52 -25 -90 -25q-12 0 -17 1q-19 -7 -37 -42q-6 -11 -14 -34q-20 10 -23 27l9 41q-58 13 -100 30q-51 21 -86 53l-69 -66l-29 20l60 78q-9 18 -31 52q-36 56 -36 89l-90 -4l-7 53h89
q0 102 32 169l-95 52l38 45l83 -54q31 48 82.5 80.5t111.5 41.5v108h46l-1 -102l35 2q41 0 73.5 -8.5t72.5 -26.5l56 45l34 -28l-46 -45q39 -38 57 -71t18 -74q0 -85 -49 -156.5t-113 -71.5q-39 0 -61 43q-7 14 -14 44l-22 -5q-13 -16 -22 -25q-58 -57 -133 -57
q-32 0 -52.5 17t-20.5 51q0 64 71 145q76 87 146 87q45 0 78 -22t33 -52l-29 -105q0 -21 17 -38t37 -17q26 0 57.5 53t31.5 100q0 70 -65.5 122.5t-159.5 52.5q-122 0 -202 -75t-80 -199q0 -113 65.5 -187.5t190.5 -99.5l14 8q83 0 135 20q62 24 96 80l16 -6v-25zM504 398
q0 30 -9 48t-25 18q-9 0 -37 -38q-33 -45 -33 -80q0 -16 7 -42q2 -8 7 -23q38 28 64 61.5t26 55.5z" />
    <glyph glyph-name="A" unicode="A" horiz-adv-x="973" 
d="M980 18q-6 -1 -13.5 -1.5t-18.5 -0.5q-16 0 -27.5 1.5t-21.5 6.5q-33 -12 -119 -54q-46 -22 -146 -74l-72 -37l-7 35l85 49l-16 12l35 247l-3 30l9 11l18 155l-116 48l-263 -311q-45 -50 -76 -71q-40 -27 -82 -27q-53 0 -95 39t-42 93q0 44 26.5 73.5t70.5 29.5
q34 0 55 -22t21 -47q0 -26 -13 -45.5t-38 -19.5q-24 0 -41 9.5t-30 33.5q16 -9 30.5 -12.5t29.5 -3.5q13 0 23.5 10t10.5 32q0 19 -14.5 31.5t-39.5 12.5q-27 0 -46 -24.5t-19 -54.5q0 -38 26 -67.5t68 -29.5l37 21l35 -2l15 8q39 34 145 160l195.5 244.5t130.5 182.5l15 29
l24 2l67 -27q0 31 12 42t33 11q23 0 38.5 -12t15.5 -30q0 -23 -6.5 -39.5t-21.5 -16.5q-16 0 -20 1q-10 5 -15 7l-6 -132q-8 -165 -12 -264q-7 -167 -7 -194q-2 -9 -4 -15q-6 -17 -14 -34l9 -10q48 23 113 41l53 13zM705 640q-8 -5 -70 -88l-61 -83l111 -41q8 44 11 69
q12 81 12 115q0 19 -3 28z" />
    <glyph glyph-name="B" unicode="B" horiz-adv-x="706" 
d="M637 298q0 -168 -90 -249q-57 -31 -83.5 -41t-47.5 -10l-72 4l-13 -7q-32 17 -60.5 25t-49.5 8q-42 0 -124 -60q-27 -20 -74 -60l-16 42l64 50l6 21l-12 28l32 19l4 232q-14 11 -17 21l16 39l-14 23v23q15 8 15 14q-6 11 -8 17q-8 20 -8 35l18 6l7 110l-31 -33h-35l-7 14
l55 79l38 18l27 -1q27 27 74 47q25 11 129 44q24 0 50 -2t34 -6q8 -11 13 -16q15 -17 22 -18q14 -11 19 -21t5 -34q0 -93 -52 -167q-17 -24 -52 -55q57 15 101 15q137 0 137 -154zM429 647q0 29 -3.5 37.5t-14.5 17.5h-41l-11 -10l-28 10q-6 12 -12 12l-40 -18
q-31 -88 -44 -152.5t-13 -130.5l83 36l25 4q33 25 49 46q50 64 50 148zM534 376q-17 9 -30.5 13.5t-25.5 4.5q-15 0 -41 -5q-9 -1 -25 -6q-6 -1 -7 -13t-1 -25l-38 -136l-26 -140q6 -2 20 -17q4 -5 14 -16q26 0 51.5 6t33.5 18zM359 360q-7 1 -63 -36.5t-75 -41.5v-173
l9 -21h35l37 -18q11 20 34 138t23 152z" />
    <glyph glyph-name="C" unicode="C" horiz-adv-x="727" 
d="M723 315q0 -8 -2.5 -15t-7.5 -13l-45 -52q-105 -122 -190.5 -176t-169.5 -54q-121 0 -201.5 86.5t-80.5 224.5q0 144 120 261q112 109 225 109q59 0 96.5 -31.5t37.5 -84.5q0 -38 -41.5 -83.5t-86.5 -45.5q-35 0 -58.5 16.5t-23.5 43.5q0 37 28.5 65.5t68.5 28.5
q7 0 13 -3q2 -1 5 -4l5 -33l-22 -15q-7 2 -10 2q-14 3 -18 2q-18 -3 -27.5 -11.5t-9.5 -27.5q0 -15 11.5 -25.5t29.5 -10.5q37 0 67 29t30 66q0 29 -21.5 49t-60.5 20q-75 0 -139 -101.5t-64 -205.5q0 -109 55.5 -179t146.5 -70q121 0 290 197l27 31q0 7 2.5 14t14.5 7
q2 -3 3 -4q3 -4 3 -7z" />
    <glyph glyph-name="D" unicode="D" horiz-adv-x="721" 
d="M666 316q0 -145 -100 -222q-123 -95 -403 -95l-29 8q-29 -5 -45 -7q-52 -9 -72 -14q-10 0 -10 14q18 14 89 37l67 20l-5 17l8 25l-4 19l-66 -15q-4 3 -8.5 12t-4.5 18q0 10 5 16h51q10 3 15 5q17 8 22 19q2 3 3 20.5t1 21.5v12q0 9 -2 17q-12 0 -30 -9q-3 -1 -9 -5
q-7 -2 -20 7q-2 1 -7 5l-2 32l53 13q26 6 35 36l-4 48l-27 -19q-11 -7 -27 -7q-3 0 -11 2q-6 10 -6 29t8 28l59 5l15 32l-5 41l-20 -11q-15 0 -31 6q-5 2 -13 6l2 16.5t8 14.5l37 3q20 5 24.5 12t4.5 34l-16 14l-59 -37l-29 20q64 50 123 67t148 17l99 -36q82 -34 126 -90
q62 -78 62 -202zM598 342q0 94 -71 169q-66 70 -134 70q-45 0 -63 -59t-18 -185q0 -25 -0.5 -56.5t-0.5 -77.5q0 -47 1 -85t4 -50q144 0 219 88q63 74 63 186zM526 327q0 -38 -21.5 -60t-62.5 -22q-28 0 -46 10.5t-18 33.5q0 38 24.5 65.5t63.5 27.5q60 0 60 -55z" />
    <glyph glyph-name="E" unicode="E" horiz-adv-x="676" 
d="M621 204q0 -25 -10.5 -41t-10.5 -37q0 -16 7 -41q1 -4 4 -11q4 -27 -19 -37q-15 0 -55 13q-6 2 -17 6l-203 -23l-67 -29l-42 -8l-62 8q-7 -17 -14.5 -23t-20.5 -6l-46 18l-3 19l74 36q-10 5 -16.5 16.5t-6.5 22.5l20 18q-9 13 -12 20t-3 24q9 3 15.5 10t6.5 16
q-5 8 -5 30q0 20 4 33l-14 13q7 18 7 49q0 68 -28.5 164t-42.5 106l6 35l-38 15l-10 16q0 9 16 28l26 -9l138 6l38 18l30 -10q40 1 61 2q64 5 88 21h52l6 5l13 -9l77 7q13 -12 24 -32q3 -6 12 -27q-5 -18 -19 -38.5t-30 -27.5q-17 -4 -42 9.5t-25 29.5l-4 50l-29 5l-211 -74
l-7 -12l13 -207l107 15l46 16l3 12l23 10l15 -6q17 -8 20 -17q-2 -17 -5 -22q-4 -7 -26 -22q-104 0 -142 -24t-38 -90q0 -61 42 -175l176 25l10 8l-3 12q-4 17 -4 23q0 26 14 56q4 9 14 24h118z" />
    <glyph glyph-name="F" unicode="F" horiz-adv-x="539" 
d="M532 675l-13 -30v-125q-8 -2 -19.5 -3.5t-17.5 -1.5q-8 0 -11 1q-17 89 -45 113.5t-118 24.5q-5 6 -7 8q-8 8 -14 8q-18 0 -37 -70t-19 -136q0 -21 1 -30l18 -15q17 -4 47 -6t55 -2h24t13 1l20 -15q2 -8 2 -10q0 -15 -15 -24q-5 -3 -16 -6q-34 14 -86 22l-42 5l-12 -29
q0 -36 -1 -63q-5 -134 -5 -149q0 -51 4 -74l14 -50l-47 -29l-25 9l-102 5l-13 38q3 14 14 39l12 24q2 35 3.5 88t1.5 81q0 45 -3 71l14 18l7 283q-5 2 -41 -6q-23 -5 -38 -5l-7 33q36 6 57 9q68 10 98 10q12 0 24 -2q7 2 10 3q11 6 14 16l47 -13q23 3 35 5q36 7 53 17
l127 10q19 0 31 -24q3 -8 8 -24z" />
    <glyph glyph-name="G" unicode="G" horiz-adv-x="873" 
d="M478 748q0 -22 -30 -22q-11 0 -20 8t-9 19q0 34 21 34q38 0 38 -39zM324 700q0 -13 -7.5 -22.5t-21.5 -9.5q-12 0 -20 8t-8 20t7.5 21.5t18.5 9.5q12 0 21.5 -7.5t9.5 -19.5zM852 297q0 -15 -6.5 -23.5t-24.5 -8.5q-9 0 -17 30l-12 46q-4 13 -12.5 16.5t-35.5 3.5
q-24 0 -39 -3q-3 0 -7 -3l-2 -50l-28 -96l1 -135l-15 -8q-11 6 -17 8q-19 8 -26 8q-10 0 -44 -18q-83 -45 -111 -52l-116 25l-77 -3l-35 64q-25 12 -57 57q-28 40 -32 60l-31 31l14 32q-7 6 -10 9q-11 12 -11 22q9 19 19 55t14 74q32 75 100 137q78 71 166 86q16 6 25 8
q27 8 36 8q12 0 36 -9q8 -3 23 -10l46 -3q0 38 3.5 61t14.5 34q27 0 30 -8q-2 -19 -3 -31q-8 -77 -8 -89q0 -33 3 -83q0 -9 2 -25q-11 -16 -26 -19q-4 2 -6 4q-13 15 -13 59v15q0 21 -2 28q-5 18 -32 18q-106 0 -177.5 -91t-71.5 -232q0 -89 43.5 -152.5t107.5 -63.5
q53 0 84 46q36 54 36 163q-69 0 -100.5 20.5t-31.5 63.5q0 24 16.5 44.5t34.5 20.5q16 0 16 -21q0 -6 -13.5 -15.5t-13.5 -20.5q0 -23 24.5 -39t56.5 -16q36 0 114 40q39 20 77 20q48 0 84.5 -25t36.5 -64zM189 614q0 -13 -7.5 -22.5t-21.5 -9.5q-22 0 -22 26q0 15 6 24.5
t14 9.5q13 0 22 -8t9 -20zM648 -33q0 -11 -8.5 -18.5t-18.5 -7.5q-15 0 -23.5 7.5t-8.5 25.5q0 16 9 22q22 0 36 -7.5t14 -21.5zM99 469q0 -28 -37 -28q-8 0 -14.5 9t-6.5 17q0 21 10 31q18 0 33 -7.5t15 -21.5zM472 -55q0 -16 -4 -25t-19 -9q-12 0 -25 9.5t-13 23.5
q0 17 6 27.5t19 10.5q14 0 25 -12t11 -25zM87 254q0 -5 -12.5 -11t-30.5 -6q-37 0 -37 26q0 20 27 20q24 0 38.5 -8t14.5 -21zM277 -23q0 -15 -6 -24t-22 -9q-33 0 -33 28q0 35 26 35q15 0 25 -9t10 -21zM137 88q0 -35 -24 -35q-17 0 -28.5 10.5t-11.5 22.5q0 14 7.5 24.5
t20.5 10.5t24.5 -9t11.5 -24z" />
    <glyph glyph-name="H" unicode="H" horiz-adv-x="728" 
d="M665 607l-15 -40q0 -17 -6 -98l-11 -153q-6 -97 -6 -150q0 -42 3 -66q19 -33 19 -58q0 -11 -6.5 -21.5t-17.5 -10.5q-19 6 -29 8q-34 9 -43 9q-27 0 -57 -14q-5 -2 -13 -7q-7 3 -10 5q-22 12 -22 21q0 10 16 26q2 3 9 8q1 24 1.5 56.5t0.5 73.5v22q0 49 -1 75t-6 42
q-22 7 -34 10q-39 11 -51 11q-30 0 -80 -18q-16 -6 -44 -18l3 -244l26 -26l26 8l24 -8l3 -32l-26 -14l-158 -4l-89 10l6 40l49 -4l10 24q0 158 -5.5 288t-16.5 181l-24 33q-4 -2 -7 -3q-19 -7 -29 -7q-11 5 -19 13q-3 2 -7 8v9q0 10 3 11q10 2 16 2q15 0 26 -3q2 0 5 -3
l213 35q5 3 7 4q8 4 12 4q19 0 19 -19q0 -9 -3.5 -16t-14.5 -14q-14 2 -22 3q-27 4 -36 2l5 -235q32 9 50 13q59 14 83 14q18 0 56 -5q12 -1 34 -5q4 37 6 58q7 70 7 88q-1 9 -1 11q-9 15 -13 24q-14 28 -14 40q0 6 9 13l9 6q6 -1 12 -1h12q41 0 98 10q19 3 49 10
q11 -7 11 -22v-7q0 -1 -1 -3z" />
    <glyph glyph-name="I" unicode="I" horiz-adv-x="477" 
d="M472 907l-8 -18l-40 -30l-29 -58l-24 -3l-6 18q17 31 37.5 57.5t35.5 37.5l30 6zM552 682l-35 -14h-51q-9 -3 -15 -3q-10 0 -15 7t-5 16q9 11 19 14l76 4q18 0 26 -24zM188 766l-15 -15l-26 7q-12 25 -18 39q-19 45 -19 65l24 11q22 0 22 -14l-7 -25q-4 -20 17.5 -39
t21.5 -29zM373 652q0 -31 -27.5 -55.5t-67.5 -24.5q-33 0 -57 25.5t-24 67.5q0 33 27 57t64 24q34 0 59.5 -25.5t25.5 -68.5zM154 655q0 -7 -16.5 -11t-34.5 -4q-24 0 -61 6q-6 1 -17 3q-6 8 -12 24l8 14l43 -1l12 6l56 -4q8 -6 11 -10q11 -12 11 -23zM445 42
q-113 -22 -196 -55q-49 -20 -116 -58q-10 -1 -20 10t-10 28q0 13 6 21.5t22 8.5q13 0 31 -6v9q-15 5 -15 16q14 57 25.5 188t11.5 198q-15 8 -25 12q-30 12 -52 12l-6 26q6 13 17 19t24 6h70q9 2 40 21.5t70 19.5q13 0 23.5 -7.5t10.5 -21.5q-22 -85 -35 -250
q-9 -116 -9 -196l118 27q16 3 16 -18v-7q0 -1 -1 -3z" />
    <glyph glyph-name="J" unicode="J" horiz-adv-x="519" 
d="M478 232q-33 6 -52 9q-62 10 -85 10l-148 -509q-11 -38 -18 -48.5t-18 -10.5q-24 0 -60 20q-42 23 -42 49q-35 52 -35 119q0 64 30.5 113t72.5 49q47 0 47 -50q0 -30 -23 -53l-20 -20q0 -14 -6 -22t-15 -8q-14 0 -14 20q0 9 28 47q14 19 14 34q0 22 -17 22q-27 0 -44 -34
t-17 -93q0 -57 10.5 -86.5t33.5 -29.5q20 0 37 25q22 31 41 103l96 361l-128 11l12 74l126 -12l51 335q-70 0 -172 -14q-34 -4 -91 -15l-7 47q112 0 204 14l144 31q19 0 24 -13q1 -4 1 -13l-24 -50l-54 -327l116 -30z" />
    <glyph glyph-name="K" unicode="K" horiz-adv-x="748" 
d="M733 184q0 -78 -71 -138t-169 -60q-93 0 -154 71l-78 94q-80 95 -85 95q-7 0 -11.5 -11t-4.5 -24l15 -209l-83 -1l4 565l-75 -5v48q39 1 79.5 3t66.5 7l-1 -178q1 -6 3.5 -14.5t13.5 -16.5q-1 -6 -1 -8q-1 -8 -4 -11l-27 -18l7 -5q-4 -11 1 -19.5t16 -12.5l221 218
q21 20 38 49q10 17 20 17t21.5 -12.5t11.5 -33.5q0 -29 -25 -41q-8 -4 -26 -6l-164 -147l236 -258q50 -58 92 -58q41 0 76 37t35 83q0 23 -11 38t-34 15q-13 0 -24 -14.5t-11 -35.5q0 -14 15.5 -22.5t15.5 -20.5q0 -25 -22 -25q-20 0 -32 12q-15 15 -15 43q0 30 23 56t57 26
q27 0 43.5 -18.5t16.5 -53.5z" />
    <glyph glyph-name="L" unicode="L" horiz-adv-x="864" 
d="M860 108q0 -68 -68.5 -119.5t-163.5 -51.5q-81 0 -204 35q-41 11 -107 35l-28 -70l-145 63q-30 13 -44 38q-4 8 -8 22q-14 -17 -22 -25q-24 -25 -35 -25t-16.5 11.5t-5.5 22.5q0 17 16 24l97 47q12 6 20 46q1 7 3 19l-9 5l-43 -9q-18 0 -18 20l2 27l56 -8q22 -3 25 14
l6 38q1 7 -5.5 10.5t-17.5 5.5l-42 6q-8 1 -10 17q-1 11 16 30l63 -28l17 35l4 38q2 18 -10 20l-45 5q-17 2 -13 24l4 19l15 3l40 -17l23 -5l1 26l13 61l-14 4l-38 -5q-10 -2 -17.5 5t-7.5 20q0 11 11 29l24 -9q26 -9 36 -9q7 0 12.5 8.5t5.5 20.5q0 6 -1 9l7 20l-8 11
l-54 5q-8 1 -13 8t-5 14q0 17 19 13l56 -14l5 -6l12 2q16 -8 28 -12q36 -13 74 -18q15 0 25.5 7.5t35.5 7.5q13 0 22 -8t9 -24t-31 -71q-38 -67 -59 -153q-33 -136 -33 -329q184 -77 304 -77q78 0 140 43t62 101q0 27 -18 45t-53 18q-56 0 -100.5 -39t-44.5 -94
q0 -18 -1.5 -28t-9.5 -10t-12.5 12.5t-4.5 30.5q0 57 51.5 106t120.5 49q44 0 74 -26t30 -66z" />
    <glyph glyph-name="M" unicode="M" horiz-adv-x="880" 
d="M534 575q0 -31 -22.5 -54.5t-56.5 -23.5q-27 0 -47.5 19.5t-20.5 50.5q0 34 20 58t51 24q27 0 51.5 -22.5t24.5 -51.5zM846 679l-20 -6l-22 53q-7 18 -23 18q-13 0 -35 -20q-27 -25 -52 -68l61 -458q14 -105 29 -134.5t57 -29.5l3 -41h-23h-26h-26h-24h-21h-18h-15h-12
h-26.5t-17.5 1q-22 -4 -33 -5q-35 -5 -44 -5q-13 0 -25 9l-2 37q37 0 58 5.5t28 20.5q0 51 -12 136.5t-24 112.5l6 24l-14 72l-13 15l-78 -138l15 -33l-28 -30l-21 -60q-18 -11 -28 -16q-32 -17 -44 -17q-16 0 -36 46q-6 15 -17 47q-15 24 -23 39q-28 49 -40 77l-17 9v16
l-32 48q0 16 -1 25q-5 30 -23 49l29 -389q0 -21 15.5 -32t52.5 -11l23 1l5 -40l-101 1l-87 -9l-37 11l-2 31q56 0 76.5 11.5t20.5 47.5l-1 28l-26 369q-9 30 -14 45q-18 46 -32 46l-31 -9q-35 -10 -38 -10q-11 0 -19 10.5t-8 22.5q0 25 19 25q2 0 14 -6t26 -6q6 0 22 7
q5 2 15 7q30 0 88 26q19 8 53 26q13 0 25.5 -18t12.5 -53l32 -54l101 -215l29 -40h19l183 338q70 129 130 129q15 0 26 -10.5t18 -27.5z" />
    <glyph glyph-name="N" unicode="N" horiz-adv-x="828" 
d="M814 598q-3 -11 -11 -11q-6 0 -30 13.5t-31 13.5q-53 0 -65 -63l-105 -550l5 -54l-8 -11v-14.5t1 -21.5q0 -30 -2.5 -48t-10.5 -18l-28 2l-301 685l-12 -5q-16 -53 -25.5 -141t-15.5 -184l-4 -80q0 -36 18.5 -50.5t69.5 -14.5l3 -42l-24 -2l-12 1q-15 0 -28 -0.5
t-29 -0.5h-20h-20q-8 2 -11 2q-16 -3 -38 -6.5t-35 -3.5q-17 0 -28 9l-4 37q68 0 97.5 16t29.5 47l8 91q9 94 21 201t22 154l-46 28q-5 5 -5 22v12q0 2 1 5l50 14q12 -5 26 -9t23 -4q23 0 69 17q15 5 41 17q37 0 52 -34l170 -409l75 392q6 35 -39 74q-12 9 -17 14
q-18 17 -19 26q0 13 20 26q65 -47 106 -69q52 -29 99 -38q5 -4 8 -11q8 -15 9 -24z" />
    <glyph glyph-name="O" unicode="O" horiz-adv-x="927" 
d="M760 642q0 -20 -34 -43q-11 -7 -34 -19q-8 0 -16 24l43 45q5 4 15.5 6.5t22.5 4.5zM906 485q0 -7 -4 -15l-106 -40q-27 0 -27 22q0 17 19 24l93 21l5 1q19 0 20 -13zM561 706l-8 -59q-1 -5 -2 -7q-4 -7 -17 -6q-16 0 -16 16l25 89q8 -2 14 -9t6 -16q0 -5 -2 -8zM882 236
q0 -22 -45 -22q-49 0 -52 23q0 9 6.5 19t15.5 11q25 -5 37 -8q38 -11 38 -23zM397 659l-12 -9q-11 3 -22 20t-11 34q0 31 13 31q12 0 22 -22t10 -54zM267 603q0 -11 -11 -14q-16 0 -36 30q-6 10 -16 30q0 6 1 9q1 5 7 16q55 -26 55 -71zM740 343q0 -117 -56 -206t-155 -121
l-65 5l-56 -12q-83 0 -156 72q-76 75 -76 171q0 112 97 276l32 19q18 19 36 28q54 28 143 28q56 0 79.5 -8t48.5 -44l13 -2q55 -55 85 -107t30 -99zM770 -18q0 -11 -18 -11q-14 0 -29.5 25t-15.5 57q0 26 19 26q14 0 26 -18l-3 -14zM158 524q0 -1 -11 -24t-11 -38l9 -35
q0 -11 -2 -15q-4 -8 -17 -12q-6 0 -13 18t-7 42q0 56 26 83q26 0 26 -19zM602 -48l-19 -75l-20 3l-20 63q0 17 6 28t19 12q34 0 34 -31zM121 216q0 -10 -8 -16t-19 -6t-40 34t-33 55q3 14 6.5 22t21.5 8q13 -22 60 -71q12 -13 12 -26zM205 48q0 -28 -63 -28q-58 0 -58 31
q0 11 5.5 20.5t14.5 9.5q16 -10 24 -14q28 -15 38 -15l30 8q9 0 9 -12zM321 -57l-33 -81l-23 -5l-12 18q7 25 12 37q17 39 35 43q18 0 21 -12zM587 269q0 103 -58.5 187.5t-132.5 84.5q-37 0 -64.5 -58t-27.5 -140q0 -104 56 -190.5t127 -86.5q39 0 69.5 59.5t30.5 143.5z
" />
    <glyph glyph-name="P" unicode="P" horiz-adv-x="537" 
d="M528 479q0 -90 -57.5 -155.5t-140.5 -65.5q-50 0 -76 38q4 -32 6 -52q6 -62 6 -111q0 -18 13 -52t13 -46q0 -20 -16 -27q-23 8 -38 11q-46 11 -85 11l-89 -30h-26q-2 4 -2 13q0 17 15 34l33 36l12 -2l-1 -14q0 -11 4 -16q1 -1 5 -4l27 7q-11 22 -16 33q-16 34 -16 42
q0 6 12 21q0 79 -7.5 196.5t-20.5 200.5l-56 16l-3 6q-3 8 -3 14q0 8 5 12t12 4l115 4l69 28l26 -2q21 5 32 7q38 8 46 8q89 0 145.5 -45.5t56.5 -119.5zM487 476q0 50 -40 92t-97 42q-31 0 -74 -22q-14 -7 -37 -22l10 -62q30 23 47 34q52 34 80 34q33 0 53 -22t20 -66
q0 -35 -22 -64t-54 -29q-20 0 -20 17q0 14 25 34t25 46q0 19 -6 29.5t-23 10.5q-33 0 -66 -40t-33 -90q0 -76 62 -76q63 0 106.5 44.5t43.5 109.5z" />
    <glyph glyph-name="Q" unicode="Q" horiz-adv-x="660" 
d="M653 73q0 -11 -14 -17.5t-41 -12.5l-16 5q-78 -25 -99 -33q-83 -31 -132 -64l-30 -4l-24 37q46 6 66.5 25.5t20.5 44.5q0 13 -5 23l-65 126l-46 -4l-141 38q-39 9 -66 60.5t-27 120.5q0 107 74 190t173 83q100 0 170.5 -70.5t70.5 -174.5q0 -65 -12 -93t-64 -77l68 -162
q10 -24 21 -32.5t23 -8.5q20 0 34.5 8.5t33.5 28.5q27 -24 27 -37zM487 444q0 74 -51 135t-112 61q-82 0 -137.5 -61.5t-55.5 -156.5q0 -54 26 -93l63 -71l-2 -9q12 -11 21.5 -15.5t23.5 -4.5q13 0 21.5 1t13.5 3l-42 89q-9 18 -13.5 32t-4.5 27q0 28 11 28q9 0 27 -5t22 -5
q22 0 45 12q25 16 37 23l52 -122q55 49 55 132z" />
    <glyph glyph-name="R" unicode="R" horiz-adv-x="890" 
d="M875 219q0 -74 -49 -128t-124 -54q-82 0 -153 52q-48 35 -109 111q-67 84 -80 96t-62 24l4 -225q0 -39 60 -39l3 -41q-64 -4 -101 -7q-108 -10 -163 -24q-11 0 -25 9l-3 37q74 0 68 33l-7 48l14 19l-28 62l7 64q-1 8 -3 16l-6 23q4 7 6 12q6 16 6 34q0 20 -9 41
q-3 7 -9 17l21 40l-3 72l6 23l-12 57h-12q-15 -13 -23 -19q-25 -19 -35 -19q-11 0 -18.5 9.5t-7.5 18.5q0 5 25 18q4 2 13 7l60 43l177 46q6 3 13.5 6t16.5 3q61 0 128 -53q51 -40 51 -94q0 -63 -72 -142q-24 -26 -72 -66q114 -157 186 -217t153 -60q55 0 96.5 43.5
t41.5 104.5q0 54 -34.5 94.5t-81.5 40.5q-41 0 -74 -31t-33 -73q0 -35 22.5 -61.5t58.5 -26.5q25 0 40.5 13.5t15.5 35.5q0 14 -12.5 25.5t-27.5 11.5q-13 0 -29 -31q-12 26 -12 41q0 32 41 32q26 0 46.5 -22.5t20.5 -51.5q0 -34 -24 -57t-61 -23q-44 0 -76.5 31.5
t-32.5 77.5q0 54 39.5 94.5t95.5 40.5q63 0 105.5 -45.5t42.5 -116.5zM412 535q0 94 -113 111l-2 -248l39 -7q29 28 47 56q29 45 29 88z" />
    <glyph glyph-name="S" unicode="S" horiz-adv-x="559" 
d="M497 575q0 -46 -34.5 -81.5t-83.5 -35.5q-40 0 -68 25t-28 67q0 32 19.5 52.5t48.5 20.5q19 0 35 -11t16 -28q0 -27 -23 -27q-11 0 -48 17q-3 -4 -4 -7q-5 -11 -5 -22q0 -20 17.5 -38.5t37.5 -18.5q39 0 64 21q29 25 29 70t-34 79t-86 34q-59 0 -91.5 -31.5t-32.5 -92.5
q0 -28 4 -52q1 -8 4 -19l29 -17q15 -4 32 -26q5 -7 14 -21l68 -24l8 -20q46 -29 71 -62.5t25 -87.5q0 -112 -76.5 -199.5t-180.5 -87.5q-81 0 -140.5 58.5t-59.5 143.5q0 55 40.5 93.5t106.5 38.5q42 0 72 -30t30 -74q0 -39 -21.5 -68.5t-52.5 -29.5q-32 0 -55.5 19.5
t-23.5 46.5q0 33 28 33q9 0 21 -31.5t30 -31.5q20 0 34 11.5t14 31.5q0 38 -24 67q-27 32 -68 32q-40 0 -68.5 -28.5t-28.5 -72.5q0 -65 46.5 -114.5t112.5 -49.5q57 0 97.5 43.5t40.5 110.5q0 65 -57 118l-108 90q-58 59 -58 137q0 88 62.5 154.5t148.5 66.5q62 0 108 -42
t46 -100z" />
    <glyph glyph-name="T" unicode="T" horiz-adv-x="800" 
d="M793 700q0 -53 -45 -88t-118 -35q-48 0 -114 9q-22 3 -57 9l-18 -267l9 -247q-10 -3 -14 -5q-14 -7 -14 -16q0 -25 92 -38l3 -42l-28 -1l-181 29l-77 -9q-13 0 -25 8l-2 37q29 0 57 7.5t28 19.5l-1 102q-18 27 -20 45q11 35 20 89.5t9 126.5q0 29 1 47.5l2 35.5
q-7 7 -12 25v26q0 23 -1.5 33t-8.5 26q-20 6 -33 9q-39 9 -68 9q-47 0 -80.5 -18t-33.5 -46q2 -4 2 -6q5 -17 5 -27q0 -35 -29 -35q-28 0 -28 42q0 47 40 81q44 37 115 37q17 0 116 -14q160 -23 196 -27q121 -15 166 -15q64 0 93 20.5t29 70.5q0 21 -13.5 35.5t-37.5 14.5
q-47 0 -47 -58q0 -7 1 -15t1 -13l-24 -1q-2 18 -2 24q0 87 76 87q30 0 50.5 -22.5t20.5 -59.5z" />
    <glyph glyph-name="U" unicode="U" horiz-adv-x="505" 
d="M443 250q0 -100 -57.5 -179t-135.5 -79q-76 0 -129 63t-62 164l-11 119l-13 51l-2 105l-5 22l9 8l35 1q30 11 45 16q49 17 56 17q39 0 39 -30l-10 -225q0 -94 27 -160t74 -66q41 0 76 53.5t35 122.5q0 57 -34 129l-75 141q0 35 80 70l14 -16q-37 -19 -47 -26
q-18 -14 -18 -28q43 -71 74 -141q35 -77 35 -132z" />
    <glyph glyph-name="V" unicode="V" horiz-adv-x="654" 
d="M651 640l-17 -24l-91 46l-163 -514q-9 -29 -15 -74t-6 -93v-20q2 -12 2 -18l-163 -41l-10 23l62 17l-10 68q-5 -3 -13 -5.5l-15 -4.5q-14 0 -25.5 9t-12.5 24q0 25 15 25q3 0 13.5 -1t14.5 -1q13 0 18 2q1 4 1 13q0 17 -5 36q-1 6 -5 16h-18q-9 -4 -14 -5q-17 -5 -31 -5
q-22 0 -22 27q0 24 47 24q15 0 23 8t5 21l-19 76q-8 2 -10 2q-12 0 -29 -15t-28 -16q-11 0 -20 9t-9 27q0 14 9 18q21 4 31 7q32 9 34 19l-7 50l-17 21q-8 -15 -22 -22q-8 -4 -23 -5l-21 38q8 17 32.5 27t24.5 34q0 23 -24 40l-54 -13q-23 0 -23 28q0 12 12 17q3 0 10 -1
t13 -1q22 0 29.5 5.5t7.5 17.5q0 3 -12 20q-4 5 -12 16l-45 16l-14 -2q-17 15 -18 28q0 10 5.5 19.5t16.5 12.5q7 -7 12 -10q17 -10 40 -10q13 0 27 -0.5t35 -0.5h16q27 0 29 3q15 7 23 10q26 11 30 11q34 0 34 -43q-1 -7 -1 -11l72 -463l163 523l-80 39l14 30z" />
    <glyph glyph-name="W" unicode="W" horiz-adv-x="887" 
d="M880 587l-11 -20l-67 6l-280 -446q-18 -22 -31 -22t-30 11.5t-18 22.5l-6 301l-146 -262q2 -22 22.5 -46.5t20.5 -31.5q0 -4 -10 -12q-15 -4 -32 -17q-5 -4 -15 -14l-26 -13l-20 -24q-23 -25 -33 -26q-7 0 -17 8q-14 11 -19 13l-9 19l-74 520l-66 -9l9 27l199 50
l-1.5 -30.5t-0.5 -20.5q0 -97 28 -240q9 -48 29 -126l145 260q35 92 49 117q9 16 19 16q33 0 37 -16q1 -4 1 -26l-12 -83q1 -26 3.5 -54.5t12.5 -38.5l149 220l-72 20l12 14q59 -21 166 -36q35 -5 94 -11z" />
    <glyph glyph-name="X" unicode="X" horiz-adv-x="689" 
d="M543 385q0 -19 -10.5 -33.5t-27.5 -14.5q-19 0 -32.5 10.5t-13.5 26.5q0 18 10.5 32.5t26.5 14.5q18 0 32.5 -10.5t14.5 -25.5zM668 87l-1 -18h-53l-126 -49q-14 -3 -22 -3q-9 0 -27 8l1 13q9 3 20.5 8t11.5 16t-12 22l-173 197l-164 -217q-7 -8 -7 -20q0 -19 41 -35v-9
q-27 9 -41 13q-42 14 -51.5 17.5t-43.5 8.5q-5 0 -14 2l2 8l58 17l189 252l-189 228l92 83l164 -192l136 172l68 -1l-171 -223l251 -290zM173 311q0 -17 -15 -31t-36 -14q-18 0 -34 12.5t-16 31.5q0 21 15 37t36 16q18 0 34 -16t16 -36z" />
    <glyph glyph-name="Y" unicode="Y" horiz-adv-x="693" 
d="M690 671l-306 -284q-28 -27 -37.5 -43.5t-9.5 -42.5l2 -192q0 -68 69 -68l3 -42h-176l-78 -8q-5 1 -8 1q-8 2 -17 6l-2 37q61 0 73.5 9.5t12.5 58.5l-5 276l-152 231l-41 -11l-11 23l124 35l15 -22l-57 -14l141 -209q10 -16 35 -16q22 0 44 19l280 256h101z" />
    <glyph glyph-name="Z" unicode="Z" horiz-adv-x="850" 
d="M809 171q0 -77 -81.5 -140t-184.5 -63q-39 0 -131 17q-69 13 -156 32l-76 18l-152 -11l-59 -41l-24 24q110 77 156.5 117.5t160.5 161.5l-10 3l-24 -5q-3 7 -4 11q-4 12 -4 17q0 15 15 41l67 -10q12 -1 22 12l140 176l8 17l-60 2q-17 0 -68 -11q-17 -3 -50 -12
q-28 0 -42 -3q-43 -9 -50 -37l1 -71q-3 -2 -5 -3q-8 -4 -11 -4q-33 0 -33 26q3 21 3 45q0 40 -6.5 82t-16.5 66q3 4 13 6q3 0 10 2q9 -9 24 -40l12 -27q56 0 215 11t194 18q23 -8 34 -13q34 -15 34 -27t-26 -30q-8 -6 -27 -16q-9 -10 -92 -121l-150 -202l-78 -107
q-2 -3 -8 -6q-5 -3 -5 -7q0 -15 104.5 -41t157.5 -26q85 0 156 52t71 119q0 38 -34 67t-79 29q-51 0 -87.5 -32.5t-36.5 -79.5q0 -28 14 -48.5t41 -20.5q21 0 36.5 9.5t15.5 22.5l-5 12l-7 -7q-8 -7 -15 -7q-27 0 -27 30q0 13 10.5 22.5t22.5 9.5q21 0 36.5 -12.5
t15.5 -32.5q0 -32 -21 -54t-56 -22q-42 0 -69 28t-27 69q0 56 47 100t114 44q60 0 103.5 -38.5t43.5 -90.5z" />
    <glyph glyph-name="bracketleft" unicode="[" horiz-adv-x="326" 
d="M284 -42q0 -18 -6 -33.5t-14 -17.5l-44 9l-129 -13q-15 0 -15 20l11 136l7 232l-70 -1l-3 42h73v261l-5 35l-3 121q54 3 90.5 4t95.5 4l-1 -30l-103 -5l4 -86l-14 -95l2 -412l-3 -42l22 -98l2 -33z" />
    <glyph glyph-name="backslash" unicode="\" horiz-adv-x="381" 
d="M396 -38l-5 -14q-22 2 -46 3t-31 0l-42 -10l-36 99l-186 576q-7 22 -36 66q-23 35 -27 42q0 25 29 25q6 -4 10 -6q14 -7 22 -7q11 0 18 1.5t12 4.5l223 -679q9 -30 26 -49q21 -24 69 -52z" />
    <glyph glyph-name="bracketright" unicode="]" horiz-adv-x="341" 
d="M321 330l-1 -35l-93 -6l2 -327l12 -31q0 -12 -24.5 -16.5t-66.5 -4.5q-35 0 -58.5 1t-43.5 4l1 32l98 9l-4 177l5 37l1 507l-1 47h-97l-10 31h162q10 0 22 -10t12 -20l-14 -56q-2 -11 -3 -34t-1 -52q0 -84 5 -198q0 -20 3 -53z" />
    <glyph glyph-name="asciicircum" unicode="^" horiz-adv-x="310" 
d="M274 691q1 -7 0 -10q-5 -11 -28 -11l-23 18l-22 11q-13 10 -19 15q-21 16 -27 16q-3 0 -9 -2q-1 0 -5 -2q-20 -22 -31 -33q-36 -34 -55 -34q-6 0 -14 5q-2 1 -7 6l52 56q53 58 60 69l114 -96z" />
    <glyph glyph-name="underscore" unicode="_" horiz-adv-x="671" 
d="M637 -125l-1 -8l-47 -9h-533q-22 23 -22 31q0 11 57 23q43 0 187 -1.5t167 -1.5h29h25h20h17h13h11q39 0 53 3z" />
    <glyph glyph-name="grave" unicode="`" horiz-adv-x="237" 
d="M203 684q1 -3 1 -6v-5q0 -18 -20 -18q-14 0 -40 16q-86 53 -99.5 58t-13.5 26q0 27 29 27q16 0 68 -41l61 -49z" />
    <glyph glyph-name="a" unicode="a" horiz-adv-x="449" 
d="M428 57q0 -19 -22 -19q-5 0 -14 2q-3 0 -8 2l-13 -8l-119 -44l-25 -1l-12 13q-14 -4 -23 -5q-27 -5 -47 -5q-115 0 -115 89q0 37 25 68.5t77 49.5l85 31l-10 39l4 44q-15 47 -47 47q-17 0 -41.5 -28t-24.5 -52q0 -22 19 -22q12 0 14.5 9.5t2.5 33.5q0 10 18 10
q16 0 16 -20q0 -19 -17.5 -36.5t-36.5 -17.5q-16 0 -28.5 12.5t-12.5 32.5q0 41 47.5 82.5t97.5 41.5q64 0 86 -78l56 -241v-18q12 -2 18 -2q12 0 25 3.5t16 3.5q9 0 9 -17zM233 69l-15 128q-72 -19 -108 -48t-36 -66q0 -58 97 -58q41 0 53 10t9 34z" />
    <glyph glyph-name="b" unicode="b" horiz-adv-x="492" 
d="M438 203q0 -83 -44.5 -144.5t-107.5 -61.5q-20 0 -53 2t-54 2l-103 -2q-15 0 -18 4q-4 5 -4 24v13l42 491q1 8 1 11q0 27 -17 35.5t-67 8.5l5 27q52 -7 90 -7q20 0 45 4t51 9q7 0 15.5 -10t11.5 -23l-21 -55l-8 -152l-8 -9l12 -30q23 16 40 22.5t44 6.5q57 0 102.5 -49.5
t45.5 -116.5zM341 207q0 58 -17.5 91t-52.5 33q-25 0 -51 -17t-26 -28l-13 -203q0 -30 9.5 -41.5t38.5 -11.5q52 0 82 47t30 130z" />
    <glyph glyph-name="c" unicode="c" horiz-adv-x="379" 
d="M344 316q0 -31 -18 -52t-53 -21q-29 0 -48.5 14.5t-19.5 35.5q0 18 10.5 31.5t22.5 13.5q14 0 14 -14q-3 -11 -3 -23q0 -13 7.5 -21.5t20.5 -8.5q41 0 41 44q0 28 -24.5 47.5t-60.5 19.5q-48 0 -81.5 -43.5t-33.5 -107.5q0 -70 42 -123t102 -53q24 0 45.5 16.5t21.5 36.5
q0 9 -7.5 17.5t-14.5 8.5l-24 -3q-8 0 -8 14q0 9 3 15.5t18 6.5q5 0 18 -5l26 -9l3 -17l-6 -84q-95 -58 -156 -58q-63 0 -111.5 58.5t-48.5 139.5q0 92 58.5 153.5t148.5 61.5q51 0 83.5 -25.5t32.5 -65.5z" />
    <glyph glyph-name="d" unicode="d" horiz-adv-x="545" 
d="M532 181l-83 -139q-13 -22 -36 -39t-41 -17q-40 0 -75 60q-44 -31 -68.5 -41t-60.5 -10q-60 0 -100.5 47.5t-40.5 121.5q0 76 56 132t133 56q28 0 37 -2.5t45 -19.5q-1 13 -9 45q-2 11 -8 31l2 9q16 7 19.5 16.5t3.5 35.5l-1 62q0 34 -11.5 47t-32.5 13l-33 -2v23l73 -2
q22 0 47 5.5l51 11.5q12 0 18 -8.5t6 -38.5l-8 -462q0 -45 16 -45t51 58q11 19 32 59zM293 263q0 63 -55 63q-46 0 -80 -38t-34 -95q0 -53 35 -90t87 -37q22 0 31 4q15 7 15 25z" />
    <glyph glyph-name="e" unicode="e" horiz-adv-x="498" 
d="M483 425q0 -28 -21 -28q-28 0 -28 25q0 12 8 19t19 7q22 0 22 -23zM362 469q0 -15 -4 -21.5t-9 -6.5q-12 0 -19.5 5t-7.5 19q0 24 25 24q15 0 15 -20zM244 466q0 -28 -21 -28t-21 24q0 21 17 21q25 0 25 -17zM142 397q0 -17 -21 -17q-18 0 -18 20q0 21 21 21q18 0 18 -24
zM429 110q0 -22 -36 -44q-42 -26 -97 -26q-84 0 -139 51t-55 134q0 78 56 132t141 54q43 0 66.5 -14.5t48.5 -61.5l-192 -99q23 -83 50 -118.5t72 -35.5q33 0 46 24.5t21 24.5q18 0 18 -21zM78 308q0 -11 -9 -19t-21 -8q-21 0 -21 30q0 9 8 18t18 9t17.5 -9.5t7.5 -20.5z
M332 -30q0 -28 -24 -28q-9 0 -18 9t-9 20t9 19t20 8q22 0 22 -28zM70 179q0 -11 -7.5 -19.5t-21.5 -8.5q-9 0 -18.5 9.5t-9.5 21.5t9 21t19 9q11 0 20 -9.5t9 -23.5zM207 0q0 -12 -6.5 -21.5t-18.5 -9.5q-11 0 -21.5 7.5t-10.5 18.5q0 13 6.5 23t18.5 10q6 0 19 -9.5
t13 -18.5zM116 71q0 -9 -5 -16q-9 -12 -23 -12q-26 0 -26 29q0 12 5.5 21t18.5 9q11 0 20.5 -9.5t9.5 -21.5zM335 349q0 39 -48 39q-31 0 -52.5 -21.5t-21.5 -58.5l2 -29l107 47q13 7 13 23z" />
    <glyph glyph-name="f" unicode="f" horiz-adv-x="313" 
d="M407 620q0 -35 -22.5 -62.5t-54.5 -27.5q-26 0 -43.5 18.5t-17.5 45.5q0 20 9 34.5t27 14.5q21 0 21 -23q0 -9 -8.5 -17t-22.5 -15q-5 -9 5 -23.5t29 -14.5q18 0 35.5 18.5t17.5 46.5q0 27 -20 48t-51 21q-28 0 -49 -20t-27 -52l-26 -165l107 14l3 -27l-114 -15l-38 -316
l6 -53l-20 -33v-18l-9 -9l2 -6l-9 -1l-5 -30q-9 -74 -64.5 -126.5t-126.5 -52.5q-45 0 -72 26t-27 72q0 40 25.5 67.5t69.5 27.5q18 0 31.5 -9.5t13.5 -25.5q0 -24 -26 -24l-44 13q-19 0 -32 -18t-13 -40q0 -25 18 -42t43 -17q36 0 67.5 46t43.5 126l60 428l-66 -11l7 28
l64 11l20 125q10 70 55 112t115 42q52 0 82.5 -23t30.5 -68z" />
    <glyph glyph-name="g" unicode="g" horiz-adv-x="502" 
d="M481 390l-119 -17q2 -9 4.5 -23t2.5 -22q0 -69 -46.5 -114.5t-122.5 -45.5q-12 0 -20 1t-13 3l-37 -56q29 6 45 8q55 9 77 9q83 0 130 -39.5t47 -120.5q0 -91 -67 -166q-72 -81 -168 -81q-61 0 -107 43t-46 98q0 69 43.5 118.5t105.5 49.5q41 0 71 -28t30 -74
q0 -41 -30 -75t-68 -34q-29 0 -52.5 22.5t-23.5 54.5q0 25 16 45t39 20q11 0 20 -8t9 -25q0 -20 -19 -28t-19 -21q0 -12 10.5 -21.5t27.5 -9.5q24 0 43.5 22t19.5 53q0 38 -18 61t-54 23q-50 0 -85 -37t-35 -96q0 -43 34 -82t82 -39q71 0 122.5 59t51.5 148q0 118 -144 118
q-38 0 -96 -19q-19 -6 -51 -20q-10 0 -20 11t-10 25t14.5 25l28.5 21q12 16 18 25q22 30 28 37q-79 47 -79 139q0 68 43 112t115 44q46 0 82.5 -18.5t61.5 -58.5l124 13zM282 366q0 64 -48 64q-37 0 -69.5 -41.5t-32.5 -92.5q0 -65 49 -65q38 0 69.5 40t31.5 95z" />
    <glyph glyph-name="h" unicode="h" horiz-adv-x="537" 
d="M531 -20q0 -24 -20 -45t-50 -21q-51 0 -87.5 40.5t-36.5 101.5q0 40 27.5 115.5t27.5 113.5q0 63 -79 63q-31 0 -52 -11.5t-54 -44.5l2 -198q0 -40 11.5 -53t52.5 -13l2 -28l-71 2l-109 -6q-10 1 -23 3t-21 7l1 19q33 6 47 19t14 41l-5 149l-6 48l9 24l-16 37q0 9 15 20
l-16 17l7 36l-3 20v100q-5 16 -9 24q-13 24 -30 24l-38 -2v23q12 -1 28 -1.5t36 -0.5q32 0 43.5 4t18.5 6q23 7 29 7q23 0 23 -21l5 -251q27 19 40 26q34 19 74 19q48 0 80.5 -31.5t32.5 -79.5q0 -43 -32 -123t-32 -110q0 -45 27.5 -77.5t68.5 -32.5q20 0 28.5 6.5
t14.5 28.5q-5 -1 -12.5 -2t-9.5 -1q-30 0 -30 31q0 30 36 30q18 0 29.5 -14.5t11.5 -37.5z" />
    <glyph glyph-name="i" unicode="i" horiz-adv-x="333" 
d="M244 572q0 -19 -13.5 -31.5t-37.5 -12.5q-18 0 -32.5 14.5t-14.5 35.5q0 20 14 32t36 12q18 0 33 -14t15 -36zM278 40q-11 -11 -30 -23q-25 -16 -39 -17l-23 23q-13 -4 -20 -7q-22 -10 -33 -25q-13 1 -20 2q-45 8 -45 28l8 36l39 299q2 20 -20 25.5t-67 5.5l2 27l51 -2
q27 0 64.5 8.5l77.5 17.5q26 0 26 -31l-30 -348l54 13z" />
    <glyph glyph-name="j" unicode="j" horiz-adv-x="339" 
d="M198 622q0 -19 -12 -28.5t-26 -9.5q-16 0 -29 10t-13 24q0 15 11.5 27.5t27.5 12.5q17 0 29 -11t12 -25zM284 510l-14 -66l-5 -396q0 -110 -48 -212q-55 -117 -136 -117q-50 0 -90.5 37.5t-40.5 84.5q0 40 19.5 69t48.5 29q32 0 56.5 -19.5t24.5 -47.5q0 -26 -9 -42
t-24 -16q-17 0 -29 12t-12 30q0 9 7 15t16 6q4 0 10 -2q0 13 -1 16q-4 15 -25 15q-24 0 -38.5 -16.5t-14.5 -45.5q0 -41 31 -73t75 -32q37 0 72.5 43.5t35.5 96.5q0 9 -7.5 23t-7.5 24l16 29v15q-13 10 -23 29l5 30l-12 24l6 24q-1 7 -1 10q-2 9 -7 15l5 24l-16 20l6 27
l-9 25q2 5 3 8l12 20l-7 9q-5 37 -8 57q-9 61 -17 72l6 11l-31 66l-67 -17q-6 1 -9 2q-9 3 -9 11q0 12 6 16t22 8l110 29l42 18q43 18 51 18q16 0 32 -16z" />
    <glyph glyph-name="k" unicode="k" horiz-adv-x="599" 
d="M764 -106q0 -57 -37 -102t-87 -45q-51 0 -86 48q-8 11 -53 84l-39 72l-84 145q-51 84 -75 106l-26 16l-11 -8l-6 -163l46 -6l-4 -30q-82 0 -139 -9t-121 -27l-18 2l-3 27l65 23l-2 17q11 18 18 60q2 13 5 38q10 3 19 9q2 1 6 5l19 107v6q-1 7 -6 9q1 14 3.5 23t10.5 15
q10 61 15 95q15 102 15 135q0 15 -1.5 24t-5.5 18h-19q-9 -3 -14 -4q-19 -5 -25 -5q-28 0 -28 22q0 5 5 10q1 0 3 1l71 1l130 14l8 -22l-36 -201q73 71 126 71q29 0 49.5 -15.5t20.5 -40.5q0 -26 -13 -47t-77 -92l195 -358q51 -97 65 -115.5t34 -18.5q27 0 49 32t22 71
q0 21 -10 33t-25 12q-12 0 -19 -14q-1 -2 -3 -7q4 -5 5 -8q6 -10 6 -14q0 -14 -21 -14q-34 0 -34 34q0 20 16 35t36 15q30 0 47.5 -18.5t17.5 -50.5zM439 413q0 13 -11 23t-26 10q-47 0 -86 -45q-44 -51 -44 -125l16.5 16t24.5 9l12 -8h28l49 50q37 37 37 70z" />
    <glyph glyph-name="l" unicode="l" horiz-adv-x="324" 
d="M303 178l-83 -138q-12 -19 -37.5 -34.5t-44.5 -15.5q-26 0 -48.5 29.5t-45.5 95.5q1 13 14 28q4 5 13 13v9q-1 11 -1 23q0 36 1 43.5t5 21.5l-9 44l16 31l-1 17l16 46q-10 21 -13 41l13 41l-13 27l9 15l5 31q20 16 27 51t7 90l-74 -11l1 26q20 13 81 29q20 5 57 13
q15 18 30 18q12 0 21.5 -5.5t9.5 -12.5q0 -14 -4 -31t-4 -18l-74 -590q-2 -17 3 -25.5t14 -8.5q17 0 51 58q11 19 32 59z" />
    <glyph glyph-name="m" unicode="m" horiz-adv-x="772" 
d="M468 545q0 -47 -49 -47q-18 0 -31.5 12.5t-13.5 35.5q0 15 14 29t33 14q17 0 32 -12.5t15 -31.5zM725 76q0 -43 -28.5 -77t-69.5 -34q-31 0 -52.5 21.5t-21.5 58.5q0 18 40 143t40 148q0 29 -15 48q-18 23 -52 23t-60.5 -57.5t-26.5 -121.5l-5 1q1 -7 1 -22q0 -36 -7 -85
q-1 -8 -4 -22l10 -52l-8 -22l-105 12q-1 6 -1 28q0 73 10 220q1 27 6 70q1 8 1 12q0 19 -7 32q-11 21 -37 21q-39 0 -79.5 -39.5t-36.5 -76.5l32 -226q3 -23 16 -23q3 0 13 4q2 -5 2 -8v-7q0 -30 -88 -48q-55 -11 -79 -28l-11 30q34 9 34 53q0 22 -18 63q-8 19 -7 23
q7 6 7 14q0 4 -2 9q-5 12 -5 16q0 5 2 8l-32 33q0 10 8.5 21.5t8.5 19.5q0 5 -12 8l-8 19l22 43q0 7 -13 20q6 15 6 27q0 18 -12 30t-24 12l-23 -2l-6 25q55 7 99 30l71 46q17 0 24 -22l2 -72l-6 -19q31 27 58 40t56 13q41 0 60 -27q14 -21 23 -72q62 93 144 93
q47 0 77.5 -31.5t30.5 -81.5q0 -32 -39 -147t-39 -140q0 -23 10 -37.5t37 -14.5q21 0 41.5 24.5t20.5 55.5q0 34 -26 34q-15 0 -17 -21t-13 -21q-18 0 -18 19q0 18 14 33t33 15q21 0 37.5 -17.5t16.5 -44.5z" />
    <glyph glyph-name="n" unicode="n" horiz-adv-x="624" 
d="M590 486q0 -7 -4 -13q-1 -2 -4 -4l-17 1q-14 0 -32 -13q-3 -2 -7 -6q-7 2 -10 3q-11 6 -11 16q0 15 16.5 24t43.5 9q25 0 25 -17zM473 569q-2 -6 -16 -24l-13 -16l-5 -21q-4 -6 -23 -15q-2 6 -3 13t-1 17t3 18l24 46q34 0 34 -18zM569 278l-1 -17q-19 0 -38.5 23.5
t-19.5 39.5q0 7 3 10q5 5 21 5zM576 104q-18 -7 -72 -33.5t-74 -39.5l-13 32q21 6 26.5 13.5t5.5 22.5q0 17 -7 42l-47 186q-6 22 -26 38t-49 16t-48.5 -9t-43.5 -36l8 -47l-10 -22l2 -91l-4 -14l2 -82q0 -38 61 -38l3 -42l-236 -4q-5 1 -8 1q-7 2 -16 7l-2 37q33 0 42 2
q25 5 25 36v76q-3 11 -4 17q-6 20 -13 30q-2 10 13 29q5 6 16 17l-8 56q-1 50 -1.5 85.5t-1.5 81.5q13 -6 23 -6h15l70 26q7 0 15.5 1t14.5 9q24 -6 27 -22l-25 -48l1 -39q46 43 76 57t72 14q98 0 98 -142l-3 -107q0 -96 38 -96q17 0 41 14z" />
    <glyph glyph-name="o" unicode="o" horiz-adv-x="494" 
d="M474 249q0 -96 -73 -175t-167 -79q-91 0 -152 57t-61 150q0 100 74 182t172 82q84 0 145.5 -62.5t61.5 -154.5zM443 263q0 59 -42 98t-108 39q-56 0 -97.5 -41.5t-41.5 -102.5q0 -47 27 -79.5t73 -32.5q47 0 77 29t30 78q0 31 -15 49q-18 22 -55 22q-19 0 -38.5 -15
t-19.5 -37q0 -15 13 -33t13 -26q0 -12 -15 -12t-27 17t-12 43q0 38 24 62t63 24t66.5 -25.5t27.5 -68.5q0 -54 -39 -93t-95 -39q-53 0 -88 39t-35 100q0 39 21 84l-8 4l-23 -51q-15 -38 -15 -72q0 -71 40 -116t110 -45q78 0 133.5 57.5t55.5 143.5z" />
    <glyph glyph-name="p" unicode="p" horiz-adv-x="466" 
d="M439 344q0 -65 -42 -115t-105 -50q-25 0 -46 8q-7 2 -17 9l-22 -114l4 -15l-11 -5l5 -19l-12 -26l6 -21l-9 -19l-12 -115q4 -15 6 -25q6 -30 6 -53q0 -12 -12 -18t-25 -6q-10 0 -28 10q-3 1 -8 5l-140 1l-115 -24q1 9 2 13q5 14 21 18l155 32l73 502q2 14 2 20
q0 34 -52 57v13q0 13 1.5 21.5t6.5 11.5q6 0 14 -0.5t21 -0.5q51 0 84 4t36 17q10 0 20.5 -1t14.5 -14l-3 -50q44 38 91 38q41 0 65.5 -23.5t24.5 -65.5zM395 335q0 28 -15 46t-42 18q-34 0 -63 -31t-29 -76q0 -28 13.5 -46t42.5 -18q39 0 66 31t27 76z" />
    <glyph glyph-name="q" unicode="q" horiz-adv-x="466" 
d="M431 503l-13.5 -105.5t-22 -188.5t-15.5 -148q0 -78 -2 -158t-5 -154q-13 3 -20 4q-23 4 -40 4q-30 0 -64 -5.5t-86 -17.5l-3 18q0 21 40.5 25t40.5 24q0 4 -3.5 19.5t-3.5 24.5q0 7 8 14q19 16 19 81q-4 2 -5 4q-6 7 -6 15q0 12 10 26q1 2 6 6q-19 13 -19 21l16 45
l-6 20l9 37q-5 -2 -9 -3q-28 -9 -56 -9q-74 0 -123.5 50.5t-49.5 130.5q0 77 56.5 140.5t127.5 63.5q13 0 53 -4t59 -4q23 0 67 12zM295 446q-82 0 -130 -37t-48 -105q0 -55 33 -86.5t115 -45.5q0 54 9 138t21 136z" />
    <glyph glyph-name="r" unicode="r" horiz-adv-x="444" 
d="M428 335q0 -33 -16.5 -61.5t-38.5 -28.5q-13 0 -21 10t-8 24q0 44 42 44q4 3 5 4q5 6 5 12q0 14 -21 27t-40 13q-38 0 -66.5 -40.5t-28.5 -98.5l2 -90t7 -69q23 -32 23 -51q0 -7 -7 -20q-49 0 -77.5 -4t-86.5 -25q-16 11 -20 30q48 12 48 33q0 15 -7 35q-16 47 -16 53
q0 11 4.5 24.5t5.5 17.5l-3 157q0 53 -17 63.5t-83 10.5l6 29q82 0 121 4q32 5 64 11q12 0 19.5 -10.5t7.5 -25.5l2 -63q60 65 121 65q30 0 52 -22t22 -58z" />
    <glyph glyph-name="s" unicode="s" horiz-adv-x="413" 
d="M368 367q0 -36 -21.5 -59.5t-53.5 -23.5q-30 0 -53.5 21t-23.5 56q0 25 14.5 42.5t37.5 17.5q12 0 23.5 -10.5t11.5 -24.5q0 -18 -23 -31t-23 -20q0 -24 38 -24q20 0 34.5 15t14.5 42q0 29 -19 51q-23 27 -62 27q-27 0 -51 -26.5t-24 -63.5q0 -38 65.5 -113.5
t65.5 -112.5q0 -51 -43 -88t-105 -37q-63 0 -103 32t-40 89q0 33 18 59t41 26q8 0 16.5 -7.5t8.5 -18.5q0 -21 -25 -30q-4 -1 -13 -4q-3 -3 -4 -6q-5 -11 -5 -25q0 -38 33 -61t79 -23q26 0 42 9.5t16 29.5q-58 74 -101 134q-48 66 -48 122q0 60 45 104t117 44q45 0 82.5 -32
t37.5 -80z" />
    <glyph glyph-name="t" unicode="t" horiz-adv-x="461" 
d="M420 190q0 -70 -59 -128t-135 -58q-67 0 -105 48q-42 53 -42 157l9 175h-67l2 32l78 1q29 43 38.5 77t9.5 109h12q9 0 20 -1t15 -4q2 -7 2 -19v-25q0 -44 -1 -78t-4 -65l178 4l2 -27l-183 -8q3 -84 4 -126q5 -127 9 -143h4l21 -63q3 -2 4 -2q5 -2 9 -2q39 0 85 41
q54 48 54 108q0 51 -32 51q-40 0 -40 -42q0 -11 8 -31q2 -7 9 -19q0 -7 -7.5 -11.5t-14.5 1.5q-8 13 -11 21q-12 27 -12 46q0 29 18 49t49 20q28 0 50.5 -25.5t22.5 -62.5z" />
    <glyph glyph-name="u" unicode="u" horiz-adv-x="530" 
d="M509 412l-50 -12l-28 -222q-9 -72 -68.5 -128.5t-127.5 -56.5q-107 0 -143 64.5t-36 252.5l1 90q-33 0 -37 13l6 21q8 -2 13 -2q34 -5 56 -5t39.5 2.5l31.5 4.5q18 0 23 -16q2 -6 2 -24l-7 -223q0 -54 11.5 -79t46.5 -25q82 0 82 111l-6 236q3 10 19.5 13.5t49.5 3.5h46
q22 0 33.5 2t37.5 9z" />
    <glyph glyph-name="v" unicode="v" horiz-adv-x="517" 
d="M510 424l-11 -25l-84 48q-13 -23 -67 -138q-59 -127 -67 -155l-48 -181q-2 -8 -9 -12.5t-20 -4.5q-20 0 -33 13t-11 32l7 66q-8 9 -11 14q-11 16 -13 28l4 24l-94 264q-15 22 -23.5 37.5t-8.5 29.5q0 20 20 20l133 4l6 -3q14 -11 14 -42q0 -20 17 -90.5t41 -149.5
l135 261l-59 39l15 25q20 -16 83 -55t84 -49z" />
    <glyph glyph-name="w" unicode="w" horiz-adv-x="717" 
d="M696 425q0 -15 -24 -15q-15 0 -22.5 1.5t-12.5 4.5l-164 -301l5 -27l-28 -47q-2 -8 -2 -18q0 -5 1 -16q-12 -14 -28 -14q-23 0 -30.5 15.5t-7.5 72.5q0 31 -8.5 85t-28.5 131q-41 -66 -86 -155q-40 -79 -40 -89q0 -12 -12 -35t-21 -26l-42 4l-117 411q22 5 34 7
q37 7 50 7q32 0 51 28q10 14 24 14q16 0 16 -21l2 -114l23 -129l15 -13l88 159q10 19 23 19q21 0 25 -26l19 -134l110 231l1 25q-4 3 -5 4q-5 5 -5 9q0 16 16 16q40 -21 148 -46q33 -8 33 -18z" />
    <glyph glyph-name="x" unicode="x" horiz-adv-x="460" 
d="M426 98q0 -13 -23 -32q-41 -34 -75 -73l-132 140l-122 -154l-26 30l121 152l-148 146l102 99l138 -139l117 148l26 -24l-115 -148q43 -38 65 -59q67 -65 72 -86z" />
    <glyph glyph-name="y" unicode="y" horiz-adv-x="522" 
d="M527 545q0 -10 -21 -47l-22 -36q-5 3 -7 4q-9 5 -11 5q-23 0 -66.5 -195t-43.5 -303q0 -30 4 -65q10 -87 10 -88q0 -31 -6 -41t-23 -10q-14 0 -79.5 24.5t-83.5 24.5q-27 0 -39.5 -24.5t-22.5 -46.5q-45 0 -45 24q0 14 11.5 29t29.5 20l128 36l33 304q-39 -45 -100 -45
q-134 0 -134 189q0 96 13 137q7 23 21 31h14q34 0 61.5 3t43.5 11l-1 -42l-19 -2q-14 -6 -25 -39t-11 -76q0 -65 25.5 -106t71.5 -41q15 0 31.5 15t17.5 30l20 218l-3 33l15 14l44 -8l106 18q12 2 20 16t8 35q0 14 -10.5 25.5t-22.5 11.5q-5 0 -13 -12q-2 -4 -7 -12
q6 -3 9 -5q9 -7 9 -14q0 -16 -19 -16q-14 0 -22.5 7t-8.5 25q0 22 17.5 38.5t43.5 16.5q21 0 40 -22t19 -49z" />
    <glyph glyph-name="z" unicode="z" horiz-adv-x="498" 
d="M449 317q-62 -91 -93 -126q-47 -53 -144 -137q122 -37 180 -75q36 -24 52 -53q0 -9 -18 -9q-85 54 -141.5 77t-114.5 23q-17 0 -63 -5q-16 -1 -47 -6q-4 1 -6 1q-5 2 -14 7l-19 33q129 79 185 129t93 119l-107 -7q-46 0 -71 -23t-25 -64q0 -5 -5 -13q-1 -2 -6 -7
q-27 10 -31 30q4 14 5 22q5 26 5 42q0 24 -15 44l13 23q20 -15 36 -20t51 -5q34 0 121 10t156 25q12 -2 17.5 -11t5.5 -24z" />
    <glyph glyph-name="braceleft" unicode="{" horiz-adv-x="406" 
d="M247 797q0 -9 -6 -13q-5 -3 -14 -3q-4 0 -9.5 6t-5.5 12q0 14 17 16q18 0 18 -18zM162 746q0 -16 -19 -16q-18 0 -18 20q0 15 19 15q18 0 18 -19zM125 628q0 -11 -8.5 -17t-16.5 -6q-21 0 -21 22q0 7 5.5 15t15.5 8q11 0 18 -5t7 -17zM103 503q0 -18 -17 -18
q-9 0 -15.5 5.5t-6.5 12.5q0 19 21 19q18 0 18 -19zM364 -51q-26 -14 -41 -20q-46 -21 -63 -21q-45 0 -78.5 35.5t-33.5 82.5l-14 233q0 34 -19.5 51.5t-86.5 51.5l1 13q45 16 69 28q45 22 54 74q3 12 5 21q14 60 19 109l12 111q31 0 63.5 6.5t83.5 25.5l3 -20l-57 -29
q-26 -13 -32 -23q-9 -14 -13 -54l-17 -150q-6 -55 -21 -77.5t-61 -39.5q43 -27 62.5 -58t19.5 -66l8 -207q0 -27 23 -49t57 -22q6 0 32 9l25 9v-24zM86 217q0 -14 -20 -14q-15 0 -15 17q0 7 5 12t13 5q17 0 17 -20zM95 87q0 -19 -19 -19q-22 0 -22 21q0 20 22 20
q19 0 19 -22zM113 -23q0 -18 -18 -18q-21 0 -21 23q0 15 19 15q20 0 20 -20zM206 -137q0 -18 -19 -18t-19 21q0 18 21 18q17 0 17 -21z" />
    <glyph glyph-name="bar" unicode="|" horiz-adv-x="188" 
d="M140 707l-9 -88v-76.5v-127.5v-74v-67v-58v-49v-24.5v-16.5v-34v-27v-22v-18v-14v-11q0 -37 -2 -43q-29 -6 -51 -6q-14 0 -20 19q-1 4 -2 83t-1 173v198v231.5v69.5l48 3q22 0 37 -21z" />
    <glyph glyph-name="braceright" unicode="}" horiz-adv-x="399" 
d="M276 750q0 -20 -18 -20q-20 0 -20 16q0 19 19 19t19 -15zM189 799q0 -6 -4 -12t-8 -6q-23 0 -23 16q0 18 18 18q17 0 17 -16zM318 626q0 -12 -4 -18.5t-15 -6.5q-21 0 -21 18q0 22 17 22q9 0 16 -5t7 -10zM337 487q0 -20 -20 -20q-18 0 -18 20q0 18 18 18q20 0 20 -18z
M351 255q0 -18 -17 -18q-18 0 -18 15q0 19 16 19q19 0 19 -16zM371 357l-78 -41q-39 -27 -39 -72l-1 -221q0 -55 -39.5 -85t-123.5 -30q-14 0 -33 8q-6 2 -16 8v24l29 -2q57 0 85 40.5t28 139.5l-2 133q0 26 29 55q17 17 55 43q-46 15 -61 37t-22 80l-22 185q-2 21 -23 33.5
t-73 28.5l2 19q83 0 115.5 -13.5t36.5 -44.5l22 -173q8 -63 34.5 -90.5t95.5 -48.5zM349 137q0 -21 -23 -21q-19 0 -19 19q0 23 20 23q6 0 14 -7t8 -14zM336 15q0 -8 -10 -17q-6 -5 -10 -5q-18 0 -18 17q0 9 5.5 14.5t12.5 5.5q20 0 20 -15zM272 -118q0 -19 -19 -19t-19 17
q0 20 17 20q21 0 21 -18zM158 -152q0 -16 -19 -16q-21 0 -21 22q0 17 22 17q18 0 18 -23z" />
    <glyph glyph-name="asciitilde" unicode="~" horiz-adv-x="429" 
d="M395 727q0 -31 -35.5 -65.5t-80.5 -34.5q-50 0 -99.5 52.5t-69.5 52.5q-30 0 -39 -41t-25 -41q-19 0 -19 25q0 35 23 61t59 26q34 0 90 -52t83 -52q36 0 58 27l37 61q18 0 18 -19z" />
    <glyph glyph-name="Adieresis" unicode="&#xc4;" horiz-adv-x="984" 
d="M980 18q-6 -1 -13.5 -1.5t-18.5 -0.5q-16 0 -27.5 1.5t-21.5 6.5q-33 -12 -119 -54q-46 -22 -146 -74l-72 -37l-7 35l85 49l-16 12l35 247l-3 30l9 11l18 155l-116 48l-263 -311q-45 -50 -76 -71q-40 -27 -82 -27q-53 0 -95 39t-42 93q0 44 26.5 73.5t70.5 29.5
q34 0 55 -22t21 -47q0 -26 -13 -45.5t-38 -19.5q-24 0 -41 9.5t-30 33.5q16 -9 30.5 -12.5t29.5 -3.5q13 0 23.5 10t10.5 32q0 19 -14.5 31.5t-39.5 12.5q-27 0 -46 -24.5t-19 -54.5q0 -38 26 -67.5t68 -29.5l37 21l35 -2l15 8q39 34 145 160l195.5 244.5t130.5 182.5l15 29
l24 2l67 -27q0 31 12 42t33 11q23 0 38.5 -12t15.5 -30q0 -23 -6.5 -39.5t-21.5 -16.5q-16 0 -20 1q-10 5 -15 7l-6 -132q-8 -165 -12 -264q-7 -167 -7 -194q-2 -9 -4 -15q-6 -17 -14 -34l9 -10q48 23 113 41l53 13zM705 640q-8 -5 -70 -88l-61 -83l111 -41q8 44 11 69
q12 81 12 115q0 19 -3 28zM946 814q0 -16 -13.5 -28.5t-36.5 -12.5q-17 0 -30.5 15.5t-13.5 40.5q0 13 16 27.5t35 14.5q18 0 30.5 -15.5t12.5 -41.5zM798 825q0 -26 -17.5 -42.5t-43.5 -16.5q-20 0 -37.5 15.5t-17.5 38.5q0 25 17 44t43 19q22 0 39 -16t17 -42z" />
    <glyph glyph-name="Aring" unicode="&#xc5;" horiz-adv-x="984" 
d="M980 18q-6 -1 -13.5 -1.5t-18.5 -0.5q-16 0 -27.5 1.5t-21.5 6.5q-33 -12 -119 -54q-46 -22 -146 -74l-72 -37l-7 35l85 49l-16 12l35 247l-3 30l9 11l18 155l-116 48l-263 -311q-45 -50 -76 -71q-40 -27 -82 -27q-53 0 -95 39t-42 93q0 44 26.5 73.5t70.5 29.5
q34 0 55 -22t21 -47q0 -26 -13 -45.5t-38 -19.5q-24 0 -41 9.5t-30 33.5q16 -9 30.5 -12.5t29.5 -3.5q13 0 23.5 10t10.5 32q0 19 -14.5 31.5t-39.5 12.5q-27 0 -46 -24.5t-19 -54.5q0 -38 26 -67.5t68 -29.5l37 21l35 -2l15 8q39 34 145 160l195.5 244.5t130.5 182.5l15 29
l24 2l67 -27q0 31 12 42t33 11q23 0 38.5 -12t15.5 -30q0 -23 -6.5 -39.5t-21.5 -16.5q-16 0 -20 1q-10 5 -15 7l-6 -132q-8 -165 -12 -264q-7 -167 -7 -194q-2 -9 -4 -15q-6 -17 -14 -34l9 -10q48 23 113 41l53 13zM705 640q-8 -5 -70 -88l-61 -83l111 -41q8 44 11 69
q12 81 12 115q0 19 -3 28zM858 830q0 -28 -19.5 -49.5t-50.5 -21.5q-30 0 -50.5 19.5t-20.5 51.5q0 29 19.5 49.5t51.5 20.5q28 0 49 -20t21 -50zM824 830q0 17 -9.5 27.5t-26.5 10.5q-15 0 -26.5 -11.5t-11.5 -26.5q0 -14 11 -26t27 -12q13 0 24.5 10.5t11.5 27.5z" />
    <glyph glyph-name="Ccedilla" unicode="&#xc7;" horiz-adv-x="727" 
d="M723 317q0 -26 -37 -65q-6 -6 -18 -17q-68 -96 -181 -167q-103 -65 -166 -65q38 -13 50.5 -30.5t12.5 -49.5q0 -36 -21.5 -60.5t-55.5 -24.5q-24 0 -41.5 13.5t-17.5 35.5q0 19 11.5 36t33.5 17q20 0 20 -23q0 -22 -34 -35q11 -18 29 -18q26 0 39 15t13 42q0 59 -72 59
v24q-111 0 -186 87.5t-75 220.5q0 144 109 259t244 115q56 0 91 -28t35 -77q0 -46 -38 -91q-41 -49 -91 -49q-38 0 -60 16t-22 44q0 42 30 68t73 26q7 0 12 -13t5 -27l-7 -7q-8 -7 -15 -8q-10 3 -16 3q-30 0 -39.5 -9.5t-9.5 -28.5q0 -15 11.5 -25.5t29.5 -10.5
q36 0 66.5 27.5t30.5 67.5q0 29 -21.5 49t-60.5 20q-73 0 -138 -101.5t-65 -205.5q0 -109 55 -179t147 -70q121 0 290 197l27 31q2 7 3 10q5 11 14 11q6 -7 6 -9z" />
    <glyph glyph-name="Eacute" unicode="&#xc9;" horiz-adv-x="683" 
d="M621 204q0 -25 -10.5 -41t-10.5 -37q0 -16 7 -41q1 -4 4 -11q4 -27 -19 -37q-15 0 -55 13q-6 2 -17 6l-203 -23l-67 -29l-42 -8l-62 8q-7 -17 -14.5 -23t-20.5 -6l-46 18l-3 19l74 36q-10 5 -16.5 16.5t-6.5 22.5l20 18q-9 13 -12 20t-3 24q9 3 15.5 10t6.5 16
q-5 8 -5 30q0 20 4 33l-14 13q7 18 7 49q0 68 -28.5 164t-42.5 106l6 35l-38 15l-10 16q0 9 16 28l26 -9l138 6l38 18l30 -10q40 1 61 2q64 5 88 21h52l6 5l13 -9l77 7q13 -12 24 -32q3 -6 12 -27q-5 -18 -19 -38.5t-30 -27.5q-17 -4 -42 9.5t-25 29.5l-4 50l-29 5l-211 -74
l-7 -12l13 -207l107 15l46 16l3 12l23 10l15 -6q17 -8 20 -17q-2 -17 -5 -22q-4 -7 -26 -22q-104 0 -142 -24t-38 -90q0 -61 42 -175l176 25l10 8l-3 12q-4 17 -4 23q0 26 14 56q4 9 14 24h118zM416 834q0 -19 -29 -36q-9 -5 -30 -13q-25 -17 -38 -25q-42 -26 -55 -26
q-21 0 -21 19q1 2 1 3q4 9 15 15.5t68 54.5q40 34 61 34q28 0 28 -26z" />
    <glyph glyph-name="Ntilde" unicode="&#xd1;" horiz-adv-x="836" 
d="M814 598q-3 -11 -11 -11q-6 0 -30 13.5t-31 13.5q-53 0 -65 -63l-105 -550l5 -54l-8 -11v-14.5t1 -21.5q0 -30 -2.5 -48t-10.5 -18l-28 2l-301 685l-12 -5q-16 -53 -25.5 -141t-15.5 -184l-4 -80q0 -36 18.5 -50.5t69.5 -14.5l3 -42l-24 -2l-12 1q-15 0 -28 -0.5
t-29 -0.5h-20h-20q-8 2 -11 2q-16 -3 -38 -6.5t-35 -3.5q-17 0 -28 9l-4 37q68 0 97.5 16t29.5 47l8 91q9 94 21 201t22 154l-46 28q-5 5 -5 22v12q0 2 1 5l50 14q12 -5 26 -9t23 -4q23 0 69 17q15 5 41 17q37 0 52 -34l170 -409l75 392q6 35 -39 74q-12 9 -17 14
q-18 17 -19 26q0 13 20 26q65 -47 106 -69q52 -29 99 -38q5 -4 8 -11q8 -15 9 -24zM540 830q0 -28 -31 -61q-37 -39 -85 -39q-40 0 -78 33q-83 72 -91 72q-34 0 -40 -41t-24 -41q-19 0 -19 25q0 35 24 61t58 26q39 0 91 -52t82 -52q36 0 58 27l37 61q18 0 18 -19z" />
    <glyph glyph-name="Odieresis" unicode="&#xd6;" horiz-adv-x="937" 
d="M610 776q0 -16 -13.5 -28.5t-36.5 -12.5q-17 0 -30.5 15.5t-13.5 40.5q0 13 16 27.5t35 14.5q18 0 30.5 -15.5t12.5 -41.5zM462 787q0 -26 -17.5 -42.5t-43.5 -16.5q-20 0 -37.5 15.5t-17.5 38.5q0 25 17 44t43 19q22 0 39 -16t17 -42zM760 642q0 -20 -34 -43
q-11 -7 -34 -19q-8 0 -16 24l43 45q5 4 15.5 6.5t22.5 4.5zM906 485q0 -7 -4 -15l-106 -40q-27 0 -27 22q0 17 19 24l93 21l5 1q19 0 20 -13zM882 236q0 -22 -45 -22q-49 0 -52 23q0 9 6.5 19t15.5 11q25 -5 37 -8q38 -11 38 -23zM267 603q0 -11 -11 -14q-16 0 -36 30
q-6 10 -16 30q0 6 1 9q1 5 7 16q55 -26 55 -71zM740 343q0 -117 -56 -206t-155 -121l-65 5l-56 -12q-83 0 -156 72q-76 75 -76 171q0 112 97 276l32 19q18 19 36 28q54 28 143 28q56 0 79.5 -8t48.5 -44l13 -2q55 -55 85 -107t30 -99zM770 -18q0 -11 -18 -11q-14 0 -29.5 25
t-15.5 57q0 26 19 26q14 0 26 -18l-3 -14zM158 524q0 -1 -11 -24t-11 -38l9 -35q0 -11 -2 -15q-4 -8 -17 -12q-6 0 -13 18t-7 42q0 56 26 83q26 0 26 -19zM602 -48l-19 -75l-20 3l-20 63q0 17 6 28t19 12q34 0 34 -31zM121 216q0 -10 -8 -16t-19 -6t-40 34t-33 55
q3 14 6.5 22t21.5 8q13 -22 60 -71q12 -13 12 -26zM205 48q0 -28 -63 -28q-58 0 -58 31q0 11 5.5 20.5t14.5 9.5q16 -10 24 -14q28 -15 38 -15l30 8q9 0 9 -12zM321 -57l-33 -81l-23 -5l-12 18q7 25 12 37q17 39 35 43q18 0 21 -12zM587 269q0 103 -58.5 187.5t-132.5 84.5
q-37 0 -64.5 -58t-27.5 -140q0 -104 56 -190.5t127 -86.5q39 0 69.5 59.5t30.5 143.5z" />
    <glyph glyph-name="Udieresis" unicode="&#xdc;" horiz-adv-x="510" 
d="M443 250q0 -100 -57.5 -179t-135.5 -79q-76 0 -129 63t-62 164l-11 119l-13 51l-2 105l-5 22l9 8l35 1q30 11 45 16q49 17 56 17q39 0 39 -30l-10 -225q0 -94 27 -160t74 -66q41 0 76 53.5t35 122.5q0 57 -34 129l-75 141q0 35 80 70l14 -16q-37 -19 -47 -26
q-18 -14 -18 -28q43 -71 74 -141q35 -77 35 -132zM341 771q0 -16 -13.5 -28.5t-36.5 -12.5q-17 0 -30.5 15.5t-13.5 40.5q0 13 16 27.5t35 14.5q18 0 30.5 -15.5t12.5 -41.5zM193 782q0 -26 -17.5 -42.5t-43.5 -16.5q-20 0 -37.5 15.5t-17.5 38.5q0 25 17 44t43 19
q22 0 39 -16t17 -42z" />
    <glyph glyph-name="aacute" unicode="&#xe1;" 
d="M428 57q0 -19 -22 -19q-5 0 -14 2q-3 0 -8 2l-13 -8l-119 -44l-25 -1l-12 13q-14 -4 -23 -5q-27 -5 -47 -5q-115 0 -115 89q0 37 25 68.5t77 49.5l85 31l-10 39l4 44q-15 47 -47 47q-17 0 -41.5 -28t-24.5 -52q0 -22 19 -22q12 0 14.5 9.5t2.5 33.5q0 10 18 10
q16 0 16 -20q0 -19 -17.5 -36.5t-36.5 -17.5q-16 0 -28.5 12.5t-12.5 32.5q0 41 47.5 82.5t97.5 41.5q64 0 86 -78l56 -241v-18q12 -2 18 -2q12 0 25 3.5t16 3.5q9 0 9 -17zM233 69l-15 128q-72 -19 -108 -48t-36 -66q0 -58 97 -58q41 0 53 10t9 34zM320 516q0 -16 -29 -16
q-6 2 -16 11q-3 2 -8 8l-21 11q-15 12 -27.5 20.5t-22.5 8.5l-11 -3q-57 -66 -85 -66q-7 0 -15 5q-2 1 -6 6l51 52q52 55 61 72l113 -96q6 -2 8 -3q8 -4 8 -10z" />
    <glyph glyph-name="agrave" unicode="&#xe0;" 
d="M428 57q0 -19 -22 -19q-5 0 -14 2q-3 0 -8 2l-13 -8l-119 -44l-25 -1l-12 13q-14 -4 -23 -5q-27 -5 -47 -5q-115 0 -115 89q0 37 25 68.5t77 49.5l85 31l-10 39l4 44q-15 47 -47 47q-17 0 -41.5 -28t-24.5 -52q0 -22 19 -22q12 0 14.5 9.5t2.5 33.5q0 10 18 10
q16 0 16 -20q0 -19 -17.5 -36.5t-36.5 -17.5q-16 0 -28.5 12.5t-12.5 32.5q0 41 47.5 82.5t97.5 41.5q64 0 86 -78l56 -241v-18q12 -2 18 -2q12 0 25 3.5t16 3.5q9 0 9 -17zM233 69l-15 128q-72 -19 -108 -48t-36 -66q0 -58 97 -58q41 0 53 10t9 34zM282 597q0 -19 -29 -36
q-9 -5 -30 -13q-25 -17 -38 -25q-42 -26 -55 -26q-21 0 -21 19q1 2 1 3q4 9 15 15.5t68 54.5q40 34 61 34q28 0 28 -26z" />
    <glyph glyph-name="acircumflex" unicode="&#xe2;" 
d="M428 57q0 -19 -22 -19q-5 0 -14 2q-3 0 -8 2l-13 -8l-119 -44l-25 -1l-12 13q-14 -4 -23 -5q-27 -5 -47 -5q-115 0 -115 89q0 37 25 68.5t77 49.5l85 31l-10 39l4 44q-15 47 -47 47q-17 0 -41.5 -28t-24.5 -52q0 -22 19 -22q12 0 14.5 9.5t2.5 33.5q0 10 18 10
q16 0 16 -20q0 -19 -17.5 -36.5t-36.5 -17.5q-16 0 -28.5 12.5t-12.5 32.5q0 41 47.5 82.5t97.5 41.5q64 0 86 -78l56 -241v-18q12 -2 18 -2q12 0 25 3.5t16 3.5q9 0 9 -17zM233 69l-15 128q-72 -19 -108 -48t-36 -66q0 -58 97 -58q41 0 53 10t9 34zM390 608q0 -28 -31 -61
q-37 -39 -85 -39q-40 0 -78 33q-83 72 -91 72q-34 0 -40 -41t-24 -41q-19 0 -19 25q0 35 24 61t58 26q39 0 91 -52t82 -52q36 0 58 27l37 61q18 0 18 -19z" />
    <glyph glyph-name="adieresis" unicode="&#xe4;" 
d="M428 57q0 -19 -22 -19q-5 0 -14 2q-3 0 -8 2l-13 -8l-119 -44l-25 -1l-12 13q-14 -4 -23 -5q-27 -5 -47 -5q-115 0 -115 89q0 37 25 68.5t77 49.5l85 31l-10 39l4 44q-15 47 -47 47q-17 0 -41.5 -28t-24.5 -52q0 -22 19 -22q12 0 14.5 9.5t2.5 33.5q0 10 18 10
q16 0 16 -20q0 -19 -17.5 -36.5t-36.5 -17.5q-16 0 -28.5 12.5t-12.5 32.5q0 41 47.5 82.5t97.5 41.5q64 0 86 -78l56 -241v-18q12 -2 18 -2q12 0 25 3.5t16 3.5q9 0 9 -17zM233 69l-15 128q-72 -19 -108 -48t-36 -66q0 -58 97 -58q41 0 53 10t9 34zM278 557
q0 -31 -22.5 -55.5t-56.5 -24.5q-33 0 -56.5 22.5t-23.5 57.5q0 33 22.5 56.5t57.5 23.5q32 0 55.5 -23.5t23.5 -56.5zM240 557q0 19 -11 31t-30 12q-17 0 -30 -12t-13 -31q0 -16 12 -29.5t31 -13.5q14 0 27.5 11.5t13.5 31.5z" />
    <glyph glyph-name="atilde" unicode="&#xe3;" 
d="M428 57q0 -19 -22 -19q-5 0 -14 2q-3 0 -8 2l-13 -8l-119 -44l-25 -1l-12 13q-14 -4 -23 -5q-27 -5 -47 -5q-115 0 -115 89q0 37 25 68.5t77 49.5l85 31l-10 39l4 44q-15 47 -47 47q-17 0 -41.5 -28t-24.5 -52q0 -22 19 -22q12 0 14.5 9.5t2.5 33.5q0 10 18 10
q16 0 16 -20q0 -19 -17.5 -36.5t-36.5 -17.5q-16 0 -28.5 12.5t-12.5 32.5q0 41 47.5 82.5t97.5 41.5q64 0 86 -78l56 -241v-18q12 -2 18 -2q12 0 25 3.5t16 3.5q9 0 9 -17zM233 69l-15 128q-72 -19 -108 -48t-36 -66q0 -58 97 -58q41 0 53 10t9 34zM325 566
q0 -16 -13.5 -28.5t-36.5 -12.5q-17 0 -30.5 15.5t-13.5 40.5q0 13 16 27.5t35 14.5q18 0 30.5 -15.5t12.5 -41.5zM177 577q0 -26 -17.5 -42.5t-43.5 -16.5q-20 0 -37.5 15.5t-17.5 38.5q0 25 17 44t43 19q22 0 39 -16t17 -42z" />
    <glyph glyph-name="aring" unicode="&#xe5;" horiz-adv-x="503" 
d="M367 541q1 -3 1 -6v-5q0 -18 -20 -18q-14 0 -40 16q-86 53 -99.5 58t-13.5 26q0 27 29 27q16 0 68 -41l61 -49zM483 425q0 -28 -21 -28q-28 0 -28 25q0 26 27 26q22 0 22 -23zM142 397q0 -17 -21 -17q-18 0 -18 20q0 21 21 21q6 0 12 -7t6 -17zM429 110
q-5 -27 -43.5 -48.5t-89.5 -21.5q-84 0 -139 51t-55 134q0 79 55.5 132.5t141.5 53.5q44 0 66.5 -14.5t48.5 -61.5l-192 -99q23 -83 50 -118.5t72 -35.5q34 0 46.5 24.5t20.5 24.5q18 0 18 -21zM78 308q0 -27 -30 -27q-8 0 -14.5 8.5t-6.5 21.5q0 9 8 18t18 9q11 0 18 -9
t7 -21zM332 -30q0 -16 -4.5 -22t-19.5 -6q-11 0 -19 8t-8 21t6 20t23 7q22 0 22 -28zM70 179q0 -11 -7.5 -19.5t-21.5 -8.5q-12 0 -20 10t-8 21q0 13 7.5 21.5t20.5 8.5q11 0 20 -9.5t9 -23.5zM207 0q0 -13 -6 -22t-19 -9q-14 0 -23 5.5t-9 20.5q0 11 6 22t19 11
q11 0 21.5 -10.5t10.5 -17.5zM116 71q0 -8 -5 -15q-9 -13 -23 -13q-26 0 -26 29q0 11 6.5 20.5t17.5 9.5q9 0 19.5 -8.5t10.5 -22.5zM335 349q0 39 -48 39q-32 0 -53 -20t-21 -60l2 -29l107 47q13 7 13 23z" />
    <glyph glyph-name="ccedilla" unicode="&#xe7;" horiz-adv-x="379" 
d="M344 316q0 -29 -19.5 -51t-51.5 -22q-26 0 -49 15q-20 17 -20 34q0 19 9 31t25 15q11 0 14 -14l-3 -15q-6 -38 28 -38q41 0 41 44q0 28 -22.5 47.5t-62.5 19.5q-47 0 -81 -43t-34 -108q0 -71 41 -123.5t103 -52.5q23 0 45 16t22 37q0 23 -26 26l-14 -2h-7q-7 1 -7 8
q0 27 21 27l44 -14l3 -17l-6 -84q-26 -16 -42 -24q-52 -27 -93 -35q26 -3 44.5 -25.5t18.5 -52.5q0 -34 -22 -60t-56 -26q-24 0 -41 13t-17 36q0 22 11 37t33 15q21 0 21 -23q0 -18 -35 -33q13 -20 29 -20q18 0 35 17t17 41q0 59 -72 59l1 25q-68 12 -108 64t-40 129
q0 94 59 156t149 62q50 0 82.5 -25.5t32.5 -65.5z" />
    <glyph glyph-name="eacute" unicode="&#xe9;" horiz-adv-x="503" 
d="M359 620q0 -19 -29 -36q-9 -5 -30 -13q-25 -17 -38 -25q-42 -26 -55 -26q-21 0 -21 19q1 2 1 3q4 9 15 15.5t68 54.5q40 34 61 34q28 0 28 -26zM483 425q0 -28 -21 -28q-28 0 -28 25q0 26 27 26q22 0 22 -23zM142 397q0 -17 -21 -17q-18 0 -18 20q0 21 21 21q6 0 12 -7
t6 -17zM429 110q-5 -27 -43.5 -48.5t-89.5 -21.5q-84 0 -139 51t-55 134q0 79 55.5 132.5t141.5 53.5q44 0 66.5 -14.5t48.5 -61.5l-192 -99q23 -83 50 -118.5t72 -35.5q34 0 46.5 24.5t20.5 24.5q18 0 18 -21zM78 308q0 -27 -30 -27q-8 0 -14.5 8.5t-6.5 21.5q0 9 8 18
t18 9q11 0 18 -9t7 -21zM332 -30q0 -16 -4.5 -22t-19.5 -6q-11 0 -19 8t-8 21t6 20t23 7q22 0 22 -28zM70 179q0 -11 -7.5 -19.5t-21.5 -8.5q-12 0 -20 10t-8 21q0 13 7.5 21.5t20.5 8.5q11 0 20 -9.5t9 -23.5zM207 0q0 -13 -6 -22t-19 -9q-14 0 -23 5.5t-9 20.5q0 11 6 22
t19 11q11 0 21.5 -10.5t10.5 -17.5zM116 71q0 -8 -5 -15q-9 -13 -23 -13q-26 0 -26 29q0 11 6.5 20.5t17.5 9.5q9 0 19.5 -8.5t10.5 -22.5zM335 349q0 39 -48 39q-32 0 -53 -20t-21 -60l2 -29l107 47q13 7 13 23z" />
    <glyph glyph-name="egrave" unicode="&#xe8;" 
d="M428 57q0 -19 -22 -19q-5 0 -14 2q-3 0 -8 2l-13 -8l-119 -44l-25 -1l-12 13q-14 -4 -23 -5q-27 -5 -47 -5q-115 0 -115 89q0 37 25 68.5t77 49.5l85 31l-10 39l4 44q-15 47 -47 47q-17 0 -41.5 -28t-24.5 -52q0 -22 19 -22q12 0 14.5 9.5t2.5 33.5q0 10 18 10
q16 0 16 -20q0 -19 -17.5 -36.5t-36.5 -17.5q-16 0 -28.5 12.5t-12.5 32.5q0 41 47.5 82.5t97.5 41.5q64 0 86 -78l56 -241v-18q12 -2 18 -2q12 0 25 3.5t16 3.5q9 0 9 -17zM233 69l-15 128q-72 -19 -108 -48t-36 -66q0 -58 97 -58q41 0 53 10t9 34zM278 557
q0 -31 -22.5 -55.5t-56.5 -24.5q-33 0 -56.5 22.5t-23.5 57.5q0 33 22.5 56.5t57.5 23.5q32 0 55.5 -23.5t23.5 -56.5zM240 557q0 19 -11 31t-30 12q-17 0 -30 -12t-13 -31q0 -16 12 -29.5t31 -13.5q14 0 27.5 11.5t13.5 31.5z" />
    <glyph glyph-name="ecircumflex" unicode="&#xea;" horiz-adv-x="503" 
d="M403 516q0 -16 -29 -16q-6 2 -16 11q-3 2 -8 8l-21 11q-15 12 -27.5 20.5t-22.5 8.5l-11 -3q-57 -66 -85 -66q-7 0 -15 5q-2 1 -6 6l51 52q52 55 61 72l113 -96q6 -2 8 -3q8 -4 8 -10zM483 425q0 -28 -21 -28q-28 0 -28 25q0 26 27 26q22 0 22 -23zM142 397
q0 -17 -21 -17q-18 0 -18 20q0 21 21 21q6 0 12 -7t6 -17zM429 110q-5 -27 -43.5 -48.5t-89.5 -21.5q-84 0 -139 51t-55 134q0 79 55.5 132.5t141.5 53.5q44 0 66.5 -14.5t48.5 -61.5l-192 -99q23 -83 50 -118.5t72 -35.5q34 0 46.5 24.5t20.5 24.5q18 0 18 -21zM78 308
q0 -27 -30 -27q-8 0 -14.5 8.5t-6.5 21.5q0 9 8 18t18 9q11 0 18 -9t7 -21zM332 -30q0 -16 -4.5 -22t-19.5 -6q-11 0 -19 8t-8 21t6 20t23 7q22 0 22 -28zM70 179q0 -11 -7.5 -19.5t-21.5 -8.5q-12 0 -20 10t-8 21q0 13 7.5 21.5t20.5 8.5q11 0 20 -9.5t9 -23.5zM207 0
q0 -13 -6 -22t-19 -9q-14 0 -23 5.5t-9 20.5q0 11 6 22t19 11q11 0 21.5 -10.5t10.5 -17.5zM116 71q0 -8 -5 -15q-9 -13 -23 -13q-26 0 -26 29q0 11 6.5 20.5t17.5 9.5q9 0 19.5 -8.5t10.5 -22.5zM335 349q0 39 -48 39q-32 0 -53 -20t-21 -60l2 -29l107 47q13 7 13 23z" />
    <glyph glyph-name="edieresis" unicode="&#xeb;" horiz-adv-x="503" 
d="M396 560q0 -16 -13.5 -28.5t-36.5 -12.5q-17 0 -30.5 15.5t-13.5 40.5q0 13 16 27.5t35 14.5q18 0 30.5 -15.5t12.5 -41.5zM248 571q0 -26 -17.5 -42.5t-43.5 -16.5q-20 0 -37.5 15.5t-17.5 38.5q0 25 17 44t43 19q22 0 39 -16t17 -42zM483 425q0 -28 -21 -28
q-28 0 -28 25q0 26 27 26q22 0 22 -23zM142 397q0 -17 -21 -17q-18 0 -18 20q0 21 21 21q6 0 12 -7t6 -17zM429 110q-5 -27 -43.5 -48.5t-89.5 -21.5q-84 0 -139 51t-55 134q0 79 55.5 132.5t141.5 53.5q44 0 66.5 -14.5t48.5 -61.5l-192 -99q23 -83 50 -118.5t72 -35.5
q34 0 46.5 24.5t20.5 24.5q18 0 18 -21zM78 308q0 -27 -30 -27q-8 0 -14.5 8.5t-6.5 21.5q0 9 8 18t18 9q11 0 18 -9t7 -21zM332 -30q0 -16 -4.5 -22t-19.5 -6q-11 0 -19 8t-8 21t6 20t23 7q22 0 22 -28zM70 179q0 -11 -7.5 -19.5t-21.5 -8.5q-12 0 -20 10t-8 21
q0 13 7.5 21.5t20.5 8.5q11 0 20 -9.5t9 -23.5zM207 0q0 -13 -6 -22t-19 -9q-14 0 -23 5.5t-9 20.5q0 11 6 22t19 11q11 0 21.5 -10.5t10.5 -17.5zM116 71q0 -8 -5 -15q-9 -13 -23 -13q-26 0 -26 29q0 11 6.5 20.5t17.5 9.5q9 0 19.5 -8.5t10.5 -22.5zM335 349q0 39 -48 39
q-32 0 -53 -20t-21 -60l2 -29l107 47q13 7 13 23z" />
    <glyph glyph-name="iacute" unicode="&#xed;" horiz-adv-x="337" 
d="M268 603q0 -19 -29 -36q-9 -5 -30 -13q-25 -17 -38 -25q-42 -26 -55 -26q-21 0 -21 19q1 2 1 3q4 9 15 15.5t68 54.5q40 34 61 34q28 0 28 -26zM279 40q-43 -37 -69 -40l-23 23q-25 -8 -34.5 -13.5t-18.5 -18.5q-23 3 -34 6q-33 9 -31 24l8 36l37 304q0 15 -6.5 20
t-37.5 5l-41 1l2 27l51 -2q15 0 80 13q21 4 62 13q13 0 21 -10.5t5 -25.5l-30 -343l54 13z" />
    <glyph glyph-name="igrave" unicode="&#xec;" horiz-adv-x="337" 
d="M248 516q1 -3 1 -6v-5q0 -18 -20 -18q-14 0 -40 16q-86 53 -99.5 58t-13.5 26q0 27 29 27q16 0 68 -41l61 -49zM282 40q-43 -37 -69 -40l-23 23q-25 -8 -34.5 -13.5t-18.5 -18.5q-23 3 -34 6q-33 9 -31 24l8 36l37 304q0 15 -6.5 20t-37.5 5l-41 1l2 27l51 -2q15 0 80 13
q21 4 62 13q13 0 21 -10.5t5 -25.5l-30 -343l54 13z" />
    <glyph glyph-name="icircumflex" unicode="&#xee;" horiz-adv-x="337" 
d="M276 526q0 -13 -24 -13q-5 2 -13 9l-7 7l-17 9q-21 17 -27.5 21t-13.5 3l-9 -2q-21 -25 -41.5 -40.5t-29.5 -15.5q-6 0 -12 4q-2 1 -5 5l42 44q44 47 50 60l94 -80q4 -1 6 -2q7 -4 7 -9zM280 40q-43 -37 -69 -40l-23 23q-25 -8 -34.5 -13.5t-18.5 -18.5q-23 3 -34 6
q-33 9 -31 24l8 36l37 304q0 15 -6.5 20t-37.5 5l-41 1l2 27l51 -2q15 0 80 13q21 4 62 13q13 0 21 -10.5t5 -25.5l-30 -343l54 13z" />
    <glyph glyph-name="idieresis" unicode="&#xef;" horiz-adv-x="337" 
d="M315 556q0 -16 -13.5 -28.5t-36.5 -12.5q-17 0 -30.5 15.5t-13.5 40.5q0 13 16 27.5t35 14.5q18 0 30.5 -15.5t12.5 -41.5zM167 567q0 -26 -17.5 -42.5t-43.5 -16.5q-20 0 -37.5 15.5t-17.5 38.5q0 25 17 44t43 19q22 0 39 -16t17 -42zM279 40q-43 -37 -69 -40l-23 23
q-25 -8 -34.5 -13.5t-18.5 -18.5q-23 3 -34 6q-33 9 -31 24l8 36l37 304q0 15 -6.5 20t-37.5 5l-41 1l2 27l51 -2q15 0 80 13q21 4 62 13q13 0 21 -10.5t5 -25.5l-30 -343l54 13z" />
    <glyph glyph-name="ntilde" unicode="&#xf1;" horiz-adv-x="630" 
d="M590 486q0 -7 -4 -13q-1 -2 -4 -4l-17 1q-14 0 -32 -13q-3 -2 -7 -6q-7 2 -10 3q-11 6 -11 16q0 15 16.5 24t43.5 9q25 0 25 -17zM473 569q-2 -6 -16 -24l-13 -16l-5 -21q-4 -6 -23 -15q-2 6 -3 13t-1 17t3 18l24 46q34 0 34 -18zM569 278l-1 -17q-19 0 -38.5 23.5
t-19.5 39.5q0 7 3 10q5 5 21 5zM576 104q-18 -7 -72 -33.5t-74 -39.5l-13 32q21 6 26.5 13.5t5.5 22.5q0 17 -7 42l-47 186q-6 22 -26 38t-49 16t-48.5 -9t-43.5 -36l8 -47l-10 -22l2 -91l-4 -14l2 -82q0 -38 61 -38l3 -42l-236 -4q-5 1 -8 1q-7 2 -16 7l-2 37q33 0 42 2
q25 5 25 36v76q-3 11 -4 17q-6 20 -13 30q-2 10 13 29q5 6 16 17l-8 56q-1 50 -1.5 85.5t-1.5 81.5q13 -6 23 -6h15l70 26q7 0 15.5 1t14.5 9q24 -6 27 -22l-25 -48l1 -39q46 43 76 57t72 14q98 0 98 -142l-3 -107q0 -96 38 -96q17 0 41 14zM389 612q0 -28 -31 -61
q-37 -39 -85 -39q-40 0 -78 33q-83 72 -91 72q-34 0 -40 -41t-24 -41q-19 0 -19 25q0 35 24 61t58 26q39 0 91 -52t82 -52q36 0 58 27l37 61q18 0 18 -19z" />
    <glyph glyph-name="oacute" unicode="&#xf3;" horiz-adv-x="500" 
d="M474 249q0 -96 -73 -175t-167 -79q-91 0 -152 57t-61 150q0 100 74 182t172 82q84 0 145.5 -62.5t61.5 -154.5zM443 263q0 59 -42 98t-108 39q-56 0 -97.5 -41.5t-41.5 -102.5q0 -47 27 -79.5t73 -32.5q47 0 77 29t30 78q0 31 -15 49q-18 22 -55 22q-19 0 -38.5 -15
t-19.5 -37q0 -15 13 -33t13 -26q0 -12 -15 -12t-27 17t-12 43q0 38 24 62t63 24t66.5 -25.5t27.5 -68.5q0 -54 -39 -93t-95 -39q-53 0 -88 39t-35 100q0 39 21 84l-8 4l-23 -51q-15 -38 -15 -72q0 -71 40 -116t110 -45q78 0 133.5 57.5t55.5 143.5zM351 609q0 -19 -29 -36
q-9 -5 -30 -13q-25 -17 -38 -25q-42 -26 -55 -26q-21 0 -21 19q1 2 1 3q4 9 15 15.5t68 54.5q40 34 61 34q28 0 28 -26z" />
    <glyph glyph-name="ograve" unicode="&#xf2;" horiz-adv-x="500" 
d="M474 249q0 -96 -73 -175t-167 -79q-91 0 -152 57t-61 150q0 100 74 182t172 82q84 0 145.5 -62.5t61.5 -154.5zM443 263q0 59 -42 98t-108 39q-56 0 -97.5 -41.5t-41.5 -102.5q0 -47 27 -79.5t73 -32.5q47 0 77 29t30 78q0 31 -15 49q-18 22 -55 22q-19 0 -38.5 -15
t-19.5 -37q0 -15 13 -33t13 -26q0 -12 -15 -12t-27 17t-12 43q0 38 24 62t63 24t66.5 -25.5t27.5 -68.5q0 -54 -39 -93t-95 -39q-53 0 -88 39t-35 100q0 39 21 84l-8 4l-23 -51q-15 -38 -15 -72q0 -71 40 -116t110 -45q78 0 133.5 57.5t55.5 143.5zM354 543q1 -3 1 -6v-5
q0 -18 -20 -18q-14 0 -40 16q-86 53 -99.5 58t-13.5 26q0 27 29 27q16 0 68 -41l61 -49z" />
    <glyph glyph-name="ocircumflex" unicode="&#xf4;" horiz-adv-x="500" 
d="M474 249q0 -96 -73 -175t-167 -79q-91 0 -152 57t-61 150q0 100 74 182t172 82q84 0 145.5 -62.5t61.5 -154.5zM443 263q0 59 -42 98t-108 39q-56 0 -97.5 -41.5t-41.5 -102.5q0 -47 27 -79.5t73 -32.5q47 0 77 29t30 78q0 31 -15 49q-18 22 -55 22q-19 0 -38.5 -15
t-19.5 -37q0 -15 13 -33t13 -26q0 -12 -15 -12t-27 17t-12 43q0 38 24 62t63 24t66.5 -25.5t27.5 -68.5q0 -54 -39 -93t-95 -39q-53 0 -88 39t-35 100q0 39 21 84l-8 4l-23 -51q-15 -38 -15 -72q0 -71 40 -116t110 -45q78 0 133.5 57.5t55.5 143.5zM401 517q0 -16 -29 -16
q-6 2 -16 11q-3 2 -8 8l-21 11q-15 12 -27.5 20.5t-22.5 8.5l-11 -3q-57 -66 -85 -66q-7 0 -15 5q-2 1 -6 6l51 52q52 55 61 72l113 -96q6 -2 8 -3q8 -4 8 -10z" />
    <glyph glyph-name="odieresis" unicode="&#xf6;" horiz-adv-x="500" 
d="M474 249q0 -96 -73 -175t-167 -79q-91 0 -152 57t-61 150q0 100 74 182t172 82q84 0 145.5 -62.5t61.5 -154.5zM443 263q0 59 -42 98t-108 39q-56 0 -97.5 -41.5t-41.5 -102.5q0 -47 27 -79.5t73 -32.5q47 0 77 29t30 78q0 31 -15 49q-18 22 -55 22q-19 0 -38.5 -15
t-19.5 -37q0 -15 13 -33t13 -26q0 -12 -15 -12t-27 17t-12 43q0 38 24 62t63 24t66.5 -25.5t27.5 -68.5q0 -54 -39 -93t-95 -39q-53 0 -88 39t-35 100q0 39 21 84l-8 4l-23 -51q-15 -38 -15 -72q0 -71 40 -116t110 -45q78 0 133.5 57.5t55.5 143.5zM410 556
q0 -16 -13.5 -28.5t-36.5 -12.5q-17 0 -30.5 15.5t-13.5 40.5q0 13 16 27.5t35 14.5q18 0 30.5 -15.5t12.5 -41.5zM262 567q0 -26 -17.5 -42.5t-43.5 -16.5q-20 0 -37.5 15.5t-17.5 38.5q0 25 17 44t43 19q22 0 39 -16t17 -42z" />
    <glyph glyph-name="otilde" unicode="&#xf5;" horiz-adv-x="500" 
d="M474 249q0 -96 -73 -175t-167 -79q-91 0 -152 57t-61 150q0 100 74 182t172 82q84 0 145.5 -62.5t61.5 -154.5zM443 263q0 59 -42 98t-108 39q-56 0 -97.5 -41.5t-41.5 -102.5q0 -47 27 -79.5t73 -32.5q47 0 77 29t30 78q0 31 -15 49q-18 22 -55 22q-19 0 -38.5 -15
t-19.5 -37q0 -15 13 -33t13 -26q0 -12 -15 -12t-27 17t-12 43q0 38 24 62t63 24t66.5 -25.5t27.5 -68.5q0 -54 -39 -93t-95 -39q-53 0 -88 39t-35 100q0 39 21 84l-8 4l-23 -51q-15 -38 -15 -72q0 -71 40 -116t110 -45q78 0 133.5 57.5t55.5 143.5zM457 599q0 -28 -31 -61
q-37 -39 -85 -39q-40 0 -78 33q-83 72 -91 72q-34 0 -40 -41t-24 -41q-19 0 -19 25q0 35 24 61t58 26q39 0 91 -52t82 -52q36 0 58 27l37 61q18 0 18 -19z" />
    <glyph glyph-name="uacute" unicode="&#xfa;" horiz-adv-x="535" 
d="M509 412l-50 -12l-28 -222q-9 -72 -68.5 -128.5t-127.5 -56.5q-107 0 -143 64.5t-36 252.5l1 90q-33 0 -37 13l6 21q8 -2 13 -2q34 -5 56 -5t39.5 2.5l31.5 4.5q18 0 23 -16q2 -6 2 -24l-7 -223q0 -54 11.5 -79t46.5 -25q82 0 82 111l-6 236q3 10 19.5 13.5t49.5 3.5h46
q22 0 33.5 2t37.5 9zM379 606q0 -19 -29 -36q-9 -5 -30 -13q-25 -17 -38 -25q-42 -26 -55 -26q-21 0 -21 19q1 2 1 3q4 9 15 15.5t68 54.5q40 34 61 34q28 0 28 -26z" />
    <glyph glyph-name="ugrave" unicode="&#xf9;" horiz-adv-x="535" 
d="M509 412l-50 -12l-28 -222q-9 -72 -68.5 -128.5t-127.5 -56.5q-107 0 -143 64.5t-36 252.5l1 90q-33 0 -37 13l6 21q8 -2 13 -2q34 -5 56 -5t39.5 2.5l31.5 4.5q18 0 23 -16q2 -6 2 -24l-7 -223q0 -54 11.5 -79t46.5 -25q82 0 82 111l-6 236q3 10 19.5 13.5t49.5 3.5h46
q22 0 33.5 2t37.5 9zM349 533q1 -3 1 -6v-5q0 -18 -20 -18q-14 0 -40 16q-86 53 -99.5 58t-13.5 26q0 27 29 27q16 0 68 -41l61 -49z" />
    <glyph glyph-name="ucircumflex" unicode="&#xfb;" horiz-adv-x="535" 
d="M509 412l-50 -12l-28 -222q-9 -72 -68.5 -128.5t-127.5 -56.5q-107 0 -143 64.5t-36 252.5l1 90q-33 0 -37 13l6 21q8 -2 13 -2q34 -5 56 -5t39.5 2.5l31.5 4.5q18 0 23 -16q2 -6 2 -24l-7 -223q0 -54 11.5 -79t46.5 -25q82 0 82 111l-6 236q3 10 19.5 13.5t49.5 3.5h46
q22 0 33.5 2t37.5 9zM397 517q0 -16 -29 -16q-6 2 -16 11q-3 2 -8 8l-21 11q-15 12 -27.5 20.5t-22.5 8.5l-11 -3q-57 -66 -85 -66q-7 0 -15 5q-2 1 -6 6l51 52q52 55 61 72l113 -96q6 -2 8 -3q8 -4 8 -10z" />
    <glyph glyph-name="udieresis" unicode="&#xfc;" horiz-adv-x="535" 
d="M509 412l-50 -12l-28 -222q-9 -72 -68.5 -128.5t-127.5 -56.5q-107 0 -143 64.5t-36 252.5l1 90q-33 0 -37 13l6 21q8 -2 13 -2q34 -5 56 -5t39.5 2.5l31.5 4.5q18 0 23 -16q2 -6 2 -24l-7 -223q0 -54 11.5 -79t46.5 -25q82 0 82 111l-6 236q3 10 19.5 13.5t49.5 3.5h46
q22 0 33.5 2t37.5 9zM403 563q0 -16 -13.5 -28.5t-36.5 -12.5q-17 0 -30.5 15.5t-13.5 40.5q0 13 16 27.5t35 14.5q18 0 30.5 -15.5t12.5 -41.5zM255 574q0 -26 -17.5 -42.5t-43.5 -16.5q-20 0 -37.5 15.5t-17.5 38.5q0 25 17 44t43 19q22 0 39 -16t17 -42z" />
    <glyph glyph-name="dagger" unicode="&#x2020;" horiz-adv-x="449" 
d="M408 525l-104 -15l-16 -265l37 -441q0 -23 -1.5 -36t-13.5 -13q-11 0 -18.5 6.5t-7.5 16.5t1 20.5t3 19.5l-22 194l-22 110q-22 109 -47 221t-35 142l-120 -24l-14 39l164 42q0 35 -13 101q-7 36 -7 53q0 13 4.5 23.5t14.5 10.5q14 0 22.5 -13.5t8.5 -30.5
q0 -15 -0.5 -31t-0.5 -32q0 -32 3.5 -54.5t13.5 -33.5l164 22z" />
    <glyph glyph-name="degree" unicode="&#xb0;" horiz-adv-x="237" 
d="M209 567q0 -32 -26.5 -61.5t-64.5 -29.5t-64 27t-26 64t25 64t65 27q38 0 64.5 -24.5t26.5 -66.5zM177 567q0 25 -16.5 42.5t-42.5 17.5q-24 0 -41 -19t-17 -41q0 -26 13 -42.5t45 -16.5q25 0 42 15t17 44z" />
    <glyph glyph-name="cent" unicode="&#xa2;" horiz-adv-x="376" 
d="M355 87q-28 -66 -103 -88l21 -131l-53 -15l-20 140q-78 0 -127 54q-52 57 -52 149q0 82 46 138t129 73l10 121l46 9l-8 -129q43 0 73 -26t30 -65q0 -32 -20 -54t-53 -22q-26 0 -47.5 15.5t-21.5 36.5q0 17 10 31t23 14q14 0 14 -14q0 -9 -1 -14t-2 -9q0 -32 29 -32
q18 0 30 13t12 34q0 27 -23 47t-59 20q-51 0 -84.5 -42t-33.5 -110t41.5 -122.5t97.5 -54.5q43 0 71 52z" />
    <glyph glyph-name="sterling" unicode="&#xa3;" horiz-adv-x="587" 
d="M551 132q0 -52 -48 -97t-111 -45q-36 0 -86.5 19t-118.5 60q-15 -38 -32.5 -53.5t-47.5 -15.5q-33 0 -57 21t-24 53q0 36 18 57t49 21q34 0 78 -30l37 127l-125 -26l-2 80l143 27l41 144q9 36 39 58t76 22q40 0 75 -23t35 -49q0 -25 -16 -25q-20 0 -37 33t-57 33
q-42 0 -60 -22q-23 -28 -48 -125l-11 -43l140 26l17 -70l-175 -34l-42 -152q126 -76 196 -76q46 0 86 32t40 70q0 49 -37 49q-34 0 -31 -29q28 -3 28 -24q0 -13 -7.5 -21t-24.5 -8q-34 0 -34 46q0 24 18.5 42.5t48.5 18.5q29 0 48 -18t19 -53zM161 88q-12 9 -19 13
q-24 14 -39 14q-16 0 -28 -10t-12 -26q0 -17 12 -29t28 -12q28 0 46 25q5 8 12 25z" />
    <glyph glyph-name="section" unicode="&#xa7;" horiz-adv-x="559" 
d="M497 604q0 -46 -34.5 -81.5t-83.5 -35.5q-40 0 -68 26t-28 66q0 32 18.5 52.5t49.5 20.5q19 0 35 -11t16 -27q0 -27 -23 -27q-9 0 -29 8q-6 2 -19 8q-4 -4 -5 -6q-5 -7 -5 -13q0 -28 15.5 -47.5t40.5 -19.5q38 0 65.5 24.5t27.5 66.5q0 46 -34.5 79.5t-85.5 33.5
q-57 0 -90.5 -32.5t-33.5 -91.5q0 -33 5 -60q0 -5 3 -11l29 -16q16 -7 32 -27q5 -7 14 -21l68 -24l12 -26q20 -12 35 -23q57 -42 57 -121q0 -73 -33.5 -138.5t-95.5 -106.5q24 -35 24 -87q0 -113 -77.5 -200.5t-179.5 -87.5q-81 0 -141 59t-60 143q0 55 41.5 93.5
t105.5 38.5q43 0 73 -29t30 -75q0 -41 -22 -69t-53 -28q-30 0 -54.5 18.5t-24.5 46.5q0 33 28 33q11 0 20.5 -31.5t30.5 -31.5t35 13t14 31q0 38 -26 68t-66 30t-69 -30t-29 -70q0 -66 46.5 -115.5t113.5 -49.5q56 0 96.5 44t40.5 110q0 53 -45 105q-15 17 -45 41
q-60 19 -96 67q-39 51 -39 123q0 109 75 175q25 22 76 44q-16 14 -29.5 52t-13.5 71q0 90 62.5 155.5t148.5 65.5q64 0 109 -40.5t45 -101.5zM355 180q0 60 -73 130q-24 23 -83 72q-32 -10 -53 -36q-26 -32 -26 -82q0 -24 3 -48q0 -5 3 -14q3 4 14.5 7t17.5 0l15 -41
q17 -19 29 -28q37 -30 69 -34l8 -21q4 -5 7 -7q7 -6 20 -16q24 23 36.5 52t12.5 66z" />
    <glyph glyph-name="bullet" unicode="&#x2022;" horiz-adv-x="276" 
d="M241 386l-10 -3l-15 2q1 -5 1 -15q0 -24 -17 -47l23 -18q0 -3 -5 -6l-27 13q-16 -19 -49 -25l4 -24q-5 -6 -9 -8l-4 7v9q-1 11 -4 15q-29 3 -48 21l-8 -5v-6q-9 -6 -13 6l12 13q-17 20 -23 49l-19 -2q-8 2 -8 6l5 4l22 2q0 16 2.5 25t11.5 23l-27 11l3 6q7 -1 21 -5
q2 0 7 -2q12 12 24.5 20.5t28.5 13.5l-1 17l2 7l6 -5l3 -19l20 -1l27 -12l10 11l9 4l5 -3l-14 -18q25 -16 29 -52q19 0 23 -4z" />
    <glyph glyph-name="paragraph" unicode="&#xb6;" horiz-adv-x="474" 
d="M446 561q0 -26 -68 -47q0 -41 -4.5 -115t-4.5 -90q0 -144 20 -271q6 -42 21 -100q0 -16 -21 -24q-12 0 -18 16q-2 5 -4 16q-12 74 -21 196.5t-9 172.5l7 191l-52 -10l-8 -204q0 -34 6 -140q2 -37 7 -107q-22 -39 -35 -44l-81 -5l2 312q-149 20 -149 154q0 68 33 111
t93 43q35 0 70 -21q81 -48 127 -48q25 0 50 14q8 4 21 15q18 0 18 -15zM191 546q0 20 -25 20q-83 0 -83 -103q0 -88 97 -107l-5 36z" />
    <glyph glyph-name="germandbls" unicode="&#xdf;" horiz-adv-x="535" 
d="M489 165q0 -69 -40.5 -117.5t-99.5 -48.5q-35 0 -54.5 23.5t-19.5 69.5q0 34 21 59t55 25q44 0 44 -42q0 -24 -23 -24q-8 -2 -19.5 9.5t-18.5 10.5q-18 -3 -18 -24q0 -63 58 -63q31 0 50.5 33.5t19.5 86.5q0 34 -5.5 44t-18.5 12l-95 15q-17 2 -27 20.5t-10 59.5
q0 45 22 67t89 39q4 12 7.5 25t3.5 22q0 31 -15 57t-36 26q-37 0 -72 -96q-39 -106 -39 -234l-1 -85l-7 -176l14 -9l-7 -14q0 -10 -1 -14q-6 -15 -27 -15q-7 0 -11 1q-10 28 -75 32t-126 6l1 23h31q29 0 39 2q29 6 29 35l25 376q0 29 -14 37.5t-40 8.5l7 35l58 -9
q28 81 66 114t103 33q54 0 94.5 -43.5t40.5 -96.5q0 -17 -3 -38t-10 -50q-40 -4 -64 -26t-24 -47q0 -29 31 -38l81 -27q13 -3 22 -21.5t9 -48.5z" />
    <glyph glyph-name="registered" unicode="&#xae;" horiz-adv-x="804" 
d="M750 226q0 -41 -35 -84t-74 -43q-52 0 -91 57l-74 113q-13 21 -23 28q-14 10 -36 10q-11 0 -18 -1q0 -34 3 -66.5t7 -65.5q0 -7 -10 -9q-6 -1 -42.5 9.5t-42.5 10.5q-28 0 -46 -9q-5 -3 -12 -9q-12 3 -18.5 12.5t-7.5 21.5q13 5 19 9q21 14 23 37l23 203q1 4 1 13
q0 13 -5 21q-8 12 -26 19l26 34q9 -6 15 -9q19 -10 30 -10q26 0 75 6t66 6q37 0 61.5 -22.5t24.5 -62.5q0 -47 -27 -62l-55 -34l7 -42l82 -123q26 -39 81 -39q31 0 49 24t18 66q0 33 -15 55t-36 22q-6 0 -12.5 -5.5t-6.5 -9.5q0 -10 16 -13q2 0 9 -1q0 -57 -38 -57
q-47 0 -47 38q0 32 18.5 51.5t51.5 19.5q40 0 66 -29t26 -80zM749 456l-121 -6q-25 103 -60 136.5t-114 33.5q0 -33 -12 -33q-11 0 -29 34q-254 -57 -254 -299q0 -116 91 -200t216 -84q33 0 46.5 6t25.5 31l8 -7l10 -39l40 -43q0 -10 -1 -14q-4 -14 -18 -14q-15 0 -19 2
l-31 55q-14 -5 -22 -7q-27 -7 -51 -7q-26 0 -52 5q-4 0 -12 3l-31 -107l-42 13l27 106q-107 39 -162 124l-82 -59l-37 33l90 68q-13 28 -23 66q-13 50 -13 95l-62 10l6 46l63 -7q11 51 26 79l43 64l-49 41l27 36l52 -47q72 72 190 86l8 88l43 -2l-8 -88q77 0 130.5 -42
t78.5 -128l83 7zM516 448q0 24 -22 37t-52 13q-16 0 -28 -1t-20 -3v-106q13 -3 24 -4t15 -1q83 0 83 65z" />
    <glyph glyph-name="copyright" unicode="&#xa9;" horiz-adv-x="847" 
d="M606 324q0 -100 -42 -148t-133 -48q-79 0 -132 51t-53 133q0 79 65.5 140.5t150.5 61.5q46 0 79 -20t33 -49q0 -39 -31 -72t-75 -33q-33 0 -64 30q0 66 37 66q25 0 25 -20q0 -9 -19 -30q2 -6 4 -8q8 -9 20 -9q31 0 53.5 18.5t22.5 48.5q0 18 -21.5 31t-58.5 13
q-44 0 -73.5 -25t-29.5 -70q0 -75 57 -176l5 -35l36 -2q24 0 58 35t63 91l7 29q5 3 11 0q2 0 5 -3zM820 335l-113 -9q0 -122 -78 -208t-197 -86l12 -113l-45 -2l-11 119q-93 11 -157.5 80t-77.5 179h-122l-4 40l128 1q-1 5 -1 14q0 74 80.5 153.5t147.5 79.5q7 0 10 -1
q10 -3 14 -17l-8 -7q-215 -74 -215 -248q0 -100 71.5 -170.5t174.5 -70.5q108 0 176 73t68 191q0 110 -54.5 167t-186.5 79l24 111l15 2q5 0 11.5 -8t6.5 -20q0 -26 -19 -64q111 -24 163 -72q57 -54 71 -163l110 3z" />
    <glyph glyph-name="trademark" unicode="&#x2122;" horiz-adv-x="776" 
d="M557 678q0 -18 -9 -31.5t-24 -13.5q-16 0 -26.5 7.5t-12.5 24.5t6.5 30.5t26.5 13.5q14 0 26.5 -9t12.5 -22zM742 403q-14 -3 -77 -8q-10 0 -27 -2q-11 -3 -16 -4q-20 -5 -22 -5q-6 -1 -13 3l-3 18q36 3 42 17q-2 24 -12.5 66.5t-18.5 55.5l1 13l-10 35l-8 6l-31 -72
l9 -16l-12 -16l-8 -31q-4 -4 -7 -6q-18 -13 -27 -14t-24 28q-2 5 -7 15q-5 6 -8 10q-18 24 -29 45l-9 3l-1 8l-18 22q-1 8 -2 12q-4 15 -14 24l34 -192q3 -19 28 -19q6 1 9 1l11 2l5 -20l-51 -5l-43 -9l-19 4l-2 15q28 3 36.5 9t8.5 26l-2 13l-32 183l-9 21q-11 22 -19 21
l-33 -13q-5 0 -10 5t-5 10q-2 12 8 14l20 -4q4 1 11 5q2 1 7 4q15 0 42 16q9 5 25 17q7 1 14 -7t9 -26l19 -25l61 -102l17 -18l9 1l74 177q28 71 58 71q15 0 23 -16l13 -25l-10 -4l-13 25q-6 9 -13 8t-17 -12.5t-21 -35.5l54 -225q12 -50 21.5 -64.5t29.5 -12.5zM414 762
q0 -26 -22.5 -43.5t-59.5 -17.5q-26 0 -47 2.5t-38 6.5l-9 -134l4 -123q-5 -2 -7 -3q-7 -4 -7 -8q0 -12 46 -19l2 -21l-14 -1l-91 15l-38 -5q-5 0 -13 5l-1 18q17 0 30 3.5t13 10.5l-1 51q-8 12 -10 22q6 16 10.5 43t4.5 65l1 42l-6 12v13q0 19 -5 30q-10 3 -16 4
q-22 5 -34 5q-23 0 -40 -9t-17 -23l3 -17q0 -17 -14 -17t-14 21q0 24 20.5 41.5t56.5 17.5q4 0 105 -14t134 -14q31 0 46 10t15 35t-25 25q-24 0 -24 -30q1 -8 1 -13h-12q-1 8 -1 12q0 43 38 43q15 0 25.5 -11.5t10.5 -29.5z" />
    <glyph glyph-name="acute" unicode="&#xb4;" horiz-adv-x="237" 
d="M206 755q0 -19 -29 -36q-9 -5 -30 -13q-25 -17 -38 -25q-42 -26 -55 -26q-21 0 -21 19q1 2 1 3q4 9 15 15.5t68 54.5q40 34 61 34q28 0 28 -26z" />
    <glyph glyph-name="dieresis" unicode="&#xa8;" horiz-adv-x="340" 
d="M302 680q0 -16 -13.5 -28.5t-36.5 -12.5q-17 0 -30.5 15.5t-13.5 40.5q0 13 16 27.5t35 14.5q18 0 30.5 -15.5t12.5 -41.5zM154 691q0 -26 -17.5 -42.5t-43.5 -16.5q-20 0 -37.5 15.5t-17.5 38.5q0 25 17 44t43 19q22 0 39 -16t17 -42z" />
    <glyph glyph-name="notequal" unicode="&#x2260;" horiz-adv-x="333" 
d="M483 425q0 -28 -21 -28q-28 0 -28 25q0 26 27 26q22 0 22 -23zM142 397q0 -17 -21 -17q-18 0 -18 20q0 21 21 21q6 0 12 -7t6 -17zM429 110q-5 -27 -43.5 -48.5t-89.5 -21.5q-84 0 -139 51t-55 134q0 79 55.5 132.5t141.5 53.5q44 0 66.5 -14.5t48.5 -61.5l-192 -99
q23 -83 50 -118.5t72 -35.5q34 0 46.5 24.5t20.5 24.5q18 0 18 -21zM78 308q0 -27 -30 -27q-8 0 -14.5 8.5t-6.5 21.5q0 9 8 18t18 9q11 0 18 -9t7 -21zM332 -30q0 -16 -4.5 -22t-19.5 -6q-11 0 -19 8t-8 21t6 20t23 7q22 0 22 -28zM70 179q0 -11 -7.5 -19.5t-21.5 -8.5
q-12 0 -20 10t-8 21q0 13 7.5 21.5t20.5 8.5q11 0 20 -9.5t9 -23.5zM207 0q0 -13 -6 -22t-19 -9q-14 0 -23 5.5t-9 20.5q0 11 6 22t19 11q11 0 21.5 -10.5t10.5 -17.5zM116 71q0 -8 -5 -15q-9 -13 -23 -13q-26 0 -26 29q0 11 6.5 20.5t17.5 9.5q9 0 19.5 -8.5t10.5 -22.5z
M335 349q0 39 -48 39q-32 0 -53 -20t-21 -60l2 -29l107 47q13 7 13 23z" />
    <glyph glyph-name="AE" unicode="&#xc6;" horiz-adv-x="1245" 
d="M1201 204q0 -25 -10.5 -41t-10.5 -37q0 -16 7 -41q1 -4 4 -11q4 -27 -19 -37q-15 0 -55 13q-6 2 -17 6l-78 -9q-12 -8 -30.5 -16.5t-31.5 -8.5q-8 0 -12 2q-33 -12 -110 -54l-133 -74l-65 -37l-14 35l77 49l-18 12l-9 247l-8 30l7 11l-9 155l-124 48l-209 -311
q-35 -50 -63 -71q-35 -27 -78 -27q-53 0 -102 38.5t-58 93.5q-2 16 -2 22q0 36 21.5 58.5t59.5 22.5q34 0 59 -22t28 -39.5t3 -24.5q0 -21 -10 -34.5t-31 -13.5q-24 0 -43 9.5t-36 33.5q18 -9 32.5 -12.5t30.5 -3.5q11 0 19.5 8t8.5 25q0 6 -1 9q-4 19 -20.5 31.5
t-41.5 12.5q-24 0 -38 -19t-14 -46q0 -9 1 -14q6 -37 38 -67t73 -30l33 21l35 -2l14 8q34 34 117 160q74 113 152.5 245.5t98.5 181.5l10 29l24 2l72 -27q-2 14 -2 19q0 19 10 26.5t27 7.5q29 0 48 -24q16 -20 16 -45l23 -8q26 0 78 6q18 2 51 7l20 10h52l6 5l13 -9l77 7
q13 -12 24 -32q3 -6 12 -27q-5 -18 -19 -38.5t-30 -27.5q-17 -4 -42 9.5t-25 29.5l-4 50l-29 5l-211 -74l-7 -12l13 -207l107 15l46 16l3 12l23 10l15 -6q17 -8 19.5 -17.5t2.5 -12.5q0 -11 -11 -19q-14 -8 -22 -12q-104 0 -142 -24t-38 -90q0 -61 42 -175l176 25l10 8
l-3 12q-4 17 -4 23q0 26 14 56q4 9 14 24h118zM663 428q0 62 -1 94q-4 97 -16 118q-8 -5 -55 -88l-46 -83z" />
    <glyph glyph-name="Oslash" unicode="&#xd8;" horiz-adv-x="927" 
d="M906 483q0 -7 -4 -15l-106 -40q-27 0 -27 22q0 17 19 24l93 21l5 1q19 0 20 -13zM561 706l-8 -59q-1 -5 -2 -7q-4 -7 -17 -6q-16 0 -16 16l25 89q8 -2 14 -9t6 -16q0 -5 -2 -8zM397 659l-12 -9q-11 3 -22 20t-11 34q0 31 13 31q12 0 22 -22t10 -54zM874 238q0 -14 -6 -20
t-31 -6q-49 0 -52 23q0 9 6.5 19t15.5 11q22 -3 33 -5q34 -8 34 -22zM267 601q0 -11 -11 -14q-16 0 -36 30q-6 10 -16 30q0 6 1 9q1 5 7 16q55 -26 55 -71zM757 631l-3 -9l-100 -113q84 -89 84 -201q0 -101 -58.5 -181t-158.5 -111l-64 5l-59 -12h-11q-19 0 -35.5 6
t-56.5 28l-90 -106q-12 6 -30 38q-6 10 -16 31q26 18 48.5 43l34.5 39q-42 49 -57 91q-18 49 -18 127q0 93 47 160l109 103q14 14 58.5 24t95.5 10q54 0 77 -7.5t40 -33.5l12 -2l54 54q56 55 62 55q21 0 26.5 -7.5t8.5 -30.5zM770 -20q0 -11 -18 -11q-14 0 -29.5 25
t-15.5 57q0 26 19 26q14 0 26 -18l-3 -14zM134 494q0 -1 -11 -24t-11 -38l9 -35q0 -11 -2 -15q-4 -8 -17 -12q-6 0 -13 18t-7 42q0 56 26 83q26 0 26 -19zM602 -50l-19 -75l-20 3l-20 63q0 17 6 28t19 12q34 0 34 -31zM399 -63l-33 -81l-23 -5l-12 18q7 25 12 37
q17 39 35 43q18 0 21 -12zM119 158q0 -10 -8 -16t-19 -6t-40 34t-33 55q3 14 6.5 22t21.5 8q13 -22 60 -71q12 -13 12 -26zM523 467q-50 77 -114 77q-49 0 -81.5 -48t-32.5 -129q0 -52 7.5 -97t25.5 -74l30 45l74 105zM584 268q0 36 -1 43q-4 26 -22 88q-25 -29 -73 -99
l-79 -118l-38 -57q30 -29 52 -41.5t49 -12.5q51 0 81.5 52.5t30.5 144.5z" />
    <glyph glyph-name="infinity" unicode="&#x221e;" horiz-adv-x="927" 
d="M760 642q0 -20 -34 -43q-11 -7 -34 -19q-8 0 -16 24l43 45q5 4 15.5 6.5t22.5 4.5zM906 485q0 -7 -4 -15l-106 -40q-27 0 -27 22q0 17 19 24l93 21l5 1q19 0 20 -13zM882 236q0 -22 -45 -22q-49 0 -52 23q0 9 6.5 19t15.5 11q25 -5 37 -8q38 -11 38 -23zM267 603
q0 -11 -11 -14q-16 0 -36 30q-6 10 -16 30q0 6 1 9q1 5 7 16q55 -26 55 -71zM740 343q0 -117 -56 -206t-155 -121l-65 5l-56 -12q-83 0 -156 72q-76 75 -76 171q0 112 97 276l32 19q18 19 36 28q54 28 143 28q56 0 79.5 -8t48.5 -44l13 -2q55 -55 85 -107t30 -99zM770 -18
q0 -11 -18 -11q-14 0 -29.5 25t-15.5 57q0 26 19 26q14 0 26 -18l-3 -14zM158 524q0 -1 -11 -24t-11 -38l9 -35q0 -11 -2 -15q-4 -8 -17 -12q-6 0 -13 18t-7 42q0 56 26 83q26 0 26 -19zM602 -48l-19 -75l-20 3l-20 63q0 17 6 28t19 12q34 0 34 -31zM121 216q0 -10 -8 -16
t-19 -6t-40 34t-33 55q3 14 6.5 22t21.5 8q13 -22 60 -71q12 -13 12 -26zM205 48q0 -28 -63 -28q-58 0 -58 31q0 11 5.5 20.5t14.5 9.5q16 -10 24 -14q28 -15 38 -15l30 8q9 0 9 -12zM321 -57l-33 -81l-23 -5l-12 18q7 25 12 37q17 39 35 43q18 0 21 -12zM587 269
q0 103 -58.5 187.5t-132.5 84.5q-37 0 -64.5 -58t-27.5 -140q0 -104 56 -190.5t127 -86.5q39 0 69.5 59.5t30.5 143.5z" />
    <glyph glyph-name="plusminus" unicode="&#xb1;" horiz-adv-x="429" 
d="M401 656l-4 -40h-66q-13 0 -29 -1t-51 -10q-2 -20 -4 -45t-2 -55q0 -33 4 -52q0 -19 -18 -19q-32 10 -58 17t-45 7q-3 1 -4 10t-1 11v14q0 2 1 7l17 89q-21 -3 -35 -4q-40 -5 -78 -14v49l119 18l23 136l17 -8l62 12q14 0 18 -2t12 -11l-19 -114q18 2 29 3q40 4 53 4z
M386 245q-7 -2 -12 -3q-20 -5 -39 -8q-43 0 -117.5 -9t-149.5 -22l-19 -7q-11 -3 -23 30q-2 5 -5 17l31 35l182 10q10 0 48 14q6 2 18 7q16 2 23 2q26 3 28 2q19 -21 27 -35.5t8 -32.5z" />
    <glyph glyph-name="lessequal" unicode="&#x2264;" horiz-adv-x="477" 
d="M445 42q-113 -22 -196 -55q-49 -20 -116 -58q-10 -1 -20 10t-10 28q0 13 6 21.5t22 8.5q13 0 31 -6v9q-15 5 -15 16q14 57 25.5 188t11.5 198q-15 8 -25 12q-30 12 -52 12l-6 26q6 13 17 19t24 6h70q9 2 40 21.5t70 19.5q13 0 23.5 -7.5t10.5 -21.5q-22 -85 -35 -250
q-9 -116 -9 -196l118 27q16 3 16 -18v-7q0 -1 -1 -3z" />
    <glyph glyph-name="yen" unicode="&#xa5;" horiz-adv-x="571" 
d="M550 670l-186 -299l156 5l22 -41l-13 -8l-175 -3l1 -55l184 1l4 -51h-190l-3 -219h-110l-24 52q3 7 4 42.5t1 42.5v15v13v30.5t-1 22.5h-154q-16 0 -29.5 5.5t-13.5 16.5q0 8 11 19t22 11l163 -1l-2 60l-163 -1q-9 0 -18.5 6t-9.5 16q0 16 12.5 22t27.5 6l155 -3
l-156 234l-41 -11l-11 25l124 34l14 -23l-57 -17l141 -206q7 -11 13.5 -16.5t13.5 -5.5q15 0 36 30l151 251h101z" />
    <glyph glyph-name="mu" unicode="&#xb5;" horiz-adv-x="483" 
d="M455 16l-35 -35l-67 53q-33 -20 -60.5 -30.5t-60.5 -10.5q-60 0 -105 38q-2 -40 -3 -63q-4 -86 -4 -112q0 -30 -34 -36q-14 0 -22.5 10.5t-8.5 25.5q6 36 9 57q10 70 10 105v13v10q-2 6 -2 8l-9 351q-33 0 -36 13l6 21q9 -2 31 -4.5t34 -3.5q14 2 30.5 4t30.5 2
q10 0 13 -1l4 -43l-15 -230q0 -38 19 -67.5t53 -29.5q35 0 56 27q25 32 25 90l-6 236l6 16q5 3 47 3l60 -3q-6 -28 -8 -67t-2 -93q0 -52 1 -104l2 -103q7 -13 11 -19q14 -21 30 -28z" />
    <glyph glyph-name="ordfeminine" unicode="&#xaa;" horiz-adv-x="320" 
d="M258 550q0 -11 -11 -11l-11 2l-7 -4l-59 -22h-13l-6 6q-7 -2 -17.5 -3.5t-17.5 -1.5q-57 0 -57 46q0 39 51 59l42 14l-5 21l2 22q-8 22 -23 22q-8 0 -20.5 -14t-12.5 -26q0 -11 9 -11t9 23q5 4 9 5q8 0 8 -10t-8.5 -18.5t-18.5 -8.5q-7 0 -14 6t-7 15q0 20 24 41t49 21
q32 0 43 -39l28 -119v-9q4 -1 12 -1q6 0 12 1q2 0 5 1q5 0 5 -7zM272 469q-12 -5 -23.5 -6t-21.5 -2l-107 -10q-13 -2 -31.5 -6l-31.5 -7l-13 30l19 22l114 6q22 9 40.5 12.5t32.5 3.5q13 -12 17.5 -22.5t4.5 -20.5zM160 556l-7 64q-72 -21 -72 -57q0 -29 48 -29q21 0 27 5
t4 17z" />
    <glyph glyph-name="ordmasculine" unicode="&#xba;" horiz-adv-x="348" 
d="M282 646q0 -49 -36.5 -88.5t-83.5 -39.5q-45 0 -75.5 28.5t-30.5 75.5q0 51 36.5 91.5t86.5 40.5q43 0 73 -31t30 -77zM272 469q-12 -5 -23.5 -6t-21.5 -2l-107 -10q-13 -2 -31.5 -6l-31.5 -7l-13 30l19 22l114 6q22 9 40.5 12.5t32.5 3.5q13 -12 17.5 -22.5t4.5 -20.5z
M267 653q0 28 -21 48t-54 20q-29 0 -49.5 -20.5t-20.5 -51.5q0 -23 13.5 -39.5t36.5 -16.5q24 0 39 14t15 40q0 14 -8.5 24.5t-26.5 10.5q-9 0 -19 -8t-10 -18q0 -8 8 -19q5 -7 5 -10q0 -6 -8 -6t-13.5 8.5t-5.5 21.5q0 19 12 31t31 12q20 0 33.5 -12.5t13.5 -34.5
q0 -28 -19 -47t-48 -19q-26 0 -43.5 19.5t-17.5 49.5q0 19 10 42l-4 2l-8 -18q-11 -24 -11 -43q0 -35 20 -58t55 -23q40 0 67.5 28.5t27.5 72.5z" />
    <glyph glyph-name="ae" unicode="&#xe6;" horiz-adv-x="603" 
d="M559 110q0 -25 -36 -46q-44 -26 -117 -26q-5 0 -14 2q-3 0 -8 2l-13 -8l-119 -44l-25 -1l-12 13q-14 -4 -23 -5q-27 -5 -47 -5q-115 0 -115 89q0 37 25 68.5t77 49.5l85 31l-10 39l4 44q-15 47 -47 47q-17 0 -41.5 -28t-24.5 -52q0 -22 19 -22q12 0 14.5 9.5t2.5 33.5
q0 10 18 10q16 0 16 -20q0 -19 -17.5 -36.5t-36.5 -17.5q-16 0 -28.5 12.5t-12.5 32.5q0 27 21 55q25 33 67 53q34 16 57 16q48 0 73 -46q27 24 62.5 37.5t75.5 13.5q43 0 66.5 -14.5t48.5 -61.5l-192 -99q23 -83 50 -118.5t72 -35.5q33 0 46 24.5t21 24.5q18 0 18 -21z
M465 349q0 39 -48 39q-31 0 -52.5 -21.5t-21.5 -58.5l2 -29l107 47q13 7 13 23zM233 69l-15 128q-72 -19 -108 -48t-36 -66q0 -58 97 -58q41 0 53 10t9 34z" />
    <glyph glyph-name="oslash" unicode="&#xf8;" horiz-adv-x="537" 
d="M519 450q-1 -2 -29 -31q-16 -16 -38 -52q53 -62 53 -147q0 -93 -73.5 -161.5t-174.5 -68.5q-54 0 -97 27q-10 -13 -16 -20q-38 -44 -58 -56l-46 48l63 65q-34 29 -54.5 74t-20.5 96q0 93 69.5 160.5t169.5 67.5q38 0 67.5 -9t66.5 -32q63 77 83 77q18 0 27 -14
q6 -9 8 -24zM333 340q-41 43 -88 43q-45 0 -71.5 -32.5t-26.5 -85.5q0 -58 31 -114q18 24 89 110zM409 193q0 48 -25 95l-67 -82q-70 -86 -84 -108q41 -28 76 -28q44 0 72 33t28 90z" />
    <glyph glyph-name="questiondown" unicode="&#xbf;" horiz-adv-x="364" 
d="M231 497q0 -28 -18.5 -45.5t-46.5 -17.5q-27 0 -45 19t-18 46t18 45t47 18q27 0 45 -19t18 -46zM319 162q0 -73 -41 -118t-109 -45q-61 0 -104.5 41.5t-43.5 99.5q0 44 37 90l90 110l-1 36l22 10q32 0 32 -26q0 -17 -11 -33q-6 -9 -17 -21l-86 -90q-16 -16 -25 -34
t-9 -41q0 -42 32 -77t81 -35q52 0 88.5 34.5t36.5 86.5q0 37 -22.5 63.5t-59.5 26.5q-26 0 -53 -28t-27 -63q0 -31 10.5 -44t37.5 -13q18 0 34 14t16 34q0 25 -25 25q-10 0 -16.5 -9.5t-14.5 -9.5q-12 0 -12 11q0 13 14 27t32 14t33.5 -14.5t15.5 -39.5q0 -37 -20.5 -57.5
t-58.5 -20.5q-34 0 -53.5 17.5t-19.5 53.5q0 54 35 94t86 40q39 0 67.5 -30.5t28.5 -78.5z" />
    <glyph glyph-name="exclamdown" unicode="&#xa1;" horiz-adv-x="522" 
d="M330 621q0 -30 -17 -49.5t-50 -19.5q-27 0 -46 16q-23 20 -23 61q0 25 19.5 43.5t48.5 18.5q30 0 49 -18t19 -52zM464 285q-5 -17 -19 -22q-4 3 -29 -4q-4 -1 -12 -4q-6 1 -9 2q-9 5 -9 18q0 9 10.5 17.5t29.5 8.5q28 0 38 -16zM337 20q-6 -5 -45.5 -15t-51.5 -21
q-39 0 -57 25q-14 19 -14 44q0 32 29 185t29 175q-9 3 -24 -7.5l-32 -22.5q-12 0 -12 21q33 30 50 44q52 45 60.5 48.5t18.5 4t20 0.5l15 -40l-18 -44zM432 74q0 -9 -17 -9q-13 0 -26 9.5t-13 21.5q0 15 13.5 16.5t21.5 1.5zM401 -52q-5 -1 -7 -2q-7 -4 -12 -20l-8 -26
t-10 -14l-19 1q1 29 3 43q8 44 33 44q8 0 20 -26zM125 160l-2 -10l-22 1l-33 14q-7 -2 -15 -3.5t-13 -4.5q-6 4 -10 12q-1 2 -3 7q8 8 13 11q17 12 33 12q24 0 37 -11t15 -28zM138 13q-15 -18 -23 -26q-26 -27 -38 -28q-13 0 -16 18q0 10 21.5 29.5t34.5 19.5q7 0 21 -13z
M241 -108q0 -12 -5.5 -24.5t-21.5 -30.5q-21 0 -21 23q0 26 9 41t32 15z" />
    <glyph glyph-name="logicalnot" unicode="&#xac;" horiz-adv-x="1200" 
d="M1162 -83h-1123v765h1123v-765zM1067 255v18h-16q-21 0 -29 5t-8 27v250q0 10 -0.5 20t-0.5 19q0 24 9.5 31.5t44.5 7.5v18h-160v-18q37 0 45 -7t8 -37v-24v-258q0 -22 -9.5 -28t-29.5 -6h-14v-18h160zM1141 27q0 50 -78 66t-78 50q0 21 15.5 33.5t37.5 12.5
q16 0 31 -7.5t27 -21.5q3 -14 4 -17q1 -6 1 -18l16 -1q0 17 3 37.5t4 31.5q-42 13 -80 13q-44 0 -71 -18q-32 -22 -32 -64q0 -53 77.5 -68t77.5 -51q0 -25 -18 -38.5t-44 -13.5q-42 0 -57 15t-15 56h-16q0 -11 -2 -37.5t-2 -29.5q0 -10 22.5 -16.5t59.5 -6.5q47 0 79 22
q38 26 38 71zM941 184h-86q0 24 1 48.5t4 46.5q28 23 42 44q18 27 18 58q0 88 -115 98t-115 74q0 38 27 59t67 21q19 0 44 -7.5t38 -18.5q5 -11 5 -34v-20h18q0 30 1.5 43t7.5 37q-53 21 -111 21q-62 0 -102 -29q-45 -33 -45 -93q0 -87 115.5 -98t115.5 -75q0 -42 -32 -64
t-76 -22q-26 0 -52 8q-35 11 -42 29l-1 48h-19v-33v-14q0 -20 -3 -40q51 -21 106 -21q27 0 51 6q5 -40 5 -72q-19 -11 -45 -19v-12h45v-157q0 -62 64 -62q8 0 18 2t18 4l27 34l-8 11q-13 -15 -32 -15t-29.5 14t-10.5 53v13v108q8 0 25.5 1t25.5 1q15 0 29 -3zM802 -60v17
q-29 0 -37 5t-8 23q1 20 1 33v92q0 96 -93 96q-25 0 -50 -15t-43 -38q1 18 1 27q0 16 -5 26q-23 -10 -46 -16t-47 -6v-17q11 1 17 1q13 0 21.5 -3.5t8.5 -13.5v-172q0 -11 -5 -17t-21 -6q-14 1 -21 1v-17h144l-1 17q-30 0 -39.5 8.5t-9.5 31.5q0 6 1 23.5t1 29.5v28
q0 46 10 64q16 28 63 28q38 0 53 -23q12 -19 12 -62v-54v-12q0 -44 -4 -79h97zM680 633v18h-119v-18q14 0 32 -2.5t18 -10.5q0 -25 -38 -154l-40 -130l-116 318h-14l-122 -315l-32 138t-28 131q-4 6 -3 10q0 10 15 12.5t22 2.5h12v18h-143v-18q26 0 32.5 -6.5t12.5 -35.5
q10 -43 22 -88q28 -105 32 -149q-23 0 -58.5 -32.5t-46.5 -57.5q-4 -10 -5.5 -21t-1.5 -30v-30l-40 -20v-10l40 4l1 -153q0 -32 -8.5 -39.5t-41.5 -7.5v-17h155v17h-17q-19 0 -25 2q-16 6 -16 39l1 160q17 0 35 -0.5t36 -0.5l5 25l-2 2h-74v36v25q0 32 8.5 50t35.5 18
q17 0 29 -9l11 -54h29q27 80 57 156q22 57 65 155q9 -26 58 -154q37 -98 54 -157h30q15 61 54 198q46 160 60 181q7 4 29 4zM487 80q0 56 -36 91t-93 35q-61 0 -102 -36t-41 -97q0 -59 34 -99t92 -40q64 0 105 41t41 105zM434 56q0 -41 -16 -69q-20 -34 -59 -34
q-46 0 -70 49q-19 38 -19 90q0 39 19 68t56 29q48 0 71 -45q18 -35 18 -88z" />
    <glyph glyph-name="florin" unicode="&#x192;" horiz-adv-x="388" 
d="M513 578q0 -24 -12.5 -43.5t-29.5 -19.5q-23 0 -23 21q0 14 19 24q6 3 19 7l2 13q0 30 -21.5 50.5t-48.5 20.5t-48 -14.5t-31 -45.5l-50 -158l108 4l-1 -27l-117 -4l-86 -306l-2 -54l-25 -29l-3 -18l-11 -7l2 -7h-10l-8 -28q-20 -65 -72 -106.5t-121 -41.5
q-47 0 -76.5 25t-29.5 77q0 41 25.5 65.5t72.5 24.5q20 0 35.5 -10t15.5 -27q0 -24 -27 -24q-8 0 -34 13l-12 6q-22 0 -38.5 -13.5t-16.5 -35.5q0 -27 20 -48t44 -21q35 0 69 41t56 112l126 414l-67 -3l11 27l66 1l39 121q40 128 166 128q56 0 90.5 -27.5t34.5 -76.5z" />
    <glyph glyph-name="guillemotleft" unicode="&#xab;" horiz-adv-x="524" 
d="M499 416q0 -23 -72 -56t-72 -51q0 -19 23 -65q58 -115 62 -136q0 -18 -29 -29q-34 85 -100 156l-77 82l33 30l202 102q8 0 19 -10t11 -23zM332 436l-3 -6l-78 -40q-78 -41 -104 -56l121 -137q18 -12 27 -19q28 -23 28 -37q0 -3 -7 -14q-2 -3 -8 -11l-69 -8l-77 90
l-107 129q0 18 12 31q18 20 56 25l84 36q88 38 93 39q32 0 32 -22z" />
    <glyph glyph-name="guillemotright" unicode="&#xbb;" horiz-adv-x="540" 
d="M484 353q0 -30 -28 -51q-22 -12 -113 -90l-89 -77q-11 9 -14 29l-1 34l24 9q27 21 60 56q30 31 45 52q-4 16 -6 23q-7 23 -12 25q-58 22 -87 34q-88 37 -90 49t17 36q4 -2 12 -2t22 7zM299 328l-188 -244q-3 -13 -7 -18q-8 -10 -19 -10t-20.5 10.5t-9.5 27.5q0 3 2 13
q13 13 19 21q20 26 24 46l52 73.5t26 48.5q0 19 -7 23q-48 23 -71 38q-72 48 -72 92l16 19l104 -59q114 -64 151 -81z" />
    <glyph glyph-name="ellipsis" unicode="&#x2026;" horiz-adv-x="580" 
d="M528 63q0 -22 -21.5 -42.5t-50.5 -20.5q-22 0 -42 22t-20 56q0 26 21.5 44.5t54.5 18.5q19 0 38.5 -22.5t19.5 -55.5zM351 76q0 -22 -15.5 -40.5t-37.5 -18.5q-23 0 -38.5 14.5t-15.5 37.5q0 21 16 39t37 18t37.5 -14.5t16.5 -35.5zM208 79q0 -34 -21 -58.5t-49 -24.5
q-36 0 -60 20t-24 47q0 35 18.5 59t48.5 24q35 0 61 -20t26 -47z" />
    <glyph glyph-name="nonbreakingspace" unicode="&#xa0;" horiz-adv-x="276" 
 />
    <glyph glyph-name="Agrave" unicode="&#xc0;" horiz-adv-x="984" 
d="M980 18q-6 -1 -13.5 -1.5t-18.5 -0.5q-16 0 -27.5 1.5t-21.5 6.5q-33 -12 -119 -54q-46 -22 -146 -74l-72 -37l-7 35l85 49l-16 12l35 247l-3 30l9 11l18 155l-116 48l-263 -311q-45 -50 -76 -71q-40 -27 -82 -27q-53 0 -95 39t-42 93q0 44 26.5 73.5t70.5 29.5
q34 0 55 -22t21 -47q0 -26 -13 -45.5t-38 -19.5q-24 0 -41 9.5t-30 33.5q16 -9 30.5 -12.5t29.5 -3.5q13 0 23.5 10t10.5 32q0 19 -14.5 31.5t-39.5 12.5q-27 0 -46 -24.5t-19 -54.5q0 -38 26 -67.5t68 -29.5l37 21l35 -2l15 8q39 34 145 160l195.5 244.5t130.5 182.5l15 29
l24 2l67 -27q0 31 12 42t33 11q23 0 38.5 -12t15.5 -30q0 -23 -6.5 -39.5t-21.5 -16.5q-16 0 -20 1q-10 5 -15 7l-6 -132q-8 -165 -12 -264q-7 -167 -7 -194q-2 -9 -4 -15q-6 -17 -14 -34l9 -10q48 23 113 41l53 13zM705 640q-8 -5 -70 -88l-61 -83l111 -41q8 44 11 69
q12 81 12 115q0 19 -3 28zM910 779q1 -3 1 -6v-5q0 -18 -20 -18q-14 0 -40 16q-86 53 -99.5 58t-13.5 26q0 27 29 27q16 0 68 -41l61 -49z" />
    <glyph glyph-name="Atilde" unicode="&#xc3;" horiz-adv-x="984" 
d="M980 18q-6 -1 -13.5 -1.5t-18.5 -0.5q-16 0 -27.5 1.5t-21.5 6.5q-33 -12 -119 -54q-46 -22 -146 -74l-72 -37l-7 35l85 49l-16 12l35 247l-3 30l9 11l18 155l-116 48l-263 -311q-45 -50 -76 -71q-40 -27 -82 -27q-53 0 -95 39t-42 93q0 44 26.5 73.5t70.5 29.5
q34 0 55 -22t21 -47q0 -26 -13 -45.5t-38 -19.5q-24 0 -41 9.5t-30 33.5q16 -9 30.5 -12.5t29.5 -3.5q13 0 23.5 10t10.5 32q0 19 -14.5 31.5t-39.5 12.5q-27 0 -46 -24.5t-19 -54.5q0 -38 26 -67.5t68 -29.5l37 21l35 -2l15 8q39 34 145 160l195.5 244.5t130.5 182.5l15 29
l24 2l67 -27q0 31 12 42t33 11q23 0 38.5 -12t15.5 -30q0 -23 -6.5 -39.5t-21.5 -16.5q-16 0 -20 1q-10 5 -15 7l-6 -132q-8 -165 -12 -264q-7 -167 -7 -194q-2 -9 -4 -15q-6 -17 -14 -34l9 -10q48 23 113 41l53 13zM705 640q-8 -5 -70 -88l-61 -83l111 -41q8 44 11 69
q12 81 12 115q0 19 -3 28zM1018 866q0 -28 -31 -61q-37 -39 -85 -39q-40 0 -78 33q-83 72 -91 72q-34 0 -40 -41t-24 -41q-19 0 -19 25q0 35 24 61t58 26q39 0 91 -52t82 -52q36 0 58 27l37 61q18 0 18 -19z" />
    <glyph glyph-name="Otilde" unicode="&#xd5;" horiz-adv-x="937" 
d="M653 815q0 -28 -31 -61q-37 -39 -85 -39q-40 0 -78 33q-83 72 -91 72q-34 0 -40 -41t-24 -41q-19 0 -19 25q0 35 24 61t58 26q39 0 91 -52t82 -52q36 0 58 27l37 61q18 0 18 -19zM760 642q0 -20 -34 -43q-11 -7 -34 -19q-8 0 -16 24l43 45q5 4 15.5 6.5t22.5 4.5z
M906 485q0 -7 -4 -15l-106 -40q-27 0 -27 22q0 17 19 24l93 21l5 1q19 0 20 -13zM882 236q0 -22 -45 -22q-49 0 -52 23q0 9 6.5 19t15.5 11q25 -5 37 -8q38 -11 38 -23zM267 603q0 -11 -11 -14q-16 0 -36 30q-6 10 -16 30q0 6 1 9q1 5 7 16q55 -26 55 -71zM740 343
q0 -117 -56 -206t-155 -121l-65 5l-56 -12q-83 0 -156 72q-76 75 -76 171q0 112 97 276l32 19q18 19 36 28q54 28 143 28q56 0 79.5 -8t48.5 -44l13 -2q55 -55 85 -107t30 -99zM770 -18q0 -11 -18 -11q-14 0 -29.5 25t-15.5 57q0 26 19 26q14 0 26 -18l-3 -14zM158 524
q0 -1 -11 -24t-11 -38l9 -35q0 -11 -2 -15q-4 -8 -17 -12q-6 0 -13 18t-7 42q0 56 26 83q26 0 26 -19zM602 -48l-19 -75l-20 3l-20 63q0 17 6 28t19 12q34 0 34 -31zM121 216q0 -10 -8 -16t-19 -6t-40 34t-33 55q3 14 6.5 22t21.5 8q13 -22 60 -71q12 -13 12 -26zM205 48
q0 -28 -63 -28q-58 0 -58 31q0 11 5.5 20.5t14.5 9.5q16 -10 24 -14q28 -15 38 -15l30 8q9 0 9 -12zM321 -57l-33 -81l-23 -5l-12 18q7 25 12 37q17 39 35 43q18 0 21 -12zM587 269q0 103 -58.5 187.5t-132.5 84.5q-37 0 -64.5 -58t-27.5 -140q0 -104 56 -190.5t127 -86.5
q39 0 69.5 59.5t30.5 143.5z" />
    <glyph glyph-name="OE" unicode="&#x152;" horiz-adv-x="1100" 
d="M1061 204q0 -25 -10.5 -41t-10.5 -37q0 -16 7 -41q1 -4 4 -11q4 -27 -19 -37q-15 0 -55 13q-6 2 -17 6l-203 -23l-67 -29l-42 -8l-62 8q-7 -17 -14.5 -23t-20.5 -6q-13 20 -47 35l-31 11l-65 -12q-83 0 -156 72q-76 75 -76 171q0 112 97 276l32 19q18 19 36 28
q54 28 143 28h23l-48 33q0 9 16 28l26 -9l138 6l38 18l30 -10q26 0 78 6q18 2 51 7l20 10h52l6 5l13 -9l77 7q13 -12 24 -32q3 -6 12 -27q-5 -18 -19 -38.5t-30 -27.5q-17 -4 -42 9.5t-25 29.5l-4 50l-29 5l-211 -74l-7 -12l13 -207l107 15l46 16l3 12l23 10l15 -6
q17 -8 20 -17q4 -21 -13 -35q-5 -4 -18 -9q-104 0 -142 -24t-38 -90q0 -61 42 -175l176 25l10 8l-3 12q-4 17 -4 23q0 26 14 56q4 9 14 24h118zM587 269q0 103 -58.5 187.5t-132.5 84.5q-37 0 -64.5 -58t-27.5 -140q0 -104 56 -190.5t127 -86.5q39 0 69.5 59.5t30.5 143.5z
" />
    <glyph glyph-name="oe" unicode="&#x153;" horiz-adv-x="771" 
d="M739 110q0 -22 -36 -44q-42 -26 -97 -26q-59 0 -104.5 25t-69.5 72q-29 -63 -82 -102.5t-116 -39.5q-91 0 -152 57t-61 150q0 100 74 182t172 82q64 0 111 -36.5t68 -99.5q26 38 68.5 59.5t94.5 21.5q43 0 66.5 -14.5t48.5 -61.5l-192 -99q23 -83 50 -118.5t72 -35.5
q33 0 46 24.5t21 24.5q18 0 18 -21zM645 349q0 39 -48 39q-31 0 -52.5 -21.5t-21.5 -58.5l2 -29l107 47q13 7 13 23zM413 263q0 63 -26 97q-31 40 -94 40q-56 0 -97.5 -41.5t-41.5 -102.5q0 -47 27 -79.5t73 -32.5q47 0 77 29t30 78q0 31 -15 49q-18 22 -55 22
q-19 0 -38.5 -15t-19.5 -37q0 -15 13 -33t13 -26q0 -12 -15 -12t-27 17t-12 43q0 38 24 62t63 24t66.5 -25.5t27.5 -68.5q0 -54 -39 -93t-95 -39q-53 0 -88 39t-35 100q0 39 21 84l-8 4l-23 -51q-15 -38 -15 -72q0 -71 40 -116t110 -45q75 0 117 55.5t42 145.5z" />
    <glyph glyph-name="endash" unicode="&#x2013;" horiz-adv-x="670" 
d="M636 304l-30 -9l-439 -23q-30 -5 -46 -7q-52 -8 -57 -8q-13 0 -22 17t-9 26q0 12 8 23q1 1 14 16l429 19l64 16h39q16 -16 24 -25q25 -29 25 -45z" />
    <glyph glyph-name="emdash" unicode="&#x2014;" horiz-adv-x="918" 
d="M883 310q-41 -14 -205 -20t-341.5 -11t-260.5 -15q-10 0 -28 21q-5 7 -16 21q0 15 31 39q78 0 254 6.5t320 14.5t209 16z" />
    <glyph glyph-name="quotedblleft" unicode="&#x201c;" horiz-adv-x="333" 
d="M320 613q0 -20 -16.5 -37.5t-37.5 -17.5q-9 0 -19 2.5t-12 2.5q-11 0 -11 -11q0 -12 15 -34t38 -45q-3 -3 -5 -4q-7 -5 -12 -5q-4 0 -10 3q-2 1 -5 3q-20 21 -29 35q-30 43 -30 78q0 36 22 63t54 27q21 0 39.5 -17.5t18.5 -42.5zM157 630q0 -26 -11.5 -42t-36.5 -16
q-5 0 -20 6t-19 6q-11 0 -11 -15q0 -34 36 -87l-17 -16q-29 36 -40 63.5t-11 60.5q0 44 21 75t54 31q22 0 38.5 -18.5t16.5 -47.5z" />
    <glyph glyph-name="quotedblright" unicode="&#x201d;" horiz-adv-x="333" 
d="M306 588q0 -33 -8.5 -55.5t-41.5 -66.5l-17 16q35 58 35 87q0 15 -11 15q-4 0 -17 -6t-23 -6q-17 0 -30 12q-17 16 -17 46q0 25 16.5 45.5t40.5 20.5q30 0 51.5 -29t21.5 -79zM148 583q0 -33 -22 -67q-2 -4 -37 -46l-15 -6q-6 0 -18 9q53 50 53 79q0 11 -10 11
q-5 0 -16 -2.5t-16 -2.5q-21 0 -37.5 15.5t-16.5 39.5t17 42t43 18q32 0 53.5 -25.5t21.5 -64.5z" />
    <glyph glyph-name="quoteleft" unicode="&#x2018;" horiz-adv-x="182" 
d="M154 643q0 -24 -16.5 -39.5t-44.5 -15.5q-15 0 -23 2.5t-13 5.5q0 -39 16 -69.5t42 -37t26 -22.5q0 -20 -19 -20q-26 0 -59 49q-36 53 -36 105q0 39 20 66t50 27q24 0 40.5 -14.5t16.5 -36.5z" />
    <glyph glyph-name="quoteright" unicode="&#x2019;" horiz-adv-x="188" 
d="M154 601q0 -51 -31 -102.5t-63 -51.5q-19 0 -19 20q0 16 24 22t41.5 36.5t17.5 70.5q-8 -3 -17 -5.5t-19 -2.5q-26 0 -43 15t-17 40q0 22 15.5 36.5t41.5 14.5q32 0 50.5 -26t18.5 -67z" />
    <glyph glyph-name="divide" unicode="&#xf7;" horiz-adv-x="448" 
d="M268 642q0 -27 -14.5 -43.5t-44.5 -16.5q-24 0 -41 16t-17 44q0 24 16.5 42.5t41.5 18.5t42 -17t17 -44zM396 412q-6 -7 -39 -11q-11 -1 -33 -2q-43 0 -148 -15q-35 -5 -97 -15l-20 -7q-4 0 -16 24l-12 24l31 34l98 3q102 5 121 18l29 10l51 4q13 -16 19 -25
q20 -29 16 -42zM289 231q0 -25 -15 -42t-44 -17q-25 0 -41.5 15.5t-16.5 43.5q0 26 16.5 43.5t41.5 17.5q24 0 41.5 -17.5t17.5 -43.5z" />
    <glyph glyph-name="ydieresis" unicode="&#xff;" horiz-adv-x="528" 
d="M527 545q0 -10 -21 -47l-22 -36q-5 3 -7 4q-9 5 -11 5q-23 0 -66.5 -195t-43.5 -303q0 -30 4 -65q10 -87 10 -88q0 -31 -6 -41t-23 -10q-14 0 -79.5 24.5t-83.5 24.5q-27 0 -39.5 -24.5t-22.5 -46.5q-45 0 -45 24q0 14 11.5 29t29.5 20l128 36l33 304q-39 -45 -100 -45
q-134 0 -134 189q0 96 13 137q7 23 21 31h14q34 0 61.5 3t43.5 11l-1 -42l-19 -2q-14 -6 -25 -39t-11 -76q0 -65 25.5 -106t71.5 -41q15 0 31.5 15t17.5 30l20 218l-3 33l15 14l44 -8l106 18q12 2 20 16t8 35q0 14 -10.5 25.5t-22.5 11.5q-5 0 -13 -12q-2 -4 -7 -12
q6 -3 9 -5q9 -7 9 -14q0 -16 -19 -16q-14 0 -22.5 7t-8.5 25q0 22 17.5 38.5t43.5 16.5q21 0 40 -22t19 -49zM377 572q0 -16 -13.5 -28.5t-36.5 -12.5q-17 0 -30.5 15.5t-13.5 40.5q0 13 16 27.5t35 14.5q18 0 30.5 -15.5t12.5 -41.5zM229 583q0 -26 -17.5 -42.5
t-43.5 -16.5q-20 0 -37.5 15.5t-17.5 38.5q0 25 17 44t43 19q22 0 39 -16t17 -42z" />
    <glyph glyph-name="Ydieresis" unicode="&#x178;" horiz-adv-x="701" 
d="M684 671l-306 -284q-28 -27 -37.5 -43.5t-9.5 -42.5l2 -192q0 -68 69 -68l3 -42h-176l-78 -8q-5 1 -8 1q-8 2 -17 6l-2 37q61 0 73.5 9.5t12.5 58.5l-5 276l-152 231l-41 -11l-11 23l124 35l15 -22l-57 -14l141 -209q10 -16 35 -16q22 0 44 19l280 256h101zM475 788
q0 -16 -13.5 -27.5t-36.5 -11.5q-17 0 -30.5 14.5t-13.5 39.5q0 14 15.5 27.5t35.5 13.5q18 0 30.5 -15.5t12.5 -40.5zM327 799q0 -24 -17.5 -40.5t-42.5 -16.5q-21 0 -38 14.5t-17 37.5q0 24 17.5 42.5t42.5 18.5q21 0 38 -16t17 -40z" />
    <glyph glyph-name="fraction" unicode="&#x2215;" horiz-adv-x="381" 
d="M396 724q0 -11 -16 -34q-43 -61 -47 -74l-186 -576l-36 -99q-51 12 -77 12q-14 0 -23 -1.5t-19 -3.5l-5 14q38 24 60.5 46.5t34.5 54.5l223 679q12 -3 25 -5.5t16 -1.5l21 14q26 0 29 -25z" />
    <glyph glyph-name="currency" unicode="&#xa4;" horiz-adv-x="686" 
d="M627 44q-17 -2 -27 -4q-30 -7 -59 -24l-135 189q-12 -6 -20 -9q-28 -10 -55 -10q-30 0 -55 8q-8 2 -19 8l-133 -186q-13 10 -23 14q-30 14 -62 14l-1 11q32 8 51 20t37 35l93 119q-16 15 -23 27q-24 38 -24 85q0 44 19 83q6 13 19 30l-131 167q-16 21 -29 30
q-17 12 -60 25l1 11q18 -1 36 4t50 25q2 -11 84 -119l81 -106q21 16 34 24q42 24 80 24q14 0 35 -5q7 -1 19 -5l63 85q64 88 68 102q21 -10 32 -14q37 -15 54 -15v-11q-36 -10 -54.5 -21t-33.5 -34l-89 -115q20 -17 30 -31q31 -43 31 -100q0 -52 -34 -103q-11 -17 -34 -40
l96 -122q19 -24 32 -32.5t56 -22.5v-11zM488 387q0 46 -29.5 74.5t-82.5 28.5q-43 0 -73.5 -30.5t-30.5 -77.5q0 -37 20 -61t56 -24q34 0 56.5 22.5t22.5 58.5q0 54 -53 54q-12 0 -25 -9q-18 -13 -18 -31q0 -13 9.5 -25.5t9.5 -18.5q0 -10 -11 -10q-10 0 -19.5 12.5
t-9.5 33.5q0 26 18 45t46 19q31 0 51.5 -18.5t20.5 -51.5q0 -42 -28.5 -70.5t-71.5 -28.5q-42 0 -67.5 30.5t-25.5 73.5q0 13 8 39q2 8 8 24l-6 3q-11 -15 -19.5 -40.5t-8.5 -51.5q0 -56 28 -88.5t85 -32.5q59 0 99.5 43.5t40.5 107.5z" />
    <glyph glyph-name="guilsinglleft" unicode="&#x2039;" horiz-adv-x="375" 
d="M332 432l-117 -59.5t-68 -38.5l121 -137q18 -13 26 -20q27 -23 29 -35q-3 -12 -18 -24q-12 -5 -40 -8q-9 0 -26 -2q-22 30 -81 97q-103 117 -103 122q0 23 14.5 35.5t53.5 20.5q53 25 81 37q86 38 96 38q32 0 32 -26z" />
    <glyph glyph-name="guilsinglright" unicode="&#x203a;" horiz-adv-x="336" 
d="M299 328l-188 -244q-2 -10 -4 -14q-7 -14 -22 -14q-12 0 -21.5 12.5t-9.5 31.5l3 7l28 30l15 37q52 71 63 87q15 23 15 35q0 20 -28 34q-56 28 -108 77q-14 14 -14 42l16 19l161 -91q73 -41 94 -49z" />
    <glyph glyph-name="fi" unicode="&#xf001;" horiz-adv-x="616" 
d="M568 40q-43 -37 -69 -40l-23 23q-25 -8 -34.5 -13.5t-18.5 -18.5q-23 3 -34 6q-33 9 -31 24l8 36l37 304q0 18 -5 24q-9 11 -39 11l-160 -9l-32 -284l6 -53l-20 -33v-18l-9 -9l2 -6l-9 -1l-5 -30q-9 -74 -64.5 -126.5t-126.5 -52.5q-45 0 -72 26t-27 72q0 40 25.5 67.5
t69.5 27.5q18 0 31.5 -9.5t13.5 -25.5q0 -24 -26 -24l-44 13q-19 0 -32 -18t-13 -40q0 -25 18 -42t43 -17q36 0 67.5 46t43.5 126l58 406l-66 -3l7 28l64 3l22 147q10 70 55 112t115 42q52 0 82.5 -23t30.5 -68q0 -35 -22.5 -62.5t-54.5 -27.5q-26 0 -43.5 18.5t-17.5 45.5
q0 20 9 34.5t27 14.5q21 0 21 -23q0 -9 -8.5 -17t-22.5 -15q-5 -9 5 -23.5t29 -14.5q18 0 35.5 18.5t17.5 46.5q0 27 -20 48t-51 21q-28 0 -49 -20t-27 -52l-32 -197l168 7l142 16q13 0 21 -10.5t5 -25.5l-30 -343l54 13z" />
    <glyph glyph-name="fl" unicode="&#xf002;" horiz-adv-x="628" 
d="M610 178l-83 -138q-12 -19 -37.5 -34.5t-44.5 -15.5q-26 0 -48.5 29.5t-45.5 95.5q1 13 14 28q4 5 13 13v9q-1 11 -1 23q0 36 1 43.5t5 21.5l-9 44l16 31l-1 17l16 46q-10 21 -13 41l13 41l-13 27l9 15l5 31q20 16 27 51t7 90l-54 -8q21 -23 21 -59q0 -35 -22.5 -62.5
t-54.5 -27.5q-26 0 -43.5 18.5t-17.5 45.5q0 20 9 34.5t27 14.5q21 0 21 -23q0 -9 -8.5 -17t-22.5 -15q-5 -9 5 -23.5t29 -14.5q18 0 35.5 18.5t17.5 46.5q0 27 -20 48t-51 21q-28 0 -49 -20t-27 -52l-26 -165l107 14l3 -27l-114 -15l-38 -316l6 -53l-20 -33v-18l-9 -9l2 -6
l-9 -1l-5 -30q-9 -74 -64.5 -126.5t-126.5 -52.5q-45 0 -72 26t-27 72q0 40 25.5 67.5t69.5 27.5q18 0 31.5 -9.5t13.5 -25.5q0 -24 -26 -24l-44 13q-19 0 -32 -18t-13 -40q0 -25 18 -42t43 -17q36 0 67.5 46t43.5 126l60 428l-66 -11l7 28l64 11l20 125q10 70 55 112
t115 42q46 0 73 -17v8q20 13 81 29q20 5 57 13q15 18 30 18q12 0 21.5 -5.5t9.5 -12.5q0 -14 -4 -31t-4 -18l-74 -590q-2 -17 3 -25.5t14 -8.5q17 0 51 58q11 19 32 59z" />
    <glyph glyph-name="daggerdbl" unicode="&#x2021;" horiz-adv-x="449" 
d="M441 14l-123 -32q-2 -6 3 -32q12 -69 12 -83q0 -26 -14 -26q-11 0 -17.5 10.5t-6.5 22.5v38q0 34 -2.5 49.5t-9.5 26.5l-123 -18l-4 25l78 11l12 199l-26 256l-62 220l-90 -19l-10 31l123 31q0 12 -8.5 56.5t-8.5 62.5q0 22 16 22q11 0 17.5 -10.5t6.5 -22.5
q0 -13 -0.5 -25.5t-0.5 -24.5q0 -22 2.5 -36.5t9.5 -26.5l123 16l4 -24l-77 -11l-13 -199l13 -139l75 -337l90 18z" />
    <glyph glyph-name="periodcentered" unicode="&#xb7;" horiz-adv-x="255" 
d="M177 286q0 -18 -14 -33t-34 -15t-34 14t-14 34t14 34t34 14t34 -14t14 -34z" />
    <glyph glyph-name="periodcentered" unicode="&#x2219;" horiz-adv-x="255" 
d="M177 286q0 -18 -14 -33t-34 -15t-34 14t-14 34t14 34t34 14t34 -14t14 -34z" />
    <glyph glyph-name="quotesinglbase" unicode="&#x201a;" horiz-adv-x="214" 
d="M154 14q0 -43 -31 -84q-27 -36 -42 -36q-4 0 -11 4q-2 1 -7 5q23 23 38 45t15 34q0 11 -10 11q-4 0 -16.5 -2t-15.5 -2q-19 0 -36 15t-17 39q0 26 18 43t41 17q30 0 52 -25.5t22 -63.5z" />
    <glyph glyph-name="quotedblbase" unicode="&#x201e;" horiz-adv-x="348" 
d="M313 18q0 -33 -9 -56.5t-41 -65.5l-18 17q36 56 36 86q0 16 -11 16q-2 0 -10 -4q-19 -9 -29 -9q-17 0 -31 14q-17 17 -17 44q0 25 16.5 45.5t40.5 20.5q30 0 51.5 -29.5t21.5 -78.5zM154 14q0 -43 -32 -84q-28 -36 -41 -36q-4 0 -11 4q-2 1 -7 5q23 23 38 45t15 34
q0 11 -10 11q-3 0 -14 -2t-18 -2q-22 0 -37.5 15.5t-15.5 38.5q0 25 16.5 42.5t42.5 17.5q30 0 52 -25.5t22 -63.5z" />
    <glyph glyph-name="perthousand" unicode="&#x2030;" horiz-adv-x="877" 
d="M837 171q0 -70 -43 -120.5t-106 -50.5q-54 0 -90.5 32.5t-36.5 86.5q0 68 53 128.5t106 60.5q46 0 81.5 -39.5t35.5 -97.5zM538 171q0 -67 -43.5 -119t-104.5 -52q-56 0 -92.5 31.5t-36.5 83.5q0 24 7 52l-15 3q-16 -4 -23.5 -16t-7.5 -38q-1 -31 -2 -59t-3 -46
q-18 -16 -46 -58q-20 -31 -35 -31q-16 0 -24 6q-9 10 -15 15l298 633l-100 -28l-148 -26q-36 -7 -59 -36t-23 -67q0 -40 22.5 -69t57.5 -29q40 0 67.5 24.5t27.5 60.5q0 21 -13.5 38.5t-32.5 17.5q-7 0 -12.5 -7.5t-10.5 -20.5q9 -6 13 -9q14 -12 14 -18q0 -21 -13.5 -35.5
t-34.5 -14.5q-20 0 -36 17t-16 41q0 33 26 57t61 24q33 0 57.5 -22.5t24.5 -57.5q0 -51 -31.5 -87.5t-85.5 -36.5q-52 0 -83 32q-34 35 -34 95q0 110 125 134l132 22l146 48q39 -5 39 -31l-185 -350l4 -17q42 49 68.5 65.5t61.5 16.5q47 0 80.5 -39.5t33.5 -96.5zM776 145
q0 31 -12 58q-15 34 -39 34q-29 0 -51 -21t-22 -56q0 -39 18 -62.5t48 -23.5q25 0 41.5 18.5t16.5 52.5zM477 145q0 36 -16 64t-35 28q-33 0 -53.5 -20.5t-20.5 -56.5t17.5 -61t49.5 -25q25 0 41.5 19.5t16.5 51.5z" />
    <glyph glyph-name="Acircumflex" unicode="&#xc2;" horiz-adv-x="984" 
d="M980 18q-6 -1 -13.5 -1.5t-18.5 -0.5q-16 0 -27.5 1.5t-21.5 6.5q-33 -12 -119 -54q-46 -22 -146 -74l-72 -37l-7 35l85 49l-16 12l35 247l-3 30l9 11l18 155l-116 48l-263 -311q-45 -50 -76 -71q-40 -27 -82 -27q-53 0 -95 39t-42 93q0 44 26.5 73.5t70.5 29.5
q34 0 55 -22t21 -47q0 -26 -13 -45.5t-38 -19.5q-24 0 -41 9.5t-30 33.5q16 -9 30.5 -12.5t29.5 -3.5q13 0 23.5 10t10.5 32q0 19 -14.5 31.5t-39.5 12.5q-27 0 -46 -24.5t-19 -54.5q0 -38 26 -67.5t68 -29.5l37 21l35 -2l15 8q39 34 145 160l195.5 244.5t130.5 182.5l15 29
l24 2l67 -27q0 31 12 42t33 11q23 0 38.5 -12t15.5 -30q0 -23 -6.5 -39.5t-21.5 -16.5q-16 0 -20 1q-10 5 -15 7l-6 -132q-8 -165 -12 -264q-7 -167 -7 -194q-2 -9 -4 -15q-6 -17 -14 -34l9 -10q48 23 113 41l53 13zM705 640q-8 -5 -70 -88l-61 -83l111 -41q8 44 11 69
q12 81 12 115q0 19 -3 28zM914 790q0 -16 -29 -16q-6 2 -16 11q-3 2 -8 8l-21 11q-15 12 -27.5 20.5t-22.5 8.5l-11 -3q-57 -66 -85 -66q-7 0 -15 5q-2 1 -6 6l51 52q52 55 61 72l113 -96q6 -2 8 -3q8 -4 8 -10z" />
    <glyph glyph-name="Ecircumflex" unicode="&#xca;" horiz-adv-x="683" 
d="M621 204q0 -25 -10.5 -41t-10.5 -37q0 -16 7 -41q1 -4 4 -11q4 -27 -19 -37q-15 0 -55 13q-6 2 -17 6l-203 -23l-67 -29l-42 -8l-62 8q-7 -17 -14.5 -23t-20.5 -6l-46 18l-3 19l74 36q-10 5 -16.5 16.5t-6.5 22.5l20 18q-9 13 -12 20t-3 24q9 3 15.5 10t6.5 16
q-5 8 -5 30q0 20 4 33l-14 13q7 18 7 49q0 68 -28.5 164t-42.5 106l6 35l-38 15l-10 16q0 9 16 28l26 -9l138 6l38 18l30 -10q40 1 61 2q64 5 88 21h52l6 5l13 -9l77 7q13 -12 24 -32q3 -6 12 -27q-5 -18 -19 -38.5t-30 -27.5q-17 -4 -42 9.5t-25 29.5l-4 50l-29 5l-211 -74
l-7 -12l13 -207l107 15l46 16l3 12l23 10l15 -6q17 -8 20 -17q-2 -17 -5 -22q-4 -7 -26 -22q-104 0 -142 -24t-38 -90q0 -61 42 -175l176 25l10 8l-3 12q-4 17 -4 23q0 26 14 56q4 9 14 24h118zM434 749q0 -16 -29 -16q-6 2 -16 11q-3 2 -8 8l-21 11q-15 12 -27.5 20.5
t-22.5 8.5l-11 -3q-57 -66 -85 -66q-7 0 -15 5q-2 1 -6 6l51 52q52 55 61 72l113 -96q6 -2 8 -3q8 -4 8 -10z" />
    <glyph glyph-name="Aacute" unicode="&#xc1;" horiz-adv-x="984" 
d="M980 18q-6 -1 -13.5 -1.5t-18.5 -0.5q-16 0 -27.5 1.5t-21.5 6.5q-33 -12 -119 -54q-46 -22 -146 -74l-72 -37l-7 35l85 49l-16 12l35 247l-3 30l9 11l18 155l-116 48l-263 -311q-45 -50 -76 -71q-40 -27 -82 -27q-53 0 -95 39t-42 93q0 44 26.5 73.5t70.5 29.5
q34 0 55 -22t21 -47q0 -26 -13 -45.5t-38 -19.5q-24 0 -41 9.5t-30 33.5q16 -9 30.5 -12.5t29.5 -3.5q13 0 23.5 10t10.5 32q0 19 -14.5 31.5t-39.5 12.5q-27 0 -46 -24.5t-19 -54.5q0 -38 26 -67.5t68 -29.5l37 21l35 -2l15 8q39 34 145 160l195.5 244.5t130.5 182.5l15 29
l24 2l67 -27q0 31 12 42t33 11q23 0 38.5 -12t15.5 -30q0 -23 -6.5 -39.5t-21.5 -16.5q-16 0 -20 1q-10 5 -15 7l-6 -132q-8 -165 -12 -264q-7 -167 -7 -194q-2 -9 -4 -15q-6 -17 -14 -34l9 -10q48 23 113 41l53 13zM705 640q-8 -5 -70 -88l-61 -83l111 -41q8 44 11 69
q12 81 12 115q0 19 -3 28zM868 864q0 -19 -29 -36q-9 -5 -30 -13q-25 -17 -38 -25q-42 -26 -55 -26q-21 0 -21 19q1 2 1 3q4 9 15 15.5t68 54.5q40 34 61 34q28 0 28 -26z" />
    <glyph glyph-name="Edieresis" unicode="&#xcb;" horiz-adv-x="683" 
d="M621 204q0 -25 -10.5 -41t-10.5 -37q0 -16 7 -41q1 -4 4 -11q4 -27 -19 -37q-15 0 -55 13q-6 2 -17 6l-203 -23l-67 -29l-42 -8l-62 8q-7 -17 -14.5 -23t-20.5 -6l-46 18l-3 19l74 36q-10 5 -16.5 16.5t-6.5 22.5l20 18q-9 13 -12 20t-3 24q9 3 15.5 10t6.5 16
q-5 8 -5 30q0 20 4 33l-14 13q7 18 7 49q0 68 -28.5 164t-42.5 106l6 35l-38 15l-10 16q0 9 16 28l26 -9l138 6l38 18l30 -10q40 1 61 2q64 5 88 21h52l6 5l13 -9l77 7q13 -12 24 -32q3 -6 12 -27q-5 -18 -19 -38.5t-30 -27.5q-17 -4 -42 9.5t-25 29.5l-4 50l-29 5l-211 -74
l-7 -12l13 -207l107 15l46 16l3 12l23 10l15 -6q17 -8 20 -17q-2 -17 -5 -22q-4 -7 -26 -22q-104 0 -142 -24t-38 -90q0 -61 42 -175l176 25l10 8l-3 12q-4 17 -4 23q0 26 14 56q4 9 14 24h118zM442 796q0 -16 -13.5 -28.5t-36.5 -12.5q-17 0 -30.5 15.5t-13.5 40.5
q0 13 16 27.5t35 14.5q18 0 30.5 -15.5t12.5 -41.5zM294 807q0 -26 -17.5 -42.5t-43.5 -16.5q-20 0 -37.5 15.5t-17.5 38.5q0 25 17 44t43 19q22 0 39 -16t17 -42z" />
    <glyph glyph-name="Egrave" unicode="&#xc8;" horiz-adv-x="683" 
d="M621 204q0 -25 -10.5 -41t-10.5 -37q0 -16 7 -41q1 -4 4 -11q4 -27 -19 -37q-15 0 -55 13q-6 2 -17 6l-203 -23l-67 -29l-42 -8l-62 8q-7 -17 -14.5 -23t-20.5 -6l-46 18l-3 19l74 36q-10 5 -16.5 16.5t-6.5 22.5l20 18q-9 13 -12 20t-3 24q9 3 15.5 10t6.5 16
q-5 8 -5 30q0 20 4 33l-14 13q7 18 7 49q0 68 -28.5 164t-42.5 106l6 35l-38 15l-10 16q0 9 16 28l26 -9l138 6l38 18l30 -10q40 1 61 2q64 5 88 21h52l6 5l13 -9l77 7q13 -12 24 -32q3 -6 12 -27q-5 -18 -19 -38.5t-30 -27.5q-17 -4 -42 9.5t-25 29.5l-4 50l-29 5l-211 -74
l-7 -12l13 -207l107 15l46 16l3 12l23 10l15 -6q17 -8 20 -17q-2 -17 -5 -22q-4 -7 -26 -22q-104 0 -142 -24t-38 -90q0 -61 42 -175l176 25l10 8l-3 12q-4 17 -4 23q0 26 14 56q4 9 14 24h118zM368 768q1 -3 1 -6v-5q0 -18 -20 -18q-14 0 -40 16q-86 53 -99.5 58t-13.5 26
q0 27 29 27q16 0 68 -41l61 -49z" />
    <glyph glyph-name="Iacute" unicode="&#xcd;" horiz-adv-x="482" 
d="M353 696q0 -19 -29 -36q-9 -5 -30 -13q-25 -17 -38 -25q-42 -26 -55 -26q-21 0 -21 19q1 2 1 3q4 9 15 15.5t68 54.5q40 34 61 34q28 0 28 -26zM445 42q-113 -22 -196 -55q-49 -20 -116 -58q-10 -1 -20 10t-10 28q0 13 6 21.5t22 8.5q13 0 31 -6v9q-15 5 -15 16
q14 57 25.5 188t11.5 198q-15 8 -25 12q-30 12 -52 12l-6 26q6 13 17 19t24 6h70q9 2 40 21.5t70 19.5q13 0 23.5 -7.5t10.5 -21.5q-22 -85 -35 -250q-9 -116 -9 -196l118 27q16 3 16 -18v-7q0 -1 -1 -3z" />
    <glyph glyph-name="Icircumflex" unicode="&#xce;" horiz-adv-x="482" 
d="M407 630q0 -16 -29 -16q-6 2 -16 11q-3 2 -8 8l-21 11q-15 12 -27.5 20.5t-22.5 8.5l-11 -3q-57 -66 -85 -66q-7 0 -15 5q-2 1 -6 6l51 52q52 55 61 72l113 -96q6 -2 8 -3q8 -4 8 -10zM445 42q-113 -22 -196 -55q-49 -20 -116 -58q-10 -1 -20 10t-10 28q0 13 6 21.5
t22 8.5q13 0 31 -6v9q-15 5 -15 16q14 57 25.5 188t11.5 198q-15 8 -25 12q-30 12 -52 12l-6 26q6 13 17 19t24 6h70q9 2 40 21.5t70 19.5q13 0 23.5 -7.5t10.5 -21.5q-22 -85 -35 -250q-9 -116 -9 -196l118 27q16 3 16 -18v-7q0 -1 -1 -3z" />
    <glyph glyph-name="Idieresis" unicode="&#xcf;" horiz-adv-x="482" 
d="M387 658q0 -16 -13.5 -28.5t-36.5 -12.5q-17 0 -30.5 15.5t-13.5 40.5q0 13 16 27.5t35 14.5q18 0 30.5 -15.5t12.5 -41.5zM239 669q0 -26 -17.5 -42.5t-43.5 -16.5q-20 0 -37.5 15.5t-17.5 38.5q0 25 17 44t43 19q22 0 39 -16t17 -42zM445 42q-113 -22 -196 -55
q-49 -20 -116 -58q-10 -1 -20 10t-10 28q0 13 6 21.5t22 8.5q13 0 31 -6v9q-15 5 -15 16q14 57 25.5 188t11.5 198q-15 8 -25 12q-30 12 -52 12l-6 26q6 13 17 19t24 6h70q9 2 40 21.5t70 19.5q13 0 23.5 -7.5t10.5 -21.5q-22 -85 -35 -250q-9 -116 -9 -196l118 27
q16 3 16 -18v-7q0 -1 -1 -3z" />
    <glyph glyph-name="Igrave" unicode="&#xcc;" horiz-adv-x="482" 
d="M301 657q1 -3 1 -6v-5q0 -18 -20 -18q-14 0 -40 16q-86 53 -99.5 58t-13.5 26q0 27 29 27q16 0 68 -41l61 -49zM445 42q-113 -22 -196 -55q-49 -20 -116 -58q-10 -1 -20 10t-10 28q0 13 6 21.5t22 8.5q13 0 31 -6v9q-15 5 -15 16q14 57 25.5 188t11.5 198q-15 8 -25 12
q-30 12 -52 12l-6 26q6 13 17 19t24 6h70q9 2 40 21.5t70 19.5q13 0 23.5 -7.5t10.5 -21.5q-22 -85 -35 -250q-9 -116 -9 -196l118 27q16 3 16 -18v-7q0 -1 -1 -3z" />
    <glyph glyph-name="Oacute" unicode="&#xd3;" horiz-adv-x="937" 
d="M549 820q0 -19 -29 -36q-9 -5 -30 -13q-25 -17 -38 -25q-42 -26 -55 -26q-21 0 -21 19q1 2 1 3q4 9 15 15.5t68 54.5q40 34 61 34q28 0 28 -26zM760 642q0 -20 -34 -43q-11 -7 -34 -19q-8 0 -16 24l43 45q5 4 15.5 6.5t22.5 4.5zM906 485q0 -7 -4 -15l-106 -40
q-27 0 -27 22q0 17 19 24l93 21l5 1q19 0 20 -13zM882 236q0 -22 -45 -22q-49 0 -52 23q0 9 6.5 19t15.5 11q25 -5 37 -8q38 -11 38 -23zM267 603q0 -11 -11 -14q-16 0 -36 30q-6 10 -16 30q0 6 1 9q1 5 7 16q55 -26 55 -71zM740 343q0 -117 -56 -206t-155 -121l-65 5
l-56 -12q-83 0 -156 72q-76 75 -76 171q0 112 97 276l32 19q18 19 36 28q54 28 143 28q56 0 79.5 -8t48.5 -44l13 -2q55 -55 85 -107t30 -99zM770 -18q0 -11 -18 -11q-14 0 -29.5 25t-15.5 57q0 26 19 26q14 0 26 -18l-3 -14zM158 524q0 -1 -11 -24t-11 -38l9 -35
q0 -11 -2 -15q-4 -8 -17 -12q-6 0 -13 18t-7 42q0 56 26 83q26 0 26 -19zM602 -48l-19 -75l-20 3l-20 63q0 17 6 28t19 12q34 0 34 -31zM121 216q0 -10 -8 -16t-19 -6t-40 34t-33 55q3 14 6.5 22t21.5 8q13 -22 60 -71q12 -13 12 -26zM205 48q0 -28 -63 -28q-58 0 -58 31
q0 11 5.5 20.5t14.5 9.5q16 -10 24 -14q28 -15 38 -15l30 8q9 0 9 -12zM321 -57l-33 -81l-23 -5l-12 18q7 25 12 37q17 39 35 43q18 0 21 -12zM587 269q0 103 -58.5 187.5t-132.5 84.5q-37 0 -64.5 -58t-27.5 -140q0 -104 56 -190.5t127 -86.5q39 0 69.5 59.5t30.5 143.5z
" />
    <glyph glyph-name="Ocircumflex" unicode="&#xd4;" horiz-adv-x="937" 
d="M598 726q0 -16 -29 -16q-6 2 -16 11q-3 2 -8 8l-21 11q-15 12 -27.5 20.5t-22.5 8.5l-11 -3q-57 -66 -85 -66q-7 0 -15 5q-2 1 -6 6l51 52q52 55 61 72l113 -96q6 -2 8 -3q8 -4 8 -10zM760 642q0 -20 -34 -43q-11 -7 -34 -19q-8 0 -16 24l43 45q5 4 15.5 6.5t22.5 4.5z
M906 485q0 -7 -4 -15l-106 -40q-27 0 -27 22q0 17 19 24l93 21l5 1q19 0 20 -13zM882 236q0 -22 -45 -22q-49 0 -52 23q0 9 6.5 19t15.5 11q25 -5 37 -8q38 -11 38 -23zM267 603q0 -11 -11 -14q-16 0 -36 30q-6 10 -16 30q0 6 1 9q1 5 7 16q55 -26 55 -71zM740 343
q0 -117 -56 -206t-155 -121l-65 5l-56 -12q-83 0 -156 72q-76 75 -76 171q0 112 97 276l32 19q18 19 36 28q54 28 143 28q56 0 79.5 -8t48.5 -44l13 -2q55 -55 85 -107t30 -99zM770 -18q0 -11 -18 -11q-14 0 -29.5 25t-15.5 57q0 26 19 26q14 0 26 -18l-3 -14zM158 524
q0 -1 -11 -24t-11 -38l9 -35q0 -11 -2 -15q-4 -8 -17 -12q-6 0 -13 18t-7 42q0 56 26 83q26 0 26 -19zM602 -48l-19 -75l-20 3l-20 63q0 17 6 28t19 12q34 0 34 -31zM121 216q0 -10 -8 -16t-19 -6t-40 34t-33 55q3 14 6.5 22t21.5 8q13 -22 60 -71q12 -13 12 -26zM205 48
q0 -28 -63 -28q-58 0 -58 31q0 11 5.5 20.5t14.5 9.5q16 -10 24 -14q28 -15 38 -15l30 8q9 0 9 -12zM321 -57l-33 -81l-23 -5l-12 18q7 25 12 37q17 39 35 43q18 0 21 -12zM587 269q0 103 -58.5 187.5t-132.5 84.5q-37 0 -64.5 -58t-27.5 -140q0 -104 56 -190.5t127 -86.5
q39 0 69.5 59.5t30.5 143.5z" />
    <glyph glyph-name="Ograve" unicode="&#xd2;" horiz-adv-x="937" 
d="M528 753q1 -3 1 -6v-5q0 -18 -20 -18q-14 0 -40 16q-86 53 -99.5 58t-13.5 26q0 27 29 27q16 0 68 -41l61 -49zM760 642q0 -20 -34 -43q-11 -7 -34 -19q-8 0 -16 24l43 45q5 4 15.5 6.5t22.5 4.5zM906 485q0 -7 -4 -15l-106 -40q-27 0 -27 22q0 17 19 24l93 21l5 1
q19 0 20 -13zM882 236q0 -22 -45 -22q-49 0 -52 23q0 9 6.5 19t15.5 11q25 -5 37 -8q38 -11 38 -23zM267 603q0 -11 -11 -14q-16 0 -36 30q-6 10 -16 30q0 6 1 9q1 5 7 16q55 -26 55 -71zM740 343q0 -117 -56 -206t-155 -121l-65 5l-56 -12q-83 0 -156 72q-76 75 -76 171
q0 112 97 276l32 19q18 19 36 28q54 28 143 28q56 0 79.5 -8t48.5 -44l13 -2q55 -55 85 -107t30 -99zM770 -18q0 -11 -18 -11q-14 0 -29.5 25t-15.5 57q0 26 19 26q14 0 26 -18l-3 -14zM158 524q0 -1 -11 -24t-11 -38l9 -35q0 -11 -2 -15q-4 -8 -17 -12q-6 0 -13 18t-7 42
q0 56 26 83q26 0 26 -19zM602 -48l-19 -75l-20 3l-20 63q0 17 6 28t19 12q34 0 34 -31zM121 216q0 -10 -8 -16t-19 -6t-40 34t-33 55q3 14 6.5 22t21.5 8q13 -22 60 -71q12 -13 12 -26zM205 48q0 -28 -63 -28q-58 0 -58 31q0 11 5.5 20.5t14.5 9.5q16 -10 24 -14
q28 -15 38 -15l30 8q9 0 9 -12zM321 -57l-33 -81l-23 -5l-12 18q7 25 12 37q17 39 35 43q18 0 21 -12zM587 269q0 103 -58.5 187.5t-132.5 84.5q-37 0 -64.5 -58t-27.5 -140q0 -104 56 -190.5t127 -86.5q39 0 69.5 59.5t30.5 143.5z" />
    <glyph glyph-name="Uacute" unicode="&#xda;" horiz-adv-x="510" 
d="M443 250q0 -100 -57.5 -179t-135.5 -79q-76 0 -129 63t-62 164l-11 119l-13 51l-2 105l-5 22l9 8l35 1q30 11 45 16q49 17 56 17q39 0 39 -30l-10 -225q0 -94 27 -160t74 -66q41 0 76 53.5t35 122.5q0 57 -34 129l-75 141q0 35 80 70l14 -16q-37 -19 -47 -26
q-18 -14 -18 -28q43 -71 74 -141q35 -77 35 -132zM329 811q0 -19 -29 -36q-9 -5 -30 -13q-25 -17 -38 -25q-42 -26 -55 -26q-21 0 -21 19q1 2 1 3q4 9 15 15.5t68 54.5q40 34 61 34q28 0 28 -26z" />
    <glyph glyph-name="Ucircumflex" unicode="&#xdb;" horiz-adv-x="510" 
d="M443 250q0 -100 -57.5 -179t-135.5 -79q-76 0 -129 63t-62 164l-11 119l-13 51l-2 105l-5 22l9 8l35 1q30 11 45 16q49 17 56 17q39 0 39 -30l-10 -225q0 -94 27 -160t74 -66q41 0 76 53.5t35 122.5q0 57 -34 129l-75 141q0 35 80 70l14 -16q-37 -19 -47 -26
q-18 -14 -18 -28q43 -71 74 -141q35 -77 35 -132zM354 729q0 -16 -29 -16q-6 2 -16 11q-3 2 -8 8l-21 11q-15 12 -27.5 20.5t-22.5 8.5l-11 -3q-57 -66 -85 -66q-7 0 -15 5q-2 1 -6 6l51 52q52 55 61 72l113 -96q6 -2 8 -3q8 -4 8 -10z" />
    <glyph glyph-name="Ugrave" unicode="&#xd9;" horiz-adv-x="510" 
d="M311 749q1 -3 1 -6v-5q0 -18 -20 -18q-14 0 -40 16q-86 53 -99.5 58t-13.5 26q0 27 29 27q16 0 68 -41l61 -49zM437 250q0 -100 -57.5 -179t-135.5 -79q-76 0 -129 63t-62 164l-11 119l-13 51l-2 105l-5 22l9 8l35 1q30 11 45 16q49 17 56 17q39 0 39 -30l-10 -225
q0 -94 27 -160t74 -66q41 0 76 53.5t35 122.5q0 57 -34 129l-75 141q0 35 80 70l14 -16q-37 -19 -47 -26q-18 -14 -18 -28q43 -71 74 -141q35 -77 35 -132z" />
    <glyph glyph-name="dotlessi" unicode="&#x131;" horiz-adv-x="333" 
d="M278 40q-43 -37 -69 -40l-23 23q-25 -8 -34.5 -13.5t-18.5 -18.5q-23 3 -34 6q-33 9 -31 24l8 36l37 304q0 15 -6.5 20t-37.5 5l-41 1l2 27l51 -2q15 0 80 13q21 4 62 13q13 0 21 -10.5t5 -25.5l-30 -343l54 13z" />
    <glyph glyph-name="circumflex" unicode="&#x2c6;" horiz-adv-x="306" 
d="M272 673q0 -16 -29 -16q-6 2 -16 11q-3 2 -8 8l-21 11q-15 12 -27.5 20.5t-22.5 8.5l-11 -3q-57 -66 -85 -66q-7 0 -15 5q-2 1 -6 6l51 52q52 55 61 72l113 -96q6 -2 8 -3q8 -4 8 -10z" />
    <glyph glyph-name="tilde" unicode="&#x2dc;" horiz-adv-x="429" 
d="M395 727q0 -28 -31 -61q-37 -39 -85 -39q-40 0 -78 33q-83 72 -91 72q-34 0 -40 -41t-24 -41q-19 0 -19 25q0 35 24 61t58 26q39 0 91 -52t82 -52q36 0 58 27l37 61q18 0 18 -19z" />
    <glyph glyph-name="macron" unicode="&#xaf;" horiz-adv-x="297" 
d="M257 708h-198q-25 0 -25 27q0 7 9 24h210q3 -5 5.5 -13t2.5 -20q0 -10 -4 -18z" />
    <glyph glyph-name="breve" unicode="&#x2d8;" horiz-adv-x="304" 
d="M270 774q-31 -57 -42 -70q-32 -38 -76 -38q-41 0 -73.5 28.5t-44.5 78.5q20 12 27 12q4 -1 29 -37.5t60 -36.5q38 0 58 32l16 38q3 2 5 3q6 3 11 3q13 0 30 -13z" />
    <glyph glyph-name="ring" unicode="&#x2da;" horiz-adv-x="214" 
d="M187 701q0 -31 -22.5 -55.5t-56.5 -24.5q-33 0 -56.5 22.5t-23.5 57.5q0 33 22.5 56.5t57.5 23.5q32 0 55.5 -23.5t23.5 -56.5zM149 701q0 19 -11 31t-30 12q-17 0 -30 -12t-13 -31q0 -16 12 -29.5t31 -13.5q14 0 27.5 11.5t13.5 31.5z" />
    <glyph glyph-name="cedilla" unicode="&#xb8;" horiz-adv-x="201" 
d="M167 -81q0 -35 -23 -60t-55 -25q-25 0 -42 13t-17 35q0 21 11.5 36.5t32.5 15.5t21 -21q0 -22 -34 -35q9 -18 29 -18t36 16t16 41q0 59 -73 59l1 35h32v-11l6 -4q26 -5 42.5 -26.5t16.5 -50.5z" />
    <glyph glyph-name="caron" unicode="&#x2c7;" horiz-adv-x="310" 
d="M271 768l-111 -114l-57 52q-60 54 -69 60q0 16 29 16q12 -13 29 -23q6 -3 17 -8q17 -14 25 -20q16 -11 25 -11q7 0 38.5 32.5t56.5 32.5q16 0 18 -8q0 -2 -1 -9z" />
    <glyph glyph-name="Lslash" unicode="&#x141;" horiz-adv-x="864" 
d="M860 113q0 -68 -68.5 -119.5t-163.5 -51.5q-81 0 -204 35q-41 11 -107 35l-28 -70l-145 63q-30 13 -44 38q-4 8 -8 22q-14 -17 -22 -25q-24 -25 -35 -25t-16.5 11.5t-5.5 22.5q0 17 16 24l97 47q12 6 20 46q1 7 3 19l-9 5l-43 -9q-18 0 -18 20l2 27l56 -8q22 -3 25 14
l5 32q-41 -10 -73 -19t-48 -16q-17 0 -34 13q-5 4 -13 14l41 33l135 28l14 29l4 38q2 18 -10 20l-45 5q-17 2 -13 24l4 19l15 3l40 -17l23 -5l1 26l13 61l-14 4l-38 -5q-10 -2 -17.5 5t-7.5 20q0 11 11 29l24 -9q26 -9 36 -9q17 0 17 16v22l7 20l-8 11l-54 5q-8 1 -13 8
t-5 14q0 17 19 13l56 -14l5 -6l12 2l44 -20l56 -7l63 12q12 2 21.5 -6.5t9.5 -25.5q0 -10 -6 -22l-58 -116q-7 -18 -14 -45t-13 -56q25 10 40 15q48 16 77 16q20 -7 30 -11q30 -14 30 -28l-74 -21l-111 -25q-12 -79 -19 -176l-5 -84q184 -77 304 -77q78 0 140 43t62 101
q0 27 -18 45t-53 18q-56 0 -100.5 -39t-44.5 -94q0 -18 -1.5 -28t-9.5 -10t-12.5 12.5t-4.5 30.5q0 57 51.5 106t120.5 49q44 0 74 -26t30 -66z" />
    <glyph glyph-name="lslash" unicode="&#x142;" horiz-adv-x="360" 
d="M336 398l-47 -30l-84 -40l-28 -223q-2 -17 3 -25.5t14 -8.5q17 0 51 58q11 19 32 59l26 -10l-83 -138q-12 -19 -37.5 -34.5t-44.5 -15.5q-26 0 -48.5 29.5t-45.5 95.5q1 13 14 28q4 5 13 13v9q-1 11 -1 23q0 36 1 43.5t5 21.5l-1 6q-33 -18 -48 -33q-12 0 -30 20
q-6 6 -16 21l17 47l86 37l14 40q-10 21 -13 41l13 41l-13 27l9 15l5 31q20 16 27 51t7 90l-74 -11l1 26q20 13 81 29q20 5 57 13q15 18 30 18q12 0 21.5 -5.5t9.5 -12.5q0 -14 -4 -31t-4 -18l-34 -270l24 18l34 13q18 -10 27 -17q28 -21 34 -41z" />
    <glyph glyph-name="Scaron" unicode="&#x160;" horiz-adv-x="565" 
d="M497 575q0 -46 -34.5 -81.5t-83.5 -35.5q-40 0 -68 25t-28 67q0 32 19.5 52.5t48.5 20.5q19 0 35 -11t16 -28q0 -27 -23 -27q-11 0 -48 17q-3 -4 -4 -7q-5 -11 -5 -22q0 -20 17.5 -38.5t37.5 -18.5q39 0 64 21q29 25 29 70t-34 79t-86 34q-59 0 -91.5 -31.5t-32.5 -92.5
q0 -28 4 -52q1 -8 4 -19l29 -17q15 -4 32 -26q5 -7 14 -21l68 -24l8 -20q46 -29 71 -62.5t25 -87.5q0 -112 -76.5 -199.5t-180.5 -87.5q-81 0 -140.5 58.5t-59.5 143.5q0 55 40.5 93.5t106.5 38.5q42 0 72 -30t30 -74q0 -39 -21.5 -68.5t-52.5 -29.5q-32 0 -55.5 19.5
t-23.5 46.5q0 33 28 33q9 0 21 -31.5t30 -31.5q20 0 34 11.5t14 31.5q0 38 -24 67q-27 32 -68 32q-40 0 -68.5 -28.5t-28.5 -72.5q0 -65 46.5 -114.5t112.5 -49.5q57 0 97.5 43.5t40.5 110.5q0 65 -57 118l-108 90q-58 59 -58 137q0 88 62.5 154.5t148.5 66.5q62 0 108 -42
t46 -100zM472 854l-111 -114l-57 52q-60 54 -69 60q0 16 29 16q12 -13 29 -23q6 -3 17 -8q17 -14 25 -20q16 -11 25 -11q7 0 38.5 32.5t56.5 32.5q16 0 18 -8q0 -2 -1 -9z" />
    <glyph glyph-name="scaron" unicode="&#x161;" horiz-adv-x="417" 
d="M368 367q0 -36 -21.5 -59.5t-53.5 -23.5q-30 0 -53.5 21t-23.5 56q0 25 14.5 42.5t37.5 17.5q12 0 23.5 -10.5t11.5 -24.5q0 -18 -23 -31t-23 -20q0 -24 38 -24q20 0 34.5 15t14.5 42q0 29 -19 51q-23 27 -62 27q-27 0 -51 -26.5t-24 -63.5q0 -38 65.5 -113.5
t65.5 -112.5q0 -51 -43 -88t-105 -37q-63 0 -103 32t-40 89q0 33 18 59t41 26q8 0 16.5 -7.5t8.5 -18.5q0 -21 -25 -30q-4 -1 -13 -4q-3 -3 -4 -6q-5 -11 -5 -25q0 -38 33 -61t79 -23q26 0 42 9.5t16 29.5q-58 74 -101 134q-48 66 -48 122q0 60 45 104t117 44q45 0 82.5 -32
t37.5 -80zM372 634l-111 -114l-57 52q-60 54 -69 60q0 16 29 16q12 -13 29 -23q6 -3 17 -8q17 -14 25 -20q16 -11 25 -11q7 0 38.5 32.5t56.5 32.5q16 0 18 -8q0 -2 -1 -9z" />
    <glyph glyph-name="Zcaron" unicode="&#x17d;" horiz-adv-x="859" 
d="M809 171q0 -77 -81.5 -140t-184.5 -63q-39 0 -131 17q-69 13 -156 32l-76 18l-152 -11l-59 -41l-24 24q110 77 156.5 117.5t160.5 161.5l-10 3l-24 -5q-3 7 -4 11q-4 12 -4 17q0 15 15 41l67 -10q12 -1 22 12l140 176l8 17l-60 2q-17 0 -68 -11q-17 -3 -50 -12
q-28 0 -42 -3q-43 -9 -50 -37l1 -71q-3 -2 -5 -3q-8 -4 -11 -4q-33 0 -33 26q3 21 3 45q0 40 -6.5 82t-16.5 66q3 4 13 6q3 0 10 2q9 -9 24 -40l12 -27q56 0 215 11t194 18q23 -8 34 -13q34 -15 34 -27t-26 -30q-8 -6 -27 -16q-9 -10 -92 -121l-150 -202l-78 -107
q-2 -3 -8 -6q-5 -3 -5 -7q0 -15 104.5 -41t157.5 -26q85 0 156 52t71 119q0 38 -34 67t-79 29q-51 0 -87.5 -32.5t-36.5 -79.5q0 -28 14 -48.5t41 -20.5q21 0 36.5 9.5t15.5 22.5l-5 12l-7 -7q-8 -7 -15 -7q-27 0 -27 30q0 13 10.5 22.5t22.5 9.5q21 0 36.5 -12.5
t15.5 -32.5q0 -32 -21 -54t-56 -22q-42 0 -69 28t-27 69q0 56 47 100t114 44q60 0 103.5 -38.5t43.5 -90.5zM544 843l-111 -114l-57 52q-60 54 -69 60q0 16 29 16q12 -13 29 -23q6 -3 17 -8q17 -14 25 -20q16 -11 25 -11q7 0 38.5 32.5t56.5 32.5q16 0 18 -8q0 -2 -1 -9z
" />
    <glyph glyph-name="zcaron" unicode="&#x17e;" horiz-adv-x="503" 
d="M449 317q-62 -91 -93 -126q-47 -53 -144 -137q122 -37 180 -75q36 -24 52 -53q0 -9 -18 -9q-85 54 -141.5 77t-114.5 23q-17 0 -63 -5q-16 -1 -47 -6q-4 1 -6 1q-5 2 -14 7l-19 33q129 79 185 129t93 119l-107 -7q-46 0 -71 -23t-25 -64q0 -5 -5 -13q-1 -2 -6 -7
q-27 10 -31 30q4 14 5 22q5 26 5 42q0 24 -15 44l13 23q20 -15 36 -20t51 -5q34 0 121 10t156 25q12 -2 17.5 -11t5.5 -24zM399 602l-111 -114l-57 52q-60 54 -69 60q0 16 29 16q12 -13 29 -23q6 -3 17 -8q17 -14 25 -20q16 -11 25 -11q7 0 38.5 32.5t56.5 32.5q16 0 18 -8
q0 -2 -1 -9z" />
    <glyph glyph-name="brokenbar" unicode="&#xa6;" horiz-adv-x="188" 
d="M140 726l-9 -88v-196q-3 -4 -8 -7q-1 -1 -5 -2l-63 6v305l48 3q9 0 19.5 -5t17.5 -16zM140 26l-49 -3q-26 3 -36 21l8 88v196q2 6 10 8q1 0 5 1l62 -6v-305z" />
    <glyph glyph-name="Eth" unicode="&#xd0;" horiz-adv-x="721" 
d="M666 320q0 -148 -111 -229q-126 -92 -392 -92l-29 8q-24 -4 -38 -6q-43 -7 -69 -13q-8 -4 -14 0.5t-6 11.5l41 22l115 35q-2 3 -2 5q-3 8 -3 12q16 37 28 106.5t12 104.5q0 8 -1 10q-4 -2 -19 -3t-33 -1h-27t-14 1l-5 14l3 46l8 11l81 7q7 39 10 63q11 79 11 130l-16 14
l-59 -37l-29 20q72 50 112 64q52 18 152 18l7 2q157 -51 222 -122.5t65 -201.5zM600 338q0 99 -68 173q-64 70 -140 70q-42 0 -58 -41t-16 -165l142 12l6 -44q-24 -14 -41 -20q-53 -20 -113 -20q0 -8 -0.5 -28t-0.5 -54q0 -61 1.5 -96.5t4.5 -54.5q150 0 225 95
q58 73 58 173z" />
    <glyph glyph-name="eth" unicode="&#xf0;" horiz-adv-x="457" 
d="M443 499l-66 -28q13 -40 18.5 -78t5.5 -89q0 -145 -54.5 -228.5t-154.5 -83.5q-68 0 -113 46t-45 122q0 77 59 135t136 58q27 0 39.5 -3t45.5 -20l-3 47q-4 51 -9 69l-100 -31l-11 30l103 33q-19 42 -42.5 62t-63.5 20q-13 0 -40 -5q-4 0 -11 -2l18 55q12 3 19 4
q22 4 35 4q115 0 158 -115l58 23zM310 274q-38 32 -82 32q-49 0 -82.5 -37.5t-33.5 -94.5q0 -42 21.5 -69.5t56.5 -27.5q47 0 83.5 54.5t36.5 142.5z" />
    <glyph glyph-name="Yacute" unicode="&#xdd;" horiz-adv-x="701" 
d="M690 671l-306 -284q-28 -27 -37.5 -43.5t-9.5 -42.5l2 -192q0 -68 69 -68l3 -42h-176l-78 -8q-5 1 -8 1q-8 2 -17 6l-2 37q61 0 73.5 9.5t12.5 58.5l-5 276l-152 231l-41 -11l-11 23l124 35l15 -22l-57 -14l141 -209q10 -16 35 -16q22 0 44 19l280 256h101zM453 838
q0 -19 -29 -36q-9 -5 -30 -13q-25 -17 -38 -25q-42 -26 -55 -26q-21 0 -21 19q1 2 1 3q4 9 15 15.5t68 54.5q40 34 61 34q28 0 28 -26z" />
    <glyph glyph-name="yacute" unicode="&#xfd;" horiz-adv-x="528" 
d="M349 626q0 -21 -29 -39q-9 -6 -29 -14q-24 -18 -37 -27q-40 -27 -54 -27q-21 0 -21 20q1 2 1 3q4 10 14 16.5t68 58.5q40 36 60 36q27 0 27 -27zM527 545q0 -10 -21 -47l-22 -36q-5 3 -7 4q-9 5 -11 5q-23 0 -66.5 -195t-43.5 -303q0 -30 4 -65q10 -87 10 -88
q0 -31 -6 -41t-23 -10q-14 0 -79.5 24.5t-83.5 24.5q-27 0 -39.5 -24.5t-22.5 -46.5q-45 0 -45 24q0 14 11.5 29t29.5 20l128 36l33 304q-39 -45 -100 -45q-134 0 -134 189q0 96 13 137q7 23 21 31h14q34 0 61.5 3t43.5 11l-1 -42l-19 -2q-14 -6 -25 -39t-11 -76
q0 -65 25.5 -106t71.5 -41q15 0 31.5 15t17.5 30l20 218l-3 33l15 14l44 -8l106 18q12 2 20 16t8 35q0 14 -10.5 25.5t-22.5 11.5q-5 0 -13 -12q-2 -4 -7 -12q6 -3 9 -5q9 -7 9 -14q0 -16 -19 -16q-14 0 -22.5 7t-8.5 25q0 22 17.5 38.5t43.5 16.5q21 0 40 -22t19 -49z" />
    <glyph glyph-name="Thorn" unicode="&#xde;" horiz-adv-x="572" 
d="M544 369q0 -79 -61 -144t-139 -65q-62 0 -90 46v-120l15 -63q3 -12 -2 -21.5t-16 -12.5q-56 30 -104 30q-23 0 -61 -9q-18 -4 -47 -12l-26 2q-4 23 11 41l42 38l13 -3q-1 -10 -1 -15q0 -17 6 -19l27 5q-8 19 -12 30q-13 35 -13 45q0 9 13 22l10 272v153v15q0 23 -8 34
t-39 24l2 28t6 17q47 1 71 2q72 5 82 18q24 -4 29 -69l4 -97q11 -4 24 -4q9 0 34.5 4t35.5 4q77 0 135.5 -50.5t58.5 -125.5zM503 370q0 44 -31 86q-40 54 -103 54q-27 0 -54 -9t-51 -29l3 -60q29 19 46 28q53 29 81 29t50 -21t22 -57q0 -40 -25 -72t-57 -32q-23 0 -23 22
q0 9 29.5 30.5t29.5 47.5q0 38 -27 38q-35 0 -70 -36q-41 -42 -41 -96q0 -71 69 -71q61 0 106.5 43.5t45.5 104.5z" />
    <glyph glyph-name="thorn" unicode="&#xfe;" horiz-adv-x="509" 
d="M454 197q0 -81 -44 -137q-50 -63 -136 -63q-24 0 -42.5 1.5t-27.5 3.5l1 -30l7 -120q0 -4 -5 -20q-1 -5 -6 -17q0 -14 21.5 -21t21.5 -21q0 -10 -4 -22q-89 26 -136 26l-40 -3l34 740q0 44 -6 53q-10 14 -55 14l-24 -1l4 27l75 -3q29 0 73 9q14 3 38 9q15 0 23 -16
q2 -5 5 -16l-19 -54l-2 -154l-6 -9l12 -29q44 34 86 34q64 0 108 -53t44 -128zM358 206q0 59 -18.5 95t-55.5 36q-21 0 -46.5 -17.5t-29.5 -31.5l-5 -196q0 -34 12.5 -45.5t43.5 -11.5q39 0 65 34q34 45 34 137z" />
    <glyph glyph-name="minus" unicode="&#xad;" horiz-adv-x="448" 
d="M407 282l-52 -11l-124 -11q-130 -14 -162 -28q-13 4 -24 34q-1 5 -4 14l31 34l182 10l82 24l35 1q13 -14 19 -22q19 -27 17 -45z" />
    <glyph glyph-name="multiply" unicode="&#xd7;" horiz-adv-x="429" 
d="M387 358q-10 -12 -17 -19q-42 -45 -86 -78l93 -67q0 -24 -12 -30l-52 -36l-7 -17l-113 80l-96 -72l-35 35q38 25 65 45q11 8 28 22l-75 51q-8 5 -12 9q-14 13 -15 24q-1 3 6.5 10.5l12.5 12.5q19 37 30.5 55t18.5 18q1 0 61 -61q34 -35 62 -52q26 15 63 47q33 28 50 47z
" />
    <glyph glyph-name="onesuperior" unicode="&#xb9;" horiz-adv-x="247" 
d="M199 478q-45 0 -95 -7q-17 -2 -43 -8l-2 11l40 8l-7 176l-53 -24l-5 11q57 25 98 56q13 10 30 27l11 -8l-13 -57v-43l-6 -36l3 -8l3 -78q0 -9 24 -9h10q1 0 4 1z" />
    <glyph glyph-name="twosuperior" unicode="&#xb2;" horiz-adv-x="247" 
d="M228 553q0 -30 -21 -51t-52 -21q-20 0 -44.5 7l-51.5 15q-10 0 -37 -12l-15 19l103 132q14 19 14 35t-10 27t-28 11q-14 0 -26.5 -6.5t-12.5 -18.5q0 -9 5.5 -16.5t13.5 -7.5q9 0 10 10.5t2 16.5l10 3l3 -14q0 -14 -6.5 -22t-23.5 -8q-31 0 -31 34q0 17 18 31t45 14
t46 -17t19 -44q0 -17 -13 -41.5t-41 -62.5l-36 -46q23 -8 35 -11q37 -11 49 -11q29 0 47 16t18 39q0 12 -5.5 20.5t-15.5 8.5q-4 0 -7 -9t-8 -9q-13 0 -13 14q0 9 7 16t18 7q14 0 24.5 -13.5t10.5 -34.5z" />
    <glyph glyph-name="threesuperior" unicode="&#xb3;" horiz-adv-x="248" 
d="M207 537q0 -45 -42 -93t-86 -48q-24 0 -40 14t-16 33q0 14 10.5 24.5t25.5 10.5q21 0 21 -16q0 -11 -14 -13q-5 -1 -11 1q-2 1 -6 4q-7 -4 -9 -13q0 -32 39 -32q28 0 52.5 27.5t24.5 62.5t-15.5 51.5t-53.5 23.5l-12 24q0 14 20 14q60 0 60 52q0 24 -14.5 39.5
t-37.5 15.5q-18 0 -32 -11t-14 -28q0 -20 13 -20q11 0 11 10q-1 3 -1 4q-1 4 -5 9l14 6q6 -12 6 -17q0 -11 -8 -18t-20 -7q-10 0 -17.5 10.5t-7.5 26.5q0 19 19 35t44 16q27 0 48 -20t21 -50q0 -17 -4.5 -28.5t-20.5 -25.5q58 -7 58 -74z" />
    <glyph glyph-name="onehalf" unicode="&#xbd;" horiz-adv-x="600" 
d="M445 704q0 -10 -16 -33q-42 -60 -46 -72l-181 -560l-35 -96q-50 11 -73 11q-14 0 -23 -1.5t-19 -3.5l-5 14q38 24 57 43q23 24 35 55l217 661q11 -3 23.5 -5.5t16.5 -1.5l21 14q25 0 28 -25zM528 61q0 -30 -21 -51t-52 -21q-20 0 -44.5 7l-51.5 15q-10 0 -37 -12l-15 19
l103 132q14 19 14 35t-10 27t-28 11q-14 0 -26.5 -6.5t-12.5 -18.5q0 -9 5.5 -16.5t13.5 -7.5q9 0 10 10.5t2 16.5l10 3l3 -14q0 -14 -6.5 -22t-23.5 -8q-31 0 -31 34q0 17 18 31t45 14t46 -17t19 -44q0 -17 -13 -41.5t-41 -62.5l-36 -46q23 -8 35 -11q37 -11 49 -11
q29 0 47 16t18 39q0 12 -5.5 20.5t-15.5 8.5q-4 0 -7 -9t-8 -9q-13 0 -13 14q0 9 7 16t18 7q14 0 24.5 -13.5t10.5 -34.5zM175 394q-45 0 -95 -7q-17 -2 -43 -8l-2 11l40 8l-7 176l-53 -24l-5 11q57 25 98 56q13 10 30 27l11 -8l-13 -57v-43l-6 -36l3 -8l3 -78q0 -9 24 -9
h10q1 0 4 1z" />
    <glyph glyph-name="onequarter" unicode="&#xbc;" horiz-adv-x="543" 
d="M445 704q0 -10 -16 -33q-42 -60 -46 -72l-181 -560l-35 -96q-50 11 -73 11q-14 0 -23 -1.5t-19 -3.5l-5 14q38 24 57 43q23 24 35 55l217 661q11 -3 23.5 -5.5t16.5 -1.5l21 14q25 0 28 -25zM500 147l-54 -11l1 -119l33 4l-1 -11q-24 -4 -50.5 -8t-60.5 -16l-3 10l21 7
l8 129l-73 -12l-2 15q2 7 29 40t27 58q0 15 -10 15q-6 0 -14 -4q-2 -1 -7 -4q1 5 1 7q2 8 6 10q12 9 21 9q18 0 18 -26q0 -22 -11 -45l-26 -43l5 -9l37 4l3 46q23 0 38.5 4.5t16.5 4.5q11 0 9 -10q1 -6 -6 -21l-4 -8l3 -10l43 7zM175 394q-45 0 -95 -7q-17 -2 -43 -8l-2 11
l40 8l-7 176l-53 -24l-5 11q57 25 98 56q13 10 30 27l11 -8l-13 -57v-43l-6 -36l3 -8l3 -78q0 -9 24 -9h10q1 0 4 1z" />
    <glyph glyph-name="threequarters" unicode="&#xbe;" horiz-adv-x="582" 
d="M532 149l-54 -11l1 -119l33 4l-1 -11q-24 -4 -50.5 -8t-60.5 -16l-3 10l21 7l8 129l-73 -12l-2 15q2 7 29 40t27 58q0 15 -10 15q-6 0 -14 -4q-2 -1 -7 -4q1 5 1 7q2 8 6 10q12 9 21 9q18 0 18 -26q0 -22 -11 -45l-26 -43l5 -9l37 4l3 46q23 0 38.5 4.5t16.5 4.5
q11 0 9 -10q1 -6 -6 -21l-4 -8l3 -10l43 7zM445 704q0 -10 -16 -33q-42 -60 -46 -72l-181 -560l-35 -96q-50 11 -73 11q-14 0 -23 -1.5t-19 -3.5l-5 14q38 24 57 43q23 24 35 55l217 661q11 -3 23.5 -5.5t16.5 -1.5l21 14q25 0 28 -25zM183 421q0 -45 -42 -93t-86 -48
q-24 0 -40 14t-16 33q0 14 10.5 24.5t25.5 10.5q21 0 21 -16q0 -11 -14 -13q-5 -1 -11 1q-2 1 -6 4q-7 -4 -9 -13q0 -32 39 -32q28 0 52.5 27.5t24.5 62.5t-15.5 51.5t-53.5 23.5l-12 24q0 14 20 14q60 0 60 52q0 24 -14.5 39.5t-37.5 15.5q-18 0 -32 -11t-14 -28
q0 -20 13 -20q11 0 11 10q-1 3 -1 4q-1 4 -5 9l14 6q6 -12 6 -17q0 -11 -8 -18t-20 -7q-10 0 -17.5 10.5t-7.5 26.5q0 19 19 35t44 16q27 0 48 -20t21 -50q0 -17 -4.5 -28.5t-20.5 -25.5q58 -7 58 -74z" />
    </font>
</defs>
</svg>
